SplineFontDB: 3.0
FontName: IsabelleTextBold
FullName: IsabelleTextBold
FamilyName: IsabelleText
Weight: Bold
Copyright: 
Version: 
ItalicAngle: 0
UnderlinePosition: -344
UnderlineWidth: 246
Ascent: 1556
Descent: 492
LayerCount: 2
Layer: 0 1 "Back"  1
Layer: 1 1 "Fore"  0
XUID: [1021 906 1711068302 8128416]
FSType: 4
OS2Version: 1
OS2_WeightWidthSlopeOnly: 0
OS2_UseTypoMetrics: 1
CreationTime: 1050374980
ModificationTime: 1260034588
PfmFamily: 17
TTFWeight: 700
TTFWidth: 5
LineGap: 0
VLineGap: 0
Panose: 2 11 7 9 3 6 4 2 2 4
OS2TypoAscent: 0
OS2TypoAOffset: 1
OS2TypoDescent: 0
OS2TypoDOffset: 1
OS2TypoLinegap: 410
OS2WinAscent: 0
OS2WinAOffset: 1
OS2WinDescent: 0
OS2WinDOffset: 1
HheadAscent: 0
HheadAOffset: 1
HheadDescent: 0
HheadDOffset: 1
OS2SubXSize: 1351
OS2SubYSize: 1228
OS2SubXOff: 0
OS2SubYOff: -446
OS2SupXSize: 1351
OS2SupYSize: 1228
OS2SupXOff: 0
OS2SupYOff: 595
OS2StrikeYSize: 246
OS2StrikeYPos: 614
OS2FamilyClass: 2050
OS2Vendor: 'Bits'
OS2CodePages: 00000001.00000000
OS2UnicodeRanges: 800000af.1000204a.00000000.00000000
DEI: 91125
TtTable: prep
PUSHW_1
 640
NPUSHB
 116
 190
 254
 3
 187
 187
 3
 186
 187
 3
 185
 250
 3
 183
 250
 3
 182
 181
 71
 5
 182
 187
 3
 181
 71
 3
 180
 50
 3
 179
 150
 3
 178
 50
 3
 177
 100
 3
 176
 150
 3
 175
 174
 19
 5
 175
 107
 3
 174
 19
 3
 172
 19
 3
 171
 254
 3
 170
 169
 13
 5
 170
 250
 3
 169
 13
 3
 168
 167
 140
 5
 168
 254
 3
 168
 192
 4
 167
 166
 89
 5
 167
 140
 3
 167
 128
 4
 166
 165
 38
 5
 166
 89
 3
 166
 64
 4
 165
 38
 3
 164
 254
 3
 163
 50
 3
 162
 21
 3
 161
 160
 71
 5
 161
 254
 3
 161
PUSHW_1
 -47
NPUSHB
 255
 4
 160
 159
 65
 5
 160
 71
 3
 159
 65
 3
 158
 157
 50
 5
 158
 107
 3
 157
 50
 3
 156
 254
 3
 155
 250
 3
 154
 250
 3
 153
 254
 3
 152
 18
 3
 151
 37
 3
 150
 24
 3
 147
 254
 3
 146
 254
 3
 145
 254
 3
 144
 254
 3
 143
 101
 16
 5
 143
 125
 3
 142
 141
 20
 5
 142
 22
 3
 141
 140
 16
 5
 141
 20
 3
 140
 16
 3
 139
 102
 30
 5
 139
 50
 3
 138
 12
 3
 137
 136
 187
 5

StartChar: u10000
Encoding: 65536 65536 0
Width: 1233
Flags: W
LayerCount: 2
Fore
SplineSet
104 -362 m 1,0,-1
 104 1444 l 1,1,-1
 1128 1444 l 1,2,-1
 1128 -362 l 1,3,-1
 104 -362 l 1,0,-1
219 -248 m 1,4,-1
 1014 -248 l 1,5,-1
 1014 1329 l 1,6,-1
 219 1329 l 1,7,-1
 219 -248 l 1,4,-1
EndSplineSet
EndChar

StartChar: exclam
Encoding: 33 33 4
Width: 1233
Flags: HW
LayerCount: 2
Fore
SplineSet
483 283 m 1,0,-1
 750 283 l 1,1,-1
 750 0 l 1,2,-1
 483 0 l 1,3,-1
 483 283 l 1,0,-1
483 1493 m 1,4,-1
 750 1493 l 1,5,-1
 750 838 l 1,6,-1
 717 481 l 1,7,-1
 518 481 l 1,8,-1
 483 838 l 1,9,-1
 483 1493 l 1,4,-1
EndSplineSet
EndChar

StartChar: quotedbl
Encoding: 34 34 5
Width: 1233
Flags: HW
LayerCount: 2
Fore
SplineSet
999 1493 m 1,0,-1
 999 938 l 1,1,-1
 743 938 l 1,2,-1
 743 1493 l 1,3,-1
 999 1493 l 1,0,-1
487 1493 m 1,4,-1
 487 938 l 1,5,-1
 231 938 l 1,6,-1
 231 1493 l 1,7,-1
 487 1493 l 1,4,-1
EndSplineSet
EndChar

StartChar: numbersign
Encoding: 35 35 6
Width: 1233
Flags: HW
LayerCount: 2
Fore
SplineSet
707 1470 m 1,0,-1
 612 1096 l 1,1,-1
 815 1096 l 1,2,-1
 909 1470 l 1,3,-1
 1133 1470 l 1,4,-1
 1036 1096 l 1,5,-1
 1229 1096 l 1,6,-1
 1229 881 l 1,7,-1
 983 881 l 1,8,-1
 909 588 l 1,9,-1
 1114 588 l 1,10,-1
 1114 373 l 1,11,-1
 856 373 l 1,12,-1
 762 0 l 1,13,-1
 541 0 l 1,14,-1
 635 373 l 1,15,-1
 430 373 l 1,16,-1
 336 0 l 1,17,-1
 115 0 l 1,18,-1
 209 373 l 1,19,-1
 2 373 l 1,20,-1
 2 588 l 1,21,-1
 262 588 l 1,22,-1
 336 881 l 1,23,-1
 117 881 l 1,24,-1
 117 1096 l 1,25,-1
 391 1096 l 1,26,-1
 485 1470 l 1,27,-1
 707 1470 l 1,0,-1
762 881 m 1,28,-1
 557 881 l 1,29,-1
 483 588 l 1,30,-1
 688 588 l 1,31,-1
 762 881 l 1,28,-1
EndSplineSet
EndChar

StartChar: dollar
Encoding: 36 36 7
Width: 1233
Flags: HW
LayerCount: 2
Fore
SplineSet
694 528 m 1,0,-1
 694 226 l 1,1,2
 757 235 757 235 792 274.5 c 128,-1,3
 827 314 827 314 827 375 c 0,4,5
 827 437 827 437 792.5 476.5 c 128,-1,6
 758 516 758 516 694 528 c 1,0,-1
553 817 m 1,7,-1
 553 1100 l 1,8,9
 491 1092 491 1092 459.5 1058.5 c 128,-1,10
 428 1025 428 1025 428 967 c 0,11,12
 428 910 428 910 459.5 872 c 128,-1,13
 491 834 491 834 553 817 c 1,7,-1
694 -301 m 1,14,-1
 553 -301 l 1,15,-1
 552 0 l 1,16,17
 465 3 465 3 370 26 c 128,-1,18
 275 49 275 49 172 92 c 1,19,-1
 172 354 l 1,20,21
 275 293 275 293 371.5 260 c 128,-1,22
 468 227 468 227 553 226 c 1,23,-1
 553 555 l 1,24,25
 356 594 356 594 260 689.5 c 128,-1,26
 164 785 164 785 164 942 c 0,27,28
 164 1109 164 1109 266 1208 c 128,-1,29
 368 1307 368 1307 553 1319 c 1,30,-1
 553 1556 l 1,31,-1
 694 1556 l 1,32,-1
 695 1319 l 1,33,34
 766 1315 766 1315 842.5 1301 c 128,-1,35
 919 1287 919 1287 999 1262 c 1,36,-1
 999 1006 l 1,37,38
 937 1046 937 1046 861 1070 c 128,-1,39
 785 1094 785 1094 694 1100 c 1,40,-1
 694 793 l 1,41,42
 891 762 891 762 991.5 658.5 c 128,-1,43
 1092 555 1092 555 1092 383 c 0,44,45
 1092 219 1092 219 983.5 114 c 128,-1,46
 875 9 875 9 695 0 c 1,47,-1
 694 -301 l 1,14,-1
EndSplineSet
EndChar

StartChar: percent
Encoding: 37 37 8
Width: 1233
Flags: HW
LayerCount: 2
Fore
SplineSet
33 1112 m 256,0,1
 33 1246 33 1246 126 1339 c 128,-1,2
 219 1432 219 1432 352 1432 c 256,3,4
 485 1432 485 1432 578.5 1338.5 c 128,-1,5
 672 1245 672 1245 672 1112 c 256,6,7
 672 979 672 979 578.5 886 c 128,-1,8
 485 793 485 793 352 793 c 256,9,10
 219 793 219 793 126 885.5 c 128,-1,11
 33 978 33 978 33 1112 c 256,0,1
352 1249 m 256,12,13
 295 1249 295 1249 255 1209.5 c 128,-1,14
 215 1170 215 1170 215 1112 c 256,15,16
 215 1054 215 1054 255 1014.5 c 128,-1,17
 295 975 295 975 352 975 c 0,18,19
 410 975 410 975 449.5 1014.5 c 128,-1,20
 489 1054 489 1054 489 1112 c 0,21,22
 489 1169 489 1169 449 1209 c 128,-1,23
 409 1249 409 1249 352 1249 c 256,12,13
86 561 m 1,24,-1
 1128 979 l 1,25,-1
 1169 883 l 1,26,-1
 121 465 l 1,27,-1
 86 561 l 1,24,-1
580 319 m 256,28,29
 580 453 580 453 672.5 546 c 128,-1,30
 765 639 765 639 899 639 c 0,31,32
 1031 639 1031 639 1125 545.5 c 128,-1,33
 1219 452 1219 452 1219 319 c 0,34,35
 1219 187 1219 187 1125 93.5 c 128,-1,36
 1031 0 1031 0 899 0 c 0,37,38
 765 0 765 0 672.5 92.5 c 128,-1,39
 580 185 580 185 580 319 c 256,28,29
897 457 m 0,40,41
 841 457 841 457 801.5 417 c 128,-1,42
 762 377 762 377 762 319 c 256,43,44
 762 261 762 261 801 221.5 c 128,-1,45
 840 182 840 182 897 182 c 0,46,47
 955 182 955 182 995.5 222 c 128,-1,48
 1036 262 1036 262 1036 319 c 256,49,50
 1036 376 1036 376 995 416.5 c 128,-1,51
 954 457 954 457 897 457 c 0,40,41
EndSplineSet
EndChar

StartChar: ampersand
Encoding: 38 38 9
Width: 1233
Flags: HW
LayerCount: 2
Fore
SplineSet
870 72 m 1,0,1
 795 22 795 22 710.5 -3.5 c 128,-1,2
 626 -29 626 -29 539 -29 c 0,3,4
 315 -29 315 -29 176 102 c 128,-1,5
 37 233 37 233 37 442 c 0,6,7
 37 587 37 587 107.5 706 c 128,-1,8
 178 825 178 825 317 913 c 1,9,10
 267 991 267 991 243 1057.5 c 128,-1,11
 219 1124 219 1124 219 1184 c 0,12,13
 219 1346 219 1346 328 1433 c 128,-1,14
 437 1520 437 1520 643 1520 c 0,15,16
 716 1520 716 1520 786 1509 c 128,-1,17
 856 1498 856 1498 924 1477 c 1,18,-1
 924 1221 l 1,19,20
 860 1257 860 1257 794.5 1275.5 c 128,-1,21
 729 1294 729 1294 664 1294 c 0,22,23
 584 1294 584 1294 543 1266 c 128,-1,24
 502 1238 502 1238 502 1184 c 0,25,26
 502 1148 502 1148 532.5 1085 c 128,-1,27
 563 1022 563 1022 631 920 c 1,28,-1
 944 440 l 1,29,30
 965 478 965 478 976 527 c 128,-1,31
 987 576 987 576 987 633 c 0,32,33
 987 663 987 663 985 691.5 c 128,-1,34
 983 720 983 720 979 745 c 1,35,-1
 1214 745 l 1,36,-1
 1214 694 l 2,37,38
 1214 549 1214 549 1180 440.5 c 128,-1,39
 1146 332 1146 332 1073 246 c 1,40,-1
 1235 0 l 1,41,-1
 918 0 l 1,42,-1
 870 72 l 1,0,1
440 731 m 1,43,44
 374 688 374 688 340.5 628.5 c 128,-1,45
 307 569 307 569 307 496 c 0,46,47
 307 374 307 374 385.5 290.5 c 128,-1,48
 464 207 464 207 578 207 c 0,49,50
 606 207 606 207 635.5 213.5 c 128,-1,51
 665 220 665 220 693 232 c 0,52,53
 695 233 695 233 701 236 c 0,54,55
 730 250 730 250 748 262 c 1,56,-1
 440 731 l 1,43,44
EndSplineSet
EndChar

StartChar: quotesingle
Encoding: 39 39 10
Width: 1233
Flags: HW
LayerCount: 2
Fore
SplineSet
743 1493 m 1,0,-1
 743 938 l 1,1,-1
 487 938 l 1,2,-1
 487 1493 l 1,3,-1
 743 1493 l 1,0,-1
EndSplineSet
EndChar

StartChar: parenleft
Encoding: 40 40 11
Width: 1233
Flags: HW
LayerCount: 2
Fore
SplineSet
924 1554 m 1,0,1
 792 1315 792 1315 728 1091 c 128,-1,2
 664 867 664 867 664 643 c 0,3,4
 664 421 664 421 728 195.5 c 128,-1,5
 792 -30 792 -30 924 -270 c 1,6,-1
 696 -270 l 1,7,8
 537 -39 537 -39 460 185.5 c 128,-1,9
 383 410 383 410 383 643 c 0,10,11
 383 875 383 875 460.5 1100.5 c 128,-1,12
 538 1326 538 1326 696 1554 c 1,13,-1
 924 1554 l 1,0,1
EndSplineSet
EndChar

StartChar: parenright
Encoding: 41 41 12
Width: 1233
Flags: HW
LayerCount: 2
Fore
SplineSet
309 1554 m 1,0,-1
 537 1554 l 1,1,2
 695 1326 695 1326 772.5 1100.5 c 128,-1,3
 850 875 850 875 850 643 c 0,4,5
 850 410 850 410 773 185.5 c 128,-1,6
 696 -39 696 -39 537 -270 c 1,7,-1
 309 -270 l 1,8,9
 441 -30 441 -30 505 195.5 c 128,-1,10
 569 421 569 421 569 643 c 0,11,12
 569 867 569 867 505 1091 c 128,-1,13
 441 1315 441 1315 309 1554 c 1,0,-1
EndSplineSet
EndChar

StartChar: asterisk
Encoding: 42 42 13
Width: 1233
Flags: HW
LayerCount: 2
Fore
SplineSet
1108 1217 m 1,0,-1
 778 1044 l 1,1,-1
 1108 870 l 1,2,-1
 1032 729 l 1,3,-1
 700 913 l 1,4,-1
 700 569 l 1,5,-1
 528 569 l 1,6,-1
 528 913 l 1,7,-1
 197 729 l 1,8,-1
 121 870 l 1,9,-1
 453 1044 l 1,10,-1
 121 1217 l 1,11,-1
 197 1358 l 1,12,-1
 528 1176 l 1,13,-1
 528 1520 l 1,14,-1
 700 1520 l 1,15,-1
 700 1176 l 1,16,-1
 1032 1358 l 1,17,-1
 1108 1217 l 1,0,-1
EndSplineSet
EndChar

StartChar: plus
Encoding: 43 43 14
Width: 1233
Flags: HW
LayerCount: 2
Fore
SplineSet
735 1192 m 1,0,-1
 735 762 l 1,1,-1
 1165 762 l 1,2,-1
 1165 524 l 1,3,-1
 735 524 l 1,4,-1
 735 92 l 1,5,-1
 498 92 l 1,6,-1
 498 524 l 1,7,-1
 66 524 l 1,8,-1
 66 762 l 1,9,-1
 498 762 l 1,10,-1
 498 1192 l 1,11,-1
 735 1192 l 1,0,-1
EndSplineSet
EndChar

StartChar: comma
Encoding: 44 44 15
Width: 1233
Flags: HW
LayerCount: 2
Fore
SplineSet
461 367 m 1,0,-1
 774 367 l 1,1,-1
 774 96 l 1,2,-1
 578 -287 l 1,3,-1
 362 -287 l 1,4,-1
 461 96 l 1,5,-1
 461 367 l 1,0,-1
EndSplineSet
EndChar

StartChar: hyphen
Encoding: 45 45 16
Width: 1233
Flags: HW
LayerCount: 2
Fore
SplineSet
301 735 m 1,0,-1
 932 735 l 1,1,-1
 932 444 l 1,2,-1
 301 444 l 1,3,-1
 301 735 l 1,0,-1
EndSplineSet
EndChar

StartChar: period
Encoding: 46 46 17
Width: 1233
Flags: HW
LayerCount: 2
Fore
SplineSet
449 367 m 1,0,-1
 782 367 l 1,1,-1
 782 0 l 1,2,-1
 449 0 l 1,3,-1
 449 367 l 1,0,-1
EndSplineSet
EndChar

StartChar: slash
Encoding: 47 47 18
Width: 1233
Flags: HW
LayerCount: 2
Fore
SplineSet
899 1493 m 1,0,-1
 1120 1493 l 1,1,-1
 334 -190 l 1,2,-1
 113 -190 l 1,3,-1
 899 1493 l 1,0,-1
EndSplineSet
EndChar

StartChar: zero
Encoding: 48 48 19
Width: 1233
Flags: W
LayerCount: 2
Fore
SplineSet
492 745 m 256,0,1
 492 798 492 798 528 834 c 128,-1,2
 564 870 564 870 616 870 c 0,3,4
 669 870 669 870 705 834 c 128,-1,5
 741 798 741 798 741 745 c 0,6,7
 741 693 741 693 705 657 c 128,-1,8
 669 621 669 621 616 621 c 0,9,10
 564 621 564 621 528 656.5 c 128,-1,11
 492 692 492 692 492 745 c 256,0,1
616 1270 m 0,12,13
 514 1270 514 1270 467 1145 c 128,-1,14
 420 1020 420 1020 420 745 c 0,15,16
 420 471 420 471 467 346 c 128,-1,17
 514 221 514 221 616 221 c 0,18,19
 719 221 719 221 766 346 c 128,-1,20
 813 471 813 471 813 745 c 0,21,22
 813 1020 813 1020 766 1145 c 128,-1,23
 719 1270 719 1270 616 1270 c 0,12,13
123 745 m 0,24,25
 123 1133 123 1133 246 1326.5 c 128,-1,26
 369 1520 369 1520 616 1520 c 0,27,28
 864 1520 864 1520 987 1327 c 128,-1,29
 1110 1134 1110 1134 1110 745 c 0,30,31
 1110 357 1110 357 987 164 c 128,-1,32
 864 -29 864 -29 616 -29 c 0,33,34
 369 -29 369 -29 246 164.5 c 128,-1,35
 123 358 123 358 123 745 c 0,24,25
EndSplineSet
EndChar

StartChar: one
Encoding: 49 49 20
Width: 1233
Flags: W
LayerCount: 2
Fore
SplineSet
188 260 m 1,0,-1
 518 260 l 1,1,-1
 518 1229 l 1,2,-1
 211 1153 l 1,3,-1
 211 1419 l 1,4,-1
 520 1493 l 1,5,-1
 805 1493 l 1,6,-1
 805 260 l 1,7,-1
 1135 260 l 1,8,-1
 1135 0 l 1,9,-1
 188 0 l 1,10,-1
 188 260 l 1,0,-1
EndSplineSet
EndChar

StartChar: two
Encoding: 50 50 21
Width: 1233
Flags: W
LayerCount: 2
Fore
SplineSet
434 260 m 1,0,-1
 1063 260 l 1,1,-1
 1063 0 l 1,2,-1
 115 0 l 1,3,-1
 115 252 l 1,4,-1
 275 422 l 2,5,6
 560 725 560 725 621 795 c 0,7,8
 696 881 696 881 729 947.5 c 128,-1,9
 762 1014 762 1014 762 1079 c 0,10,11
 762 1179 762 1179 701.5 1233.5 c 128,-1,12
 641 1288 641 1288 530 1288 c 0,13,14
 451 1288 451 1288 352.5 1256.5 c 128,-1,15
 254 1225 254 1225 147 1165 c 1,16,-1
 147 1440 l 1,17,18
 254 1479 254 1479 356.5 1499.5 c 128,-1,19
 459 1520 459 1520 553 1520 c 0,20,21
 790 1520 790 1520 925.5 1409.5 c 128,-1,22
 1061 1299 1061 1299 1061 1108 c 0,23,24
 1061 1020 1061 1020 1031.5 943 c 128,-1,25
 1002 866 1002 866 930 772 c 0,26,27
 877 704 877 704 639 466 c 0,28,29
 510 337 510 337 434 260 c 1,0,-1
EndSplineSet
EndChar

StartChar: three
Encoding: 51 51 22
Width: 1233
Flags: W
LayerCount: 2
Fore
SplineSet
549 668 m 2,0,-1
 391 668 l 1,1,-1
 391 928 l 1,2,-1
 549 928 l 2,3,4
 659 928 659 928 719.5 971.5 c 128,-1,5
 780 1015 780 1015 780 1094 c 0,6,7
 780 1177 780 1177 719.5 1223.5 c 128,-1,8
 659 1270 659 1270 549 1270 c 0,9,10
 465 1270 465 1270 369 1249 c 128,-1,11
 273 1228 273 1228 170 1188 c 1,12,-1
 170 1456 l 1,13,14
 273 1487 273 1487 373 1503.5 c 128,-1,15
 473 1520 473 1520 565 1520 c 0,16,17
 801 1520 801 1520 933 1417 c 128,-1,18
 1065 1314 1065 1314 1065 1133 c 0,19,20
 1065 1000 1065 1000 989 915.5 c 128,-1,21
 913 831 913 831 772 805 c 1,22,23
 932 777 932 777 1016 677.5 c 128,-1,24
 1100 578 1100 578 1100 416 c 0,25,26
 1100 199 1100 199 961 85 c 128,-1,27
 822 -29 822 -29 557 -29 c 0,28,29
 444 -29 444 -29 334.5 -10 c 128,-1,30
 225 9 225 9 125 45 c 1,31,-1
 125 319 l 1,32,33
 219 272 219 272 328 247.5 c 128,-1,34
 437 223 437 223 557 223 c 256,35,36
 677 223 677 223 747 278.5 c 128,-1,37
 817 334 817 334 817 428 c 0,38,39
 817 543 817 543 747 605.5 c 128,-1,40
 677 668 677 668 549 668 c 2,0,-1
EndSplineSet
EndChar

StartChar: four
Encoding: 52 52 23
Width: 1233
Flags: W
LayerCount: 2
Fore
SplineSet
694 1165 m 1,0,-1
 317 575 l 1,1,-1
 694 575 l 1,2,-1
 694 1165 l 1,0,-1
668 1493 m 1,3,-1
 977 1493 l 1,4,-1
 977 575 l 1,5,-1
 1141 575 l 1,6,-1
 1141 322 l 1,7,-1
 977 322 l 1,8,-1
 977 0 l 1,9,-1
 694 0 l 1,10,-1
 694 322 l 1,11,-1
 102 322 l 1,12,-1
 102 608 l 1,13,-1
 668 1493 l 1,3,-1
EndSplineSet
EndChar

StartChar: five
Encoding: 53 53 24
Width: 1233
Flags: W
LayerCount: 2
Fore
SplineSet
193 1493 m 1,0,-1
 1004 1493 l 1,1,-1
 1004 1233 l 1,2,-1
 432 1233 l 1,3,-1
 432 956 l 1,4,5
 468 970 468 970 509 976.5 c 128,-1,6
 550 983 550 983 596 983 c 0,7,8
 818 983 818 983 956 843 c 128,-1,9
 1094 703 1094 703 1094 479 c 0,10,11
 1094 244 1094 244 944.5 107.5 c 128,-1,12
 795 -29 795 -29 537 -29 c 0,13,14
 441 -29 441 -29 343 -13 c 128,-1,15
 245 3 245 3 143 35 c 1,16,-1
 143 301 l 1,17,18
 226 260 226 260 313.5 239.5 c 128,-1,19
 401 219 401 219 489 219 c 0,20,21
 645 219 645 219 726 285.5 c 128,-1,22
 807 352 807 352 807 479 c 0,23,24
 807 596 807 596 726.5 666.5 c 128,-1,25
 646 737 646 737 512 737 c 0,26,27
 433 737 433 737 353.5 717.5 c 128,-1,28
 274 698 274 698 193 659 c 1,29,-1
 193 1493 l 1,0,-1
EndSplineSet
EndChar

StartChar: six
Encoding: 54 54 25
Width: 1233
Flags: W
LayerCount: 2
Fore
SplineSet
643 748 m 256,0,1
 547 748 547 748 496.5 678.5 c 128,-1,2
 446 609 446 609 446 477 c 0,3,4
 446 346 446 346 496.5 276.5 c 128,-1,5
 547 207 547 207 643 207 c 256,6,7
 739 207 739 207 790.5 276.5 c 128,-1,8
 842 346 842 346 842 477 c 256,9,10
 842 608 842 608 790.5 678 c 128,-1,11
 739 748 739 748 643 748 c 256,0,1
1030 1458 m 1,12,-1
 1030 1190 l 1,13,14
 951 1235 951 1235 878.5 1257.5 c 128,-1,15
 806 1280 806 1280 739 1280 c 0,16,17
 579 1280 579 1280 495.5 1172.5 c 128,-1,18
 412 1065 412 1065 408 855 c 1,19,20
 455 920 455 920 528 952.5 c 128,-1,21
 601 985 601 985 700 985 c 0,22,23
 902 985 902 985 1012 857.5 c 128,-1,24
 1122 730 1122 730 1122 496 c 0,25,26
 1122 245 1122 245 998.5 107 c 128,-1,27
 875 -31 875 -31 651 -31 c 0,28,29
 378 -31 378 -31 254.5 152 c 128,-1,30
 131 335 131 335 131 743 c 0,31,32
 131 1131 131 1131 282 1324.5 c 128,-1,33
 433 1518 433 1518 735 1518 c 0,34,35
 805 1518 805 1518 879.5 1503 c 128,-1,36
 954 1488 954 1488 1030 1458 c 1,12,-1
EndSplineSet
EndChar

StartChar: seven
Encoding: 55 55 26
Width: 1233
Flags: W
LayerCount: 2
Fore
SplineSet
135 1493 m 1,0,-1
 1079 1493 l 1,1,-1
 1079 1284 l 1,2,-1
 573 0 l 1,3,-1
 272 0 l 1,4,-1
 758 1233 l 1,5,-1
 135 1233 l 1,6,-1
 135 1493 l 1,0,-1
EndSplineSet
EndChar

StartChar: eight
Encoding: 56 56 27
Width: 1233
Flags: W
LayerCount: 2
Fore
SplineSet
616 666 m 0,0,1
 517 666 517 666 456 603.5 c 128,-1,2
 395 541 395 541 395 438 c 256,3,4
 395 335 395 335 456 272 c 128,-1,5
 517 209 517 209 616 209 c 256,6,7
 715 209 715 209 776.5 273 c 128,-1,8
 838 337 838 337 838 438 c 0,9,10
 838 541 838 541 777 603.5 c 128,-1,11
 716 666 716 666 616 666 c 0,0,1
397 791 m 1,12,13
 284 830 284 830 225 913.5 c 128,-1,14
 166 997 166 997 166 1118 c 0,15,16
 166 1304 166 1304 287 1412 c 128,-1,17
 408 1520 408 1520 616 1520 c 0,18,19
 825 1520 825 1520 946 1412 c 128,-1,20
 1067 1304 1067 1304 1067 1118 c 0,21,22
 1067 998 1067 998 1009 914.5 c 128,-1,23
 951 831 951 831 840 791 c 1,24,25
 964 753 964 753 1034 655 c 128,-1,26
 1104 557 1104 557 1104 420 c 0,27,28
 1104 205 1104 205 977 88 c 128,-1,29
 850 -29 850 -29 616 -29 c 0,30,31
 383 -29 383 -29 256 88 c 128,-1,32
 129 205 129 205 129 420 c 0,33,34
 129 558 129 558 200 656 c 128,-1,35
 271 754 271 754 397 791 c 1,12,13
428 1094 m 0,36,37
 428 1006 428 1006 478.5 954.5 c 128,-1,38
 529 903 529 903 616 903 c 0,39,40
 704 903 704 903 754.5 954.5 c 128,-1,41
 805 1006 805 1006 805 1094 c 0,42,43
 805 1181 805 1181 754.5 1231.5 c 128,-1,44
 704 1282 704 1282 616 1282 c 0,45,46
 530 1282 530 1282 479 1231 c 128,-1,47
 428 1180 428 1180 428 1094 c 0,36,37
EndSplineSet
EndChar

StartChar: nine
Encoding: 57 57 28
Width: 1233
Flags: W
LayerCount: 2
Fore
SplineSet
203 20 m 1,0,-1
 203 289 l 1,1,2
 282 243 282 243 354.5 221 c 128,-1,3
 427 199 427 199 494 199 c 0,4,5
 653 199 653 199 736.5 305.5 c 128,-1,6
 820 412 820 412 825 624 c 1,7,8
 778 559 778 559 705 526.5 c 128,-1,9
 632 494 632 494 532 494 c 0,10,11
 331 494 331 494 221 621.5 c 128,-1,12
 111 749 111 749 111 983 c 0,13,14
 111 1233 111 1233 234 1370 c 128,-1,15
 357 1507 357 1507 582 1507 c 0,16,17
 855 1507 855 1507 978.5 1324.5 c 128,-1,18
 1102 1142 1102 1142 1102 735 c 0,19,20
 1102 348 1102 348 951 154.5 c 128,-1,21
 800 -39 800 -39 498 -39 c 0,22,23
 428 -39 428 -39 353.5 -24 c 128,-1,24
 279 -9 279 -9 203 20 c 1,0,-1
590 741 m 0,25,26
 685 741 685 741 735.5 810.5 c 128,-1,27
 786 880 786 880 786 1012 c 0,28,29
 786 1143 786 1143 735.5 1212.5 c 128,-1,30
 685 1282 685 1282 590 1282 c 0,31,32
 494 1282 494 1282 442.5 1212.5 c 128,-1,33
 391 1143 391 1143 391 1012 c 256,34,35
 391 881 391 881 442.5 811 c 128,-1,36
 494 741 494 741 590 741 c 0,25,26
EndSplineSet
EndChar

StartChar: colon
Encoding: 58 58 29
Width: 1233
Flags: HW
LayerCount: 2
Fore
SplineSet
449 1063 m 1,0,-1
 782 1063 l 1,1,-1
 782 698 l 1,2,-1
 449 698 l 1,3,-1
 449 1063 l 1,0,-1
449 367 m 1,4,-1
 782 367 l 1,5,-1
 782 0 l 1,6,-1
 449 0 l 1,7,-1
 449 367 l 1,4,-1
EndSplineSet
EndChar

StartChar: semicolon
Encoding: 59 59 30
Width: 1233
Flags: HW
LayerCount: 2
Fore
SplineSet
449 367 m 1,0,-1
 782 367 l 1,1,-1
 782 96 l 1,2,-1
 586 -287 l 1,3,-1
 371 -287 l 1,4,-1
 449 96 l 1,5,-1
 449 367 l 1,0,-1
449 1063 m 1,6,-1
 782 1063 l 1,7,-1
 782 698 l 1,8,-1
 449 698 l 1,9,-1
 449 1063 l 1,6,-1
EndSplineSet
EndChar

StartChar: less
Encoding: 60 60 31
Width: 1233
Flags: HW
LayerCount: 2
Fore
SplineSet
1145 926 m 1,0,-1
 350 641 l 1,1,-1
 1145 358 l 1,2,-1
 1145 109 l 1,3,-1
 88 524 l 1,4,-1
 88 760 l 1,5,-1
 1145 1176 l 1,6,-1
 1145 926 l 1,0,-1
EndSplineSet
EndChar

StartChar: equal
Encoding: 61 61 32
Width: 1233
Flags: HW
LayerCount: 2
Fore
SplineSet
88 532 m 1,0,-1
 1145 532 l 1,1,-1
 1145 295 l 1,2,-1
 88 295 l 1,3,-1
 88 532 l 1,0,-1
88 987 m 1,4,-1
 1145 987 l 1,5,-1
 1145 752 l 1,6,-1
 88 752 l 1,7,-1
 88 987 l 1,4,-1
EndSplineSet
EndChar

StartChar: greater
Encoding: 62 62 33
Width: 1233
Flags: HW
LayerCount: 2
Fore
SplineSet
88 926 m 1,0,-1
 88 1176 l 1,1,-1
 1145 760 l 1,2,-1
 1145 524 l 1,3,-1
 88 109 l 1,4,-1
 88 358 l 1,5,-1
 883 641 l 1,6,-1
 88 926 l 1,0,-1
EndSplineSet
EndChar

StartChar: question
Encoding: 63 63 34
Width: 1233
Flags: HW
LayerCount: 2
Fore
SplineSet
440 283 m 1,0,-1
 707 283 l 1,1,-1
 707 0 l 1,2,-1
 440 0 l 1,3,-1
 440 283 l 1,0,-1
707 401 m 1,4,-1
 440 401 l 1,5,-1
 440 555 l 2,6,7
 440 654 440 654 471 724 c 128,-1,8
 502 794 502 794 582 872 c 2,9,-1
 672 961 l 2,10,11
 735 1022 735 1022 757.5 1062 c 128,-1,12
 780 1102 780 1102 780 1145 c 0,13,14
 780 1212 780 1212 734 1246 c 128,-1,15
 688 1280 688 1280 596 1280 c 0,16,17
 512 1280 512 1280 420.5 1244.5 c 128,-1,18
 329 1209 329 1209 233 1139 c 1,19,-1
 233 1407 l 1,20,21
 331 1463 331 1463 431.5 1491.5 c 128,-1,22
 532 1520 532 1520 633 1520 c 0,23,24
 835 1520 835 1520 950 1426 c 128,-1,25
 1065 1332 1065 1332 1065 1167 c 0,26,27
 1065 1091 1065 1091 1031 1025.5 c 128,-1,28
 997 960 997 960 903 868 c 2,29,-1
 815 782 l 2,30,31
 747 716 747 716 728 674 c 128,-1,32
 709 632 709 632 709 571 c 0,33,34
 709 562 709 562 708.5 550 c 128,-1,35
 708 538 708 538 707 524 c 1,36,-1
 707 401 l 1,4,-1
EndSplineSet
EndChar

StartChar: at
Encoding: 64 64 35
Width: 1233
Flags: W
LayerCount: 2
Fore
SplineSet
973 545 m 0,0,1
 973 658 973 658 922 722 c 128,-1,2
 871 786 871 786 782 786 c 256,3,4
 693 786 693 786 642.5 722 c 128,-1,5
 592 658 592 658 592 545 c 0,6,7
 592 431 592 431 642.5 367 c 128,-1,8
 693 303 693 303 782 303 c 256,9,10
 871 303 871 303 922 367 c 128,-1,11
 973 431 973 431 973 545 c 0,0,1
1159 135 m 1,12,-1
 963 135 l 1,13,-1
 963 217 l 1,14,15
 925 164 925 164 873.5 139.5 c 128,-1,16
 822 115 822 115 750 115 c 0,17,18
 586 115 586 115 485.5 233 c 128,-1,19
 385 351 385 351 385 545 c 0,20,21
 385 738 385 738 485 855.5 c 128,-1,22
 585 973 585 973 750 973 c 0,23,24
 821 973 821 973 875 948.5 c 128,-1,25
 929 924 929 924 963 877 c 1,26,-1
 963 918 l 2,27,28
 963 1054 963 1054 888.5 1128 c 128,-1,29
 814 1202 814 1202 676 1202 c 0,30,31
 468 1202 468 1202 336.5 1019 c 128,-1,32
 205 836 205 836 205 543 c 0,33,34
 205 236 205 236 357 54.5 c 128,-1,35
 509 -127 509 -127 762 -127 c 0,36,37
 842 -127 842 -127 917 -103.5 c 128,-1,38
 992 -80 992 -80 1061 -33 c 1,39,-1
 1153 -209 l 1,40,41
 1072 -264 1072 -264 976.5 -291.5 c 128,-1,42
 881 -319 881 -319 772 -319 c 0,43,44
 422 -319 422 -319 214 -86 c 128,-1,45
 6 147 6 147 6 543 c 0,46,47
 6 930 6 930 193 1162.5 c 128,-1,48
 380 1395 380 1395 688 1395 c 0,49,50
 906 1395 906 1395 1032.5 1263.5 c 128,-1,51
 1159 1132 1159 1132 1159 905 c 2,52,-1
 1159 135 l 1,12,-1
EndSplineSet
EndChar

StartChar: A
Encoding: 65 65 36
Width: 1233
Flags: W
LayerCount: 2
Fore
SplineSet
616 1223 m 1,0,-1
 477 612 l 1,1,-1
 756 612 l 1,2,-1
 616 1223 l 1,0,-1
436 1493 m 1,3,-1
 797 1493 l 1,4,-1
 1200 0 l 1,5,-1
 905 0 l 1,6,-1
 813 369 l 1,7,-1
 418 369 l 1,8,-1
 328 0 l 1,9,-1
 33 0 l 1,10,-1
 436 1493 l 1,3,-1
EndSplineSet
EndChar

StartChar: B
Encoding: 66 66 37
Width: 1233
Flags: W
LayerCount: 2
Fore
SplineSet
410 678 m 1,0,-1
 410 236 l 1,1,-1
 606 236 l 2,2,3
 747 236 747 236 803.5 284 c 128,-1,4
 860 332 860 332 860 451 c 0,5,6
 860 572 860 572 801 625 c 128,-1,7
 742 678 742 678 606 678 c 2,8,-1
 410 678 l 1,0,-1
410 1260 m 1,9,-1
 410 913 l 1,10,-1
 606 913 l 2,11,12
 718 913 718 913 765.5 953 c 128,-1,13
 813 993 813 993 813 1085 c 256,14,15
 813 1177 813 1177 764.5 1218.5 c 128,-1,16
 716 1260 716 1260 606 1260 c 2,17,-1
 410 1260 l 1,9,-1
125 1495 m 1,18,-1
 606 1495 l 2,19,20
 855 1495 855 1495 980.5 1400.5 c 128,-1,21
 1106 1306 1106 1306 1106 1118 c 0,22,23
 1106 974 1106 974 1032 893 c 128,-1,24
 958 812 958 812 815 799 c 1,25,26
 986 782 986 782 1072.5 684 c 128,-1,27
 1159 586 1159 586 1159 410 c 0,28,29
 1159 194 1159 194 1029 97 c 128,-1,30
 899 0 899 0 606 0 c 2,31,-1
 125 0 l 1,32,-1
 125 1495 l 1,18,-1
EndSplineSet
EndChar

StartChar: C
Encoding: 67 67 38
Width: 1233
Flags: W
LayerCount: 2
Fore
SplineSet
1081 43 m 1,0,1
 1011 7 1011 7 934 -11 c 128,-1,2
 857 -29 857 -29 772 -29 c 0,3,4
 470 -29 470 -29 311 170 c 128,-1,5
 152 369 152 369 152 745 c 0,6,7
 152 1122 152 1122 311 1321 c 128,-1,8
 470 1520 470 1520 772 1520 c 0,9,10
 857 1520 857 1520 935 1502 c 128,-1,11
 1013 1484 1013 1484 1081 1448 c 1,12,-1
 1081 1120 l 1,13,14
 1005 1190 1005 1190 933.5 1222.5 c 128,-1,15
 862 1255 862 1255 786 1255 c 0,16,17
 624 1255 624 1255 541.5 1126.5 c 128,-1,18
 459 998 459 998 459 745 c 0,19,20
 459 493 459 493 541.5 364.5 c 128,-1,21
 624 236 624 236 786 236 c 0,22,23
 862 236 862 236 933.5 268.5 c 128,-1,24
 1005 301 1005 301 1081 371 c 1,25,-1
 1081 43 l 1,0,1
EndSplineSet
EndChar

StartChar: D
Encoding: 68 68 39
Width: 1233
Flags: W
LayerCount: 2
Fore
SplineSet
432 1227 m 1,0,-1
 432 266 l 1,1,-1
 512 266 l 2,2,3
 686 266 686 266 760 375.5 c 128,-1,4
 834 485 834 485 834 748 c 0,5,6
 834 1009 834 1009 760 1118 c 128,-1,7
 686 1227 686 1227 512 1227 c 2,8,-1
 432 1227 l 1,0,-1
137 1493 m 1,9,-1
 453 1493 l 2,10,11
 819 1493 819 1493 980 1318.5 c 128,-1,12
 1141 1144 1141 1144 1141 748 c 0,13,14
 1141 351 1141 351 980 175.5 c 128,-1,15
 819 0 819 0 453 0 c 2,16,-1
 137 0 l 1,17,-1
 137 1493 l 1,9,-1
EndSplineSet
EndChar

StartChar: E
Encoding: 69 69 40
Width: 1233
Flags: W
LayerCount: 2
Fore
SplineSet
1098 0 m 1,0,-1
 168 0 l 1,1,-1
 168 1493 l 1,2,-1
 1098 1493 l 1,3,-1
 1098 1233 l 1,4,-1
 463 1233 l 1,5,-1
 463 911 l 1,6,-1
 1038 911 l 1,7,-1
 1038 651 l 1,8,-1
 463 651 l 1,9,-1
 463 260 l 1,10,-1
 1098 260 l 1,11,-1
 1098 0 l 1,0,-1
EndSplineSet
EndChar

StartChar: F
Encoding: 70 70 41
Width: 1233
Flags: W
LayerCount: 2
Fore
SplineSet
1112 1233 m 1,0,-1
 477 1233 l 1,1,-1
 477 911 l 1,2,-1
 1055 911 l 1,3,-1
 1055 651 l 1,4,-1
 477 651 l 1,5,-1
 477 0 l 1,6,-1
 182 0 l 1,7,-1
 182 1493 l 1,8,-1
 1112 1493 l 1,9,-1
 1112 1233 l 1,0,-1
EndSplineSet
EndChar

StartChar: G
Encoding: 71 71 42
Width: 1233
Flags: W
LayerCount: 2
Fore
SplineSet
872 270 m 1,0,-1
 872 555 l 1,1,-1
 670 555 l 1,2,-1
 670 803 l 1,3,-1
 1130 803 l 1,4,-1
 1130 119 l 1,5,6
 1045 46 1045 46 942.5 8.5 c 128,-1,7
 840 -29 840 -29 723 -29 c 0,8,9
 433 -29 433 -29 275 172.5 c 128,-1,10
 117 374 117 374 117 745 c 0,11,12
 117 1122 117 1122 276.5 1321 c 128,-1,13
 436 1520 436 1520 737 1520 c 0,14,15
 827 1520 827 1520 914 1494.5 c 128,-1,16
 1001 1469 1001 1469 1077 1421 c 1,17,-1
 1077 1094 l 1,18,19
 1015 1174 1015 1174 934.5 1214.5 c 128,-1,20
 854 1255 854 1255 758 1255 c 0,21,22
 590 1255 590 1255 507 1128.5 c 128,-1,23
 424 1002 424 1002 424 745 c 0,24,25
 424 496 424 496 504 366 c 128,-1,26
 584 236 584 236 737 236 c 0,27,28
 783 236 783 236 817 244.5 c 128,-1,29
 851 253 851 253 872 270 c 1,0,-1
EndSplineSet
EndChar

StartChar: H
Encoding: 72 72 43
Width: 1233
Flags: W
LayerCount: 2
Fore
SplineSet
137 1493 m 1,0,-1
 432 1493 l 1,1,-1
 432 924 l 1,2,-1
 801 924 l 1,3,-1
 801 1493 l 1,4,-1
 1096 1493 l 1,5,-1
 1096 0 l 1,6,-1
 801 0 l 1,7,-1
 801 664 l 1,8,-1
 432 664 l 1,9,-1
 432 0 l 1,10,-1
 137 0 l 1,11,-1
 137 1493 l 1,0,-1
EndSplineSet
EndChar

StartChar: I
Encoding: 73 73 44
Width: 1233
Flags: W
LayerCount: 2
Fore
SplineSet
172 1233 m 1,0,-1
 172 1493 l 1,1,-1
 1061 1493 l 1,2,-1
 1061 1233 l 1,3,-1
 764 1233 l 1,4,-1
 764 260 l 1,5,-1
 1061 260 l 1,6,-1
 1061 0 l 1,7,-1
 172 0 l 1,8,-1
 172 260 l 1,9,-1
 469 260 l 1,10,-1
 469 1233 l 1,11,-1
 172 1233 l 1,0,-1
EndSplineSet
EndChar

StartChar: J
Encoding: 74 74 45
Width: 1233
Flags: W
LayerCount: 2
Fore
SplineSet
109 74 m 1,0,-1
 109 416 l 1,1,2
 195 328 195 328 292.5 282 c 128,-1,3
 390 236 390 236 489 236 c 0,4,5
 605 236 605 236 659 294 c 128,-1,6
 713 352 713 352 713 479 c 2,7,-1
 713 1233 l 1,8,-1
 352 1233 l 1,9,-1
 352 1493 l 1,10,-1
 1008 1493 l 1,11,-1
 1008 479 l 2,12,13
 1008 206 1008 206 893.5 88.5 c 128,-1,14
 779 -29 779 -29 516 -29 c 0,15,16
 421 -29 421 -29 317.5 -3 c 128,-1,17
 214 23 214 23 109 74 c 1,0,-1
EndSplineSet
EndChar

StartChar: K
Encoding: 75 75 46
Width: 1233
Flags: W
LayerCount: 2
Fore
SplineSet
117 1493 m 1,0,-1
 412 1493 l 1,1,-1
 412 903 l 1,2,-1
 874 1493 l 1,3,-1
 1208 1493 l 1,4,-1
 737 905 l 1,5,-1
 1225 0 l 1,6,-1
 897 0 l 1,7,-1
 543 672 l 1,8,-1
 412 506 l 1,9,-1
 412 0 l 1,10,-1
 117 0 l 1,11,-1
 117 1493 l 1,0,-1
EndSplineSet
EndChar

StartChar: L
Encoding: 76 76 47
Width: 1233
Flags: W
LayerCount: 2
Fore
SplineSet
225 0 m 1,0,-1
 225 1493 l 1,1,-1
 520 1493 l 1,2,-1
 520 260 l 1,3,-1
 1151 260 l 1,4,-1
 1151 0 l 1,5,-1
 225 0 l 1,0,-1
EndSplineSet
EndChar

StartChar: M
Encoding: 77 77 48
Width: 1233
Flags: W
LayerCount: 2
Fore
SplineSet
86 1493 m 1,0,-1
 438 1493 l 1,1,-1
 616 838 l 1,2,-1
 793 1493 l 1,3,-1
 1147 1493 l 1,4,-1
 1147 0 l 1,5,-1
 893 0 l 1,6,-1
 893 1196 l 1,7,-1
 735 543 l 1,8,-1
 500 543 l 1,9,-1
 340 1196 l 1,10,-1
 340 0 l 1,11,-1
 86 0 l 1,12,-1
 86 1493 l 1,0,-1
EndSplineSet
EndChar

StartChar: N
Encoding: 78 78 49
Width: 1233
Flags: W
LayerCount: 2
Fore
SplineSet
119 1493 m 1,0,-1
 436 1493 l 1,1,-1
 852 408 l 1,2,-1
 852 1493 l 1,3,-1
 1112 1493 l 1,4,-1
 1112 0 l 1,5,-1
 797 0 l 1,6,-1
 379 1085 l 1,7,-1
 379 0 l 1,8,-1
 119 0 l 1,9,-1
 119 1493 l 1,0,-1
EndSplineSet
EndChar

StartChar: O
Encoding: 79 79 50
Width: 1233
Flags: W
LayerCount: 2
Fore
SplineSet
616 1255 m 0,0,1
 503 1255 503 1255 451 1134.5 c 128,-1,2
 399 1014 399 1014 399 745 c 0,3,4
 399 477 399 477 451 356.5 c 128,-1,5
 503 236 503 236 616 236 c 0,6,7
 730 236 730 236 782 356.5 c 128,-1,8
 834 477 834 477 834 745 c 0,9,10
 834 1014 834 1014 782 1134.5 c 128,-1,11
 730 1255 730 1255 616 1255 c 0,0,1
92 745 m 0,12,13
 92 1128 92 1128 224.5 1324 c 128,-1,14
 357 1520 357 1520 616 1520 c 0,15,16
 876 1520 876 1520 1008.5 1324 c 128,-1,17
 1141 1128 1141 1128 1141 745 c 0,18,19
 1141 363 1141 363 1008.5 167 c 128,-1,20
 876 -29 876 -29 616 -29 c 0,21,22
 357 -29 357 -29 224.5 167 c 128,-1,23
 92 363 92 363 92 745 c 0,12,13
EndSplineSet
EndChar

StartChar: P
Encoding: 80 80 51
Width: 1233
Flags: W
LayerCount: 2
Fore
SplineSet
457 1245 m 1,0,-1
 457 807 l 1,1,-1
 578 807 l 2,2,3
 723 807 723 807 781.5 856 c 128,-1,4
 840 905 840 905 840 1026 c 256,5,6
 840 1147 840 1147 781.5 1196 c 128,-1,7
 723 1245 723 1245 578 1245 c 2,8,-1
 457 1245 l 1,0,-1
162 1493 m 1,9,-1
 567 1493 l 2,10,11
 876 1493 876 1493 1011.5 1383 c 128,-1,12
 1147 1273 1147 1273 1147 1026 c 256,13,14
 1147 779 1147 779 1011.5 669 c 128,-1,15
 876 559 876 559 567 559 c 2,16,-1
 457 559 l 1,17,-1
 457 0 l 1,18,-1
 162 0 l 1,19,-1
 162 1493 l 1,9,-1
EndSplineSet
EndChar

StartChar: Q
Encoding: 81 81 52
Width: 1233
Flags: W
LayerCount: 2
Fore
SplineSet
656 -23 m 1,0,1
 642 -26 642 -26 632.5 -27.5 c 128,-1,2
 623 -29 623 -29 614 -29 c 0,3,4
 357 -29 357 -29 224.5 167 c 128,-1,5
 92 363 92 363 92 745 c 0,6,7
 92 1128 92 1128 224.5 1324 c 128,-1,8
 357 1520 357 1520 616 1520 c 0,9,10
 876 1520 876 1520 1008.5 1324 c 128,-1,11
 1141 1128 1141 1128 1141 745 c 0,12,13
 1141 482 1141 482 1078 304.5 c 128,-1,14
 1015 127 1015 127 895 51 c 1,15,-1
 1081 -131 l 1,16,-1
 879 -281 l 1,17,-1
 656 -23 l 1,0,1
616 1255 m 0,18,19
 503 1255 503 1255 451 1134.5 c 128,-1,20
 399 1014 399 1014 399 745 c 0,21,22
 399 477 399 477 451 356.5 c 128,-1,23
 503 236 503 236 616 236 c 0,24,25
 730 236 730 236 782 356.5 c 128,-1,26
 834 477 834 477 834 745 c 0,27,28
 834 1014 834 1014 782 1134.5 c 128,-1,29
 730 1255 730 1255 616 1255 c 0,18,19
EndSplineSet
EndChar

StartChar: R
Encoding: 82 82 53
Width: 1233
Flags: W
LayerCount: 2
Fore
SplineSet
807 705 m 1,0,1
 851 696 851 696 883.5 663.5 c 128,-1,2
 916 631 916 631 963 537 c 2,3,-1
 1233 0 l 1,4,-1
 909 0 l 1,5,-1
 729 377 l 2,6,7
 721 393 721 393 708 421 c 0,8,9
 629 590 629 590 522 590 c 2,10,-1
 428 590 l 1,11,-1
 428 0 l 1,12,-1
 133 0 l 1,13,-1
 133 1493 l 1,14,-1
 559 1493 l 2,15,16
 847 1493 847 1493 972.5 1391 c 128,-1,17
 1098 1289 1098 1289 1098 1059 c 0,18,19
 1098 905 1098 905 1023 814 c 128,-1,20
 948 723 948 723 807 705 c 1,0,1
428 1245 m 1,21,-1
 428 838 l 1,22,-1
 567 838 l 2,23,24
 688 838 688 838 740.5 885.5 c 128,-1,25
 793 933 793 933 793 1042 c 256,26,27
 793 1151 793 1151 741 1198 c 128,-1,28
 689 1245 689 1245 567 1245 c 2,29,-1
 428 1245 l 1,21,-1
EndSplineSet
EndChar

StartChar: S
Encoding: 83 83 54
Width: 1233
Flags: W
LayerCount: 2
Fore
SplineSet
510 655 m 2,0,1
 287 740 287 740 208 833.5 c 128,-1,2
 129 927 129 927 129 1085 c 0,3,4
 129 1288 129 1288 259 1404 c 128,-1,5
 389 1520 389 1520 616 1520 c 0,6,7
 719 1520 719 1520 822 1496.5 c 128,-1,8
 925 1473 925 1473 1026 1427 c 1,9,-1
 1026 1139 l 1,10,11
 931 1206 931 1206 833 1241 c 128,-1,12
 735 1276 735 1276 639 1276 c 0,13,14
 532 1276 532 1276 475 1233 c 128,-1,15
 418 1190 418 1190 418 1110 c 0,16,17
 418 1048 418 1048 459.5 1007.5 c 128,-1,18
 501 967 501 967 633 918 c 2,19,-1
 760 870 l 2,20,21
 940 804 940 804 1025 695 c 128,-1,22
 1110 586 1110 586 1110 420 c 0,23,24
 1110 194 1110 194 976.5 82.5 c 128,-1,25
 843 -29 843 -29 573 -29 c 0,26,27
 462 -29 462 -29 350.5 -2.5 c 128,-1,28
 239 24 239 24 135 76 c 1,29,-1
 135 381 l 1,30,31
 253 297 253 297 363.5 256 c 128,-1,32
 474 215 474 215 582 215 c 0,33,34
 691 215 691 215 751 264.5 c 128,-1,35
 811 314 811 314 811 403 c 0,36,37
 811 470 811 470 771 520.5 c 128,-1,38
 731 571 731 571 655 600 c 2,39,-1
 510 655 l 2,0,1
EndSplineSet
EndChar

StartChar: T
Encoding: 84 84 55
Width: 1233
Flags: W
LayerCount: 2
Fore
SplineSet
764 0 m 1,0,-1
 469 0 l 1,1,-1
 469 1235 l 1,2,-1
 90 1235 l 1,3,-1
 90 1493 l 1,4,-1
 1143 1493 l 1,5,-1
 1143 1235 l 1,6,-1
 764 1235 l 1,7,-1
 764 0 l 1,0,-1
EndSplineSet
EndChar

StartChar: U
Encoding: 85 85 56
Width: 1233
Flags: W
LayerCount: 2
Fore
SplineSet
106 551 m 2,0,-1
 106 1493 l 1,1,-1
 401 1493 l 1,2,-1
 401 477 l 2,3,4
 401 365 401 365 458 301.5 c 128,-1,5
 515 238 515 238 616 238 c 256,6,7
 717 238 717 238 774 301.5 c 128,-1,8
 831 365 831 365 831 477 c 2,9,-1
 831 1493 l 1,10,-1
 1126 1493 l 1,11,-1
 1126 551 l 2,12,13
 1126 247 1126 247 1005 109 c 128,-1,14
 884 -29 884 -29 616 -29 c 0,15,16
 349 -29 349 -29 227.5 109 c 128,-1,17
 106 247 106 247 106 551 c 2,0,-1
EndSplineSet
EndChar

StartChar: V
Encoding: 86 86 57
Width: 1233
Flags: W
LayerCount: 2
Fore
SplineSet
616 246 m 1,0,-1
 879 1493 l 1,1,-1
 1176 1493 l 1,2,-1
 821 0 l 1,3,-1
 412 0 l 1,4,-1
 57 1493 l 1,5,-1
 354 1493 l 1,6,-1
 616 246 l 1,0,-1
EndSplineSet
EndChar

StartChar: W
Encoding: 87 87 58
Width: 1233
Flags: W
LayerCount: 2
Fore
SplineSet
0 1493 m 1,0,-1
 258 1493 l 1,1,-1
 365 397 l 1,2,-1
 494 1106 l 1,3,-1
 739 1106 l 1,4,-1
 889 397 l 1,5,-1
 973 1493 l 1,6,-1
 1233 1493 l 1,7,-1
 1061 0 l 1,8,-1
 786 0 l 1,9,-1
 616 784 l 1,10,-1
 457 0 l 1,11,-1
 184 0 l 1,12,-1
 0 1493 l 1,0,-1
EndSplineSet
EndChar

StartChar: X
Encoding: 88 88 59
Width: 1233
Flags: W
LayerCount: 2
Fore
SplineSet
1206 0 m 1,0,-1
 901 0 l 1,1,-1
 616 494 l 1,2,-1
 332 0 l 1,3,-1
 27 0 l 1,4,-1
 465 758 l 1,5,-1
 39 1493 l 1,6,-1
 344 1493 l 1,7,-1
 616 1018 l 1,8,-1
 889 1493 l 1,9,-1
 1194 1493 l 1,10,-1
 770 758 l 1,11,-1
 1206 0 l 1,0,-1
EndSplineSet
EndChar

StartChar: Y
Encoding: 89 89 60
Width: 1233
Flags: W
LayerCount: 2
Fore
SplineSet
8 1493 m 1,0,-1
 326 1493 l 1,1,-1
 616 893 l 1,2,-1
 907 1493 l 1,3,-1
 1225 1493 l 1,4,-1
 764 588 l 1,5,-1
 764 0 l 1,6,-1
 469 0 l 1,7,-1
 469 588 l 1,8,-1
 8 1493 l 1,0,-1
EndSplineSet
EndChar

StartChar: Z
Encoding: 90 90 61
Width: 1233
Flags: W
LayerCount: 2
Fore
SplineSet
137 1493 m 1,0,-1
 1147 1493 l 1,1,-1
 1147 1249 l 1,2,-1
 455 260 l 1,3,-1
 1161 260 l 1,4,-1
 1161 0 l 1,5,-1
 115 0 l 1,6,-1
 115 244 l 1,7,-1
 786 1233 l 1,8,-1
 137 1233 l 1,9,-1
 137 1493 l 1,0,-1
EndSplineSet
EndChar

StartChar: bracketleft
Encoding: 91 91 62
Width: 1233
Flags: HW
LayerCount: 2
Fore
SplineSet
422 1556 m 1,0,-1
 930 1556 l 1,1,-1
 930 1366 l 1,2,-1
 688 1366 l 1,3,-1
 688 -80 l 1,4,-1
 930 -80 l 1,5,-1
 930 -270 l 1,6,-1
 422 -270 l 1,7,-1
 422 1556 l 1,0,-1
EndSplineSet
EndChar

StartChar: backslash
Encoding: 92 92 63
Width: 1233
Flags: HW
LayerCount: 2
Fore
SplineSet
334 1493 m 1,0,-1
 1120 -190 l 1,1,-1
 897 -190 l 1,2,-1
 111 1493 l 1,3,-1
 334 1493 l 1,0,-1
EndSplineSet
EndChar

StartChar: bracketright
Encoding: 93 93 64
Width: 1233
Flags: HW
LayerCount: 2
Fore
SplineSet
811 1556 m 1,0,-1
 811 -270 l 1,1,-1
 303 -270 l 1,2,-1
 303 -80 l 1,3,-1
 545 -80 l 1,4,-1
 545 1366 l 1,5,-1
 303 1366 l 1,6,-1
 303 1556 l 1,7,-1
 811 1556 l 1,0,-1
EndSplineSet
EndChar

StartChar: asciicircum
Encoding: 94 94 65
Width: 1233
Flags: HW
LayerCount: 2
Fore
SplineSet
739 1493 m 1,0,-1
 1176 936 l 1,1,-1
 934 936 l 1,2,-1
 616 1237 l 1,3,-1
 299 936 l 1,4,-1
 57 936 l 1,5,-1
 494 1493 l 1,6,-1
 739 1493 l 1,0,-1
EndSplineSet
EndChar

StartChar: underscore
Encoding: 95 95 66
Width: 1233
Flags: HW
LayerCount: 2
Fore
SplineSet
1233 -293 m 1,0,-1
 1233 -483 l 1,1,-1
 0 -483 l 1,2,-1
 0 -293 l 1,3,-1
 1233 -293 l 1,0,-1
EndSplineSet
EndChar

StartChar: grave
Encoding: 96 96 67
Width: 1233
Flags: W
LayerCount: 2
Fore
SplineSet
481 1638 m 1,0,-1
 764 1262 l 1,1,-1
 567 1262 l 1,2,-1
 199 1638 l 1,3,-1
 481 1638 l 1,0,-1
EndSplineSet
EndChar

StartChar: a
Encoding: 97 97 68
Width: 1233
Flags: W
LayerCount: 2
Fore
SplineSet
700 526 m 2,0,1
 536 526 536 526 471 484 c 128,-1,2
 406 442 406 442 406 340 c 0,3,4
 406 264 406 264 451 219 c 128,-1,5
 496 174 496 174 573 174 c 0,6,7
 689 174 689 174 753 261.5 c 128,-1,8
 817 349 817 349 817 506 c 2,9,-1
 817 526 l 1,10,-1
 700 526 l 2,0,1
1108 639 m 2,11,-1
 1108 0 l 1,12,-1
 817 0 l 1,13,-1
 817 125 l 1,14,15
 764 51 764 51 681 11 c 128,-1,16
 598 -29 598 -29 498 -29 c 0,17,18
 307 -29 307 -29 200.5 72 c 128,-1,19
 94 173 94 173 94 354 c 0,20,21
 94 550 94 550 221 643.5 c 128,-1,22
 348 737 348 737 614 737 c 2,23,-1
 817 737 l 1,24,-1
 817 786 l 2,25,26
 817 857 817 857 765.5 893.5 c 128,-1,27
 714 930 714 930 614 930 c 0,28,29
 509 930 509 930 410.5 903.5 c 128,-1,30
 312 877 312 877 205 819 c 1,31,-1
 205 1069 l 1,32,33
 302 1109 302 1109 402 1128 c 128,-1,34
 502 1147 502 1147 614 1147 c 0,35,36
 887 1147 887 1147 997.5 1036 c 128,-1,37
 1108 925 1108 925 1108 639 c 2,11,-1
EndSplineSet
EndChar

StartChar: b
Encoding: 98 98 69
Width: 1233
Flags: W
LayerCount: 2
Fore
SplineSet
850 557 m 256,0,1
 850 719 850 719 796 811 c 128,-1,2
 742 903 742 903 647 903 c 256,3,4
 552 903 552 903 497 811 c 128,-1,5
 442 719 442 719 442 557 c 256,6,7
 442 395 442 395 497 303 c 128,-1,8
 552 211 552 211 647 211 c 256,9,10
 742 211 742 211 796 303 c 128,-1,11
 850 395 850 395 850 557 c 256,0,1
442 961 m 1,12,13
 496 1054 496 1054 567.5 1100.5 c 128,-1,14
 639 1147 639 1147 729 1147 c 0,15,16
 928 1147 928 1147 1035.5 995 c 128,-1,17
 1143 843 1143 843 1143 559 c 0,18,19
 1143 279 1143 279 1037 125 c 128,-1,20
 931 -29 931 -29 739 -29 c 0,21,22
 638 -29 638 -29 563 20 c 128,-1,23
 488 69 488 69 442 166 c 1,24,-1
 442 0 l 1,25,-1
 150 0 l 1,26,-1
 150 1556 l 1,27,-1
 442 1556 l 1,28,-1
 442 961 l 1,12,13
EndSplineSet
EndChar

StartChar: c
Encoding: 99 99 70
Width: 1233
Flags: W
LayerCount: 2
Fore
SplineSet
1061 57 m 1,0,1
 987 14 987 14 902 -7.5 c 128,-1,2
 817 -29 817 -29 719 -29 c 0,3,4
 460 -29 460 -29 314 127 c 128,-1,5
 168 283 168 283 168 559 c 0,6,7
 168 836 168 836 315 992.5 c 128,-1,8
 462 1149 462 1149 721 1149 c 0,9,10
 811 1149 811 1149 894.5 1128 c 128,-1,11
 978 1107 978 1107 1061 1063 c 1,12,-1
 1061 795 l 1,13,14
 997 850 997 850 920.5 879.5 c 128,-1,15
 844 909 844 909 762 909 c 0,16,17
 619 909 619 909 542 818 c 128,-1,18
 465 727 465 727 465 559 c 256,19,20
 465 391 465 391 542 301 c 128,-1,21
 619 211 619 211 762 211 c 0,22,23
 847 211 847 211 921 239.5 c 128,-1,24
 995 268 995 268 1061 326 c 1,25,-1
 1061 57 l 1,0,1
EndSplineSet
EndChar

StartChar: d
Encoding: 100 100 71
Width: 1233
Flags: W
LayerCount: 2
Fore
SplineSet
791 961 m 1,0,-1
 791 1556 l 1,1,-1
 1083 1556 l 1,2,-1
 1083 0 l 1,3,-1
 791 0 l 1,4,-1
 791 166 l 1,5,6
 744 69 744 69 669.5 20 c 128,-1,7
 595 -29 595 -29 494 -29 c 0,8,9
 302 -29 302 -29 196 125 c 128,-1,10
 90 279 90 279 90 559 c 0,11,12
 90 843 90 843 197.5 995 c 128,-1,13
 305 1147 305 1147 504 1147 c 0,14,15
 594 1147 594 1147 665.5 1100.5 c 128,-1,16
 737 1054 737 1054 791 961 c 1,0,-1
383 557 m 256,17,18
 383 395 383 395 437 303 c 128,-1,19
 491 211 491 211 586 211 c 256,20,21
 681 211 681 211 736 303 c 128,-1,22
 791 395 791 395 791 557 c 256,23,24
 791 719 791 719 736 811 c 128,-1,25
 681 903 681 903 586 903 c 256,26,27
 491 903 491 903 437 811 c 128,-1,28
 383 719 383 719 383 557 c 256,17,18
EndSplineSet
EndChar

StartChar: e
Encoding: 101 101 72
Width: 1233
Flags: W
LayerCount: 2
Fore
SplineSet
1102 55 m 1,0,1
 1000 13 1000 13 894 -8 c 128,-1,2
 788 -29 788 -29 670 -29 c 0,3,4
 389 -29 389 -29 240.5 121.5 c 128,-1,5
 92 272 92 272 92 555 c 0,6,7
 92 829 92 829 235 988 c 128,-1,8
 378 1147 378 1147 625 1147 c 0,9,10
 874 1147 874 1147 1011.5 999.5 c 128,-1,11
 1149 852 1149 852 1149 584 c 2,12,-1
 1149 465 l 1,13,-1
 390 465 l 1,14,15
 391 333 391 333 468 268 c 128,-1,16
 545 203 545 203 698 203 c 0,17,18
 799 203 799 203 897 232 c 128,-1,19
 995 261 995 261 1102 324 c 1,20,-1
 1102 55 l 1,0,1
854 685 m 1,21,22
 852 801 852 801 794.5 860.5 c 128,-1,23
 737 920 737 920 625 920 c 0,24,25
 524 920 524 920 464 858.5 c 128,-1,26
 404 797 404 797 393 684 c 1,27,-1
 854 685 l 1,21,22
EndSplineSet
EndChar

StartChar: f
Encoding: 102 102 73
Width: 1233
Flags: W
LayerCount: 2
Fore
SplineSet
739 1218 m 2,0,-1
 739 1120 l 1,1,-1
 1083 1120 l 1,2,-1
 1083 895 l 1,3,-1
 739 895 l 1,4,-1
 739 0 l 1,5,-1
 446 0 l 1,6,-1
 446 895 l 1,7,-1
 174 895 l 1,8,-1
 174 1120 l 1,9,-1
 446 1120 l 1,10,-1
 446 1198 l 2,11,12
 446 1400 446 1400 530 1478 c 128,-1,13
 614 1556 614 1556 842 1556 c 2,14,-1
 1083 1556 l 1,15,-1
 1083 1331 l 1,16,-1
 854 1331 l 2,17,18
 788 1331 788 1331 764.5 1307 c 128,-1,19
 741 1283 741 1283 739 1218 c 2,0,-1
EndSplineSet
EndChar

StartChar: g
Encoding: 103 103 74
Width: 1233
Flags: W
LayerCount: 2
Fore
SplineSet
803 578 m 0,0,1
 803 728 803 728 746 818.5 c 128,-1,2
 689 909 689 909 596 909 c 0,3,4
 504 909 504 909 447.5 819 c 128,-1,5
 391 729 391 729 391 578 c 0,6,7
 391 426 391 426 447.5 336 c 128,-1,8
 504 246 504 246 596 246 c 0,9,10
 689 246 689 246 746 336.5 c 128,-1,11
 803 427 803 427 803 578 c 0,0,1
1096 84 m 2,12,13
 1096 -185 1096 -185 974.5 -304.5 c 128,-1,14
 853 -424 853 -424 580 -424 c 0,15,16
 488 -424 488 -424 398 -410.5 c 128,-1,17
 308 -397 308 -397 215 -369 c 1,18,-1
 215 -100 l 1,19,20
 298 -146 298 -146 384 -168 c 128,-1,21
 470 -190 470 -190 561 -190 c 0,22,23
 685 -190 685 -190 744 -131.5 c 128,-1,24
 803 -73 803 -73 803 51 c 2,25,-1
 803 172 l 1,26,27
 760 92 760 92 689 53 c 128,-1,28
 618 14 618 14 516 14 c 0,29,30
 324 14 324 14 211 164 c 128,-1,31
 98 314 98 314 98 571 c 0,32,33
 98 837 98 837 211 993 c 128,-1,34
 324 1149 324 1149 514 1149 c 0,35,36
 610 1149 610 1149 685 1104 c 128,-1,37
 760 1059 760 1059 803 977 c 1,38,-1
 803 1120 l 1,39,-1
 1096 1120 l 1,40,-1
 1096 84 l 2,12,13
EndSplineSet
EndChar

StartChar: h
Encoding: 104 104 75
Width: 1233
Flags: W
LayerCount: 2
Fore
SplineSet
1071 727 m 2,0,-1
 1071 0 l 1,1,-1
 780 0 l 1,2,-1
 780 682 l 2,3,4
 780 803 780 803 745.5 855 c 128,-1,5
 711 907 711 907 633 907 c 0,6,7
 553 907 553 907 508 836.5 c 128,-1,8
 463 766 463 766 463 641 c 2,9,-1
 463 0 l 1,10,-1
 172 0 l 1,11,-1
 172 1556 l 1,12,-1
 463 1556 l 1,13,-1
 463 952 l 1,14,15
 494 1045 494 1045 569 1096 c 128,-1,16
 644 1147 644 1147 750 1147 c 0,17,18
 909 1147 909 1147 990 1041.5 c 128,-1,19
 1071 936 1071 936 1071 727 c 2,0,-1
EndSplineSet
EndChar

StartChar: i
Encoding: 105 105 76
Width: 1233
Flags: W
LayerCount: 2
Fore
SplineSet
221 1120 m 1,0,-1
 801 1120 l 1,1,-1
 801 225 l 1,2,-1
 1165 225 l 1,3,-1
 1165 0 l 1,4,-1
 143 0 l 1,5,-1
 143 225 l 1,6,-1
 508 225 l 1,7,-1
 508 895 l 1,8,-1
 221 895 l 1,9,-1
 221 1120 l 1,0,-1
508 1665 m 1,10,-1
 801 1665 l 1,11,-1
 801 1323 l 1,12,-1
 508 1323 l 1,13,-1
 508 1665 l 1,10,-1
EndSplineSet
EndChar

StartChar: j
Encoding: 106 106 77
Width: 1233
Flags: W
LayerCount: 2
Fore
SplineSet
850 43 m 2,0,1
 850 -209 850 -209 759.5 -316.5 c 128,-1,2
 669 -424 669 -424 459 -424 c 2,3,-1
 143 -424 l 1,4,-1
 143 -199 l 1,5,-1
 377 -199 l 2,6,7
 475 -199 475 -199 516 -144 c 128,-1,8
 557 -89 557 -89 557 43 c 2,9,-1
 557 895 l 1,10,-1
 260 895 l 1,11,-1
 260 1120 l 1,12,-1
 850 1120 l 1,13,-1
 850 43 l 2,0,1
850 1323 m 1,14,-1
 557 1323 l 1,15,-1
 557 1665 l 1,16,-1
 850 1665 l 1,17,-1
 850 1323 l 1,14,-1
EndSplineSet
EndChar

StartChar: k
Encoding: 107 107 78
Width: 1233
Flags: W
LayerCount: 2
Fore
SplineSet
174 1556 m 1,0,-1
 467 1556 l 1,1,-1
 467 739 l 1,2,-1
 819 1120 l 1,3,-1
 1174 1120 l 1,4,-1
 750 702 l 1,5,-1
 1198 0 l 1,6,-1
 874 0 l 1,7,-1
 567 524 l 1,8,-1
 467 428 l 1,9,-1
 467 0 l 1,10,-1
 174 0 l 1,11,-1
 174 1556 l 1,0,-1
EndSplineSet
EndChar

StartChar: l
Encoding: 108 108 79
Width: 1233
Flags: W
LayerCount: 2
Fore
SplineSet
387 467 m 2,0,-1
 387 1331 l 1,1,-1
 90 1331 l 1,2,-1
 90 1556 l 1,3,-1
 680 1556 l 1,4,-1
 680 467 l 2,5,6
 680 335 680 335 721 280 c 128,-1,7
 762 225 762 225 860 225 c 2,8,-1
 1094 225 l 1,9,-1
 1094 0 l 1,10,-1
 778 0 l 2,11,12
 569 0 569 0 478 108 c 128,-1,13
 387 216 387 216 387 467 c 2,0,-1
EndSplineSet
EndChar

StartChar: m
Encoding: 109 109 80
Width: 1233
Flags: W
LayerCount: 2
Fore
SplineSet
690 1008 m 1,0,1
 723 1079 723 1079 774 1113 c 128,-1,2
 825 1147 825 1147 899 1147 c 0,3,4
 1044 1147 1044 1147 1099.5 1047 c 128,-1,5
 1155 947 1155 947 1155 631 c 2,6,-1
 1155 0 l 1,7,-1
 915 0 l 1,8,-1
 915 719 l 2,9,10
 915 844 915 844 896 886 c 128,-1,11
 877 928 877 928 827 928 c 256,12,13
 777 928 777 928 757 885 c 128,-1,14
 737 842 737 842 737 719 c 2,15,-1
 737 0 l 1,16,-1
 500 0 l 1,17,-1
 500 719 l 2,18,19
 500 842 500 842 480 885 c 128,-1,20
 460 928 460 928 410 928 c 256,21,22
 360 928 360 928 341 886 c 128,-1,23
 322 844 322 844 322 719 c 2,24,-1
 322 0 l 1,25,-1
 82 0 l 1,26,-1
 82 1120 l 1,27,-1
 295 1120 l 1,28,-1
 295 1004 l 1,29,30
 320 1070 320 1070 375 1108.5 c 128,-1,31
 430 1147 430 1147 498 1147 c 256,32,33
 566 1147 566 1147 622 1106.5 c 128,-1,34
 678 1066 678 1066 690 1008 c 1,0,1
EndSplineSet
EndChar

StartChar: n
Encoding: 110 110 81
Width: 1233
Flags: W
LayerCount: 2
Fore
SplineSet
1071 727 m 2,0,-1
 1071 0 l 1,1,-1
 780 0 l 1,2,-1
 780 682 l 2,3,4
 780 804 780 804 745.5 856.5 c 128,-1,5
 711 909 711 909 633 909 c 0,6,7
 554 909 554 909 508.5 838 c 128,-1,8
 463 767 463 767 463 641 c 2,9,-1
 463 0 l 1,10,-1
 172 0 l 1,11,-1
 172 1120 l 1,12,-1
 463 1120 l 1,13,-1
 463 952 l 1,14,15
 494 1045 494 1045 569 1096 c 128,-1,16
 644 1147 644 1147 750 1147 c 0,17,18
 909 1147 909 1147 990 1041.5 c 128,-1,19
 1071 936 1071 936 1071 727 c 2,0,-1
EndSplineSet
EndChar

StartChar: o
Encoding: 111 111 82
Width: 1233
Flags: W
LayerCount: 2
Fore
SplineSet
616 909 m 0,0,1
 511 909 511 909 451 816.5 c 128,-1,2
 391 724 391 724 391 559 c 256,3,4
 391 394 391 394 451 301.5 c 128,-1,5
 511 209 511 209 616 209 c 0,6,7
 722 209 722 209 782 301.5 c 128,-1,8
 842 394 842 394 842 559 c 256,9,10
 842 724 842 724 782 816.5 c 128,-1,11
 722 909 722 909 616 909 c 0,0,1
98 559 m 256,12,13
 98 830 98 830 238.5 988.5 c 128,-1,14
 379 1147 379 1147 616 1147 c 0,15,16
 854 1147 854 1147 994.5 988.5 c 128,-1,17
 1135 830 1135 830 1135 559 c 256,18,19
 1135 288 1135 288 994.5 129.5 c 128,-1,20
 854 -29 854 -29 616 -29 c 0,21,22
 379 -29 379 -29 238.5 129.5 c 128,-1,23
 98 288 98 288 98 559 c 256,12,13
EndSplineSet
EndChar

StartChar: p
Encoding: 112 112 83
Width: 1233
Flags: W
LayerCount: 2
Fore
SplineSet
442 158 m 1,0,-1
 442 -426 l 1,1,-1
 150 -426 l 1,2,-1
 150 1120 l 1,3,-1
 442 1120 l 1,4,-1
 442 952 l 1,5,6
 488 1049 488 1049 563 1098 c 128,-1,7
 638 1147 638 1147 739 1147 c 0,8,9
 931 1147 931 1147 1037 993 c 128,-1,10
 1143 839 1143 839 1143 559 c 0,11,12
 1143 275 1143 275 1035.5 123 c 128,-1,13
 928 -29 928 -29 729 -29 c 0,14,15
 639 -29 639 -29 567.5 17.5 c 128,-1,16
 496 64 496 64 442 158 c 1,0,-1
850 561 m 256,17,18
 850 723 850 723 796 815 c 128,-1,19
 742 907 742 907 647 907 c 256,20,21
 552 907 552 907 497 815 c 128,-1,22
 442 723 442 723 442 561 c 256,23,24
 442 399 442 399 497 307 c 128,-1,25
 552 215 552 215 647 215 c 256,26,27
 742 215 742 215 796 307 c 128,-1,28
 850 399 850 399 850 561 c 256,17,18
EndSplineSet
EndChar

StartChar: q
Encoding: 113 113 84
Width: 1233
Flags: W
LayerCount: 2
Fore
SplineSet
383 561 m 256,0,1
 383 399 383 399 437 307 c 128,-1,2
 491 215 491 215 586 215 c 256,3,4
 681 215 681 215 736 307 c 128,-1,5
 791 399 791 399 791 561 c 256,6,7
 791 723 791 723 736 815 c 128,-1,8
 681 907 681 907 586 907 c 256,9,10
 491 907 491 907 437 815 c 128,-1,11
 383 723 383 723 383 561 c 256,0,1
791 158 m 1,12,13
 737 64 737 64 665.5 17.5 c 128,-1,14
 594 -29 594 -29 504 -29 c 0,15,16
 305 -29 305 -29 197.5 123 c 128,-1,17
 90 275 90 275 90 559 c 0,18,19
 90 839 90 839 196 993 c 128,-1,20
 302 1147 302 1147 494 1147 c 0,21,22
 595 1147 595 1147 669.5 1098 c 128,-1,23
 744 1049 744 1049 791 952 c 1,24,-1
 791 1120 l 1,25,-1
 1083 1120 l 1,26,-1
 1083 -426 l 1,27,-1
 791 -426 l 1,28,-1
 791 158 l 1,12,13
EndSplineSet
EndChar

StartChar: r
Encoding: 114 114 85
Width: 1233
Flags: W
LayerCount: 2
Fore
SplineSet
1151 811 m 1,0,1
 1103 855 1103 855 1038.5 877 c 128,-1,2
 974 899 974 899 897 899 c 0,3,4
 804 899 804 899 734.5 866.5 c 128,-1,5
 665 834 665 834 627 772 c 0,6,7
 603 734 603 734 593.5 680 c 128,-1,8
 584 626 584 626 584 516 c 2,9,-1
 584 0 l 1,10,-1
 291 0 l 1,11,-1
 291 1120 l 1,12,-1
 584 1120 l 1,13,-1
 584 946 l 1,14,15
 627 1042 627 1042 716 1094.5 c 128,-1,16
 805 1147 805 1147 924 1147 c 0,17,18
 984 1147 984 1147 1041.5 1132.5 c 128,-1,19
 1099 1118 1099 1118 1151 1090 c 1,20,-1
 1151 811 l 1,0,1
EndSplineSet
EndChar

StartChar: s
Encoding: 115 115 86
Width: 1233
Flags: W
LayerCount: 2
Fore
SplineSet
991 1085 m 1,0,-1
 991 829 l 1,1,2
 910 881 910 881 822.5 907.5 c 128,-1,3
 735 934 735 934 647 934 c 0,4,5
 549 934 549 934 499 905.5 c 128,-1,6
 449 877 449 877 449 821 c 0,7,8
 449 741 449 741 663 691 c 2,9,-1
 674 688 l 1,10,-1
 758 668 l 2,11,12
 918 630 918 630 992.5 545.5 c 128,-1,13
 1067 461 1067 461 1067 317 c 0,14,15
 1067 144 1067 144 953.5 57.5 c 128,-1,16
 840 -29 840 -29 612 -29 c 0,17,18
 511 -29 511 -29 405 -11.5 c 128,-1,19
 299 6 299 6 190 41 c 1,20,-1
 190 297 l 1,21,22
 287 242 287 242 387.5 213 c 128,-1,23
 488 184 488 184 582 184 c 0,24,25
 685 184 685 184 738 214 c 128,-1,26
 791 244 791 244 791 301 c 0,27,28
 791 357 791 357 753.5 387 c 128,-1,29
 716 417 716 417 575 451 c 2,30,-1
 494 469 l 2,31,32
 326 507 326 507 249 588 c 128,-1,33
 172 669 172 669 172 805 c 0,34,35
 172 967 172 967 289 1057 c 128,-1,36
 406 1147 406 1147 618 1147 c 0,37,38
 713 1147 713 1147 807.5 1131.5 c 128,-1,39
 902 1116 902 1116 991 1085 c 1,0,-1
EndSplineSet
EndChar

StartChar: t
Encoding: 116 116 87
Width: 1233
Flags: W
LayerCount: 2
Fore
SplineSet
690 1438 m 1,0,-1
 690 1120 l 1,1,-1
 1073 1120 l 1,2,-1
 1073 895 l 1,3,-1
 690 895 l 1,4,-1
 690 365 l 2,5,6
 690 290 690 290 726.5 257.5 c 128,-1,7
 763 225 763 225 848 225 c 2,8,-1
 1073 225 l 1,9,-1
 1073 0 l 1,10,-1
 827 0 l 2,11,12
 575 0 575 0 486 80.5 c 128,-1,13
 397 161 397 161 397 379 c 2,14,-1
 397 895 l 1,15,-1
 111 895 l 1,16,-1
 111 1120 l 1,17,-1
 397 1120 l 1,18,-1
 397 1438 l 1,19,-1
 690 1438 l 1,0,-1
EndSplineSet
EndChar

StartChar: u
Encoding: 117 117 88
Width: 1233
Flags: W
LayerCount: 2
Fore
SplineSet
160 391 m 2,0,-1
 160 1120 l 1,1,-1
 453 1120 l 1,2,-1
 453 436 l 2,3,4
 453 315 453 315 487 263 c 128,-1,5
 521 211 521 211 600 211 c 256,6,7
 679 211 679 211 723.5 281 c 128,-1,8
 768 351 768 351 768 477 c 2,9,-1
 768 1120 l 1,10,-1
 1061 1120 l 1,11,-1
 1061 0 l 1,12,-1
 768 0 l 1,13,-1
 768 166 l 1,14,15
 737 73 737 73 662.5 22 c 128,-1,16
 588 -29 588 -29 483 -29 c 0,17,18
 323 -29 323 -29 241.5 77 c 128,-1,19
 160 183 160 183 160 391 c 2,0,-1
EndSplineSet
EndChar

StartChar: v
Encoding: 118 118 89
Width: 1233
Flags: W
LayerCount: 2
Fore
SplineSet
1153 1120 m 1,0,-1
 797 0 l 1,1,-1
 436 0 l 1,2,-1
 80 1120 l 1,3,-1
 377 1120 l 1,4,-1
 616 246 l 1,5,-1
 856 1120 l 1,6,-1
 1153 1120 l 1,0,-1
EndSplineSet
EndChar

StartChar: w
Encoding: 119 119 90
Width: 1233
Flags: W
LayerCount: 2
Fore
SplineSet
0 1120 m 1,0,-1
 244 1120 l 1,1,-1
 377 262 l 1,2,-1
 498 827 l 1,3,-1
 735 827 l 1,4,-1
 854 262 l 1,5,-1
 989 1120 l 1,6,-1
 1233 1120 l 1,7,-1
 1030 0 l 1,8,-1
 752 0 l 1,9,-1
 616 582 l 1,10,-1
 481 0 l 1,11,-1
 203 0 l 1,12,-1
 0 1120 l 1,0,-1
EndSplineSet
EndChar

StartChar: x
Encoding: 120 120 91
Width: 1233
Flags: W
LayerCount: 2
Fore
SplineSet
1145 1120 m 1,0,-1
 768 584 l 1,1,-1
 1178 0 l 1,2,-1
 836 0 l 1,3,-1
 616 377 l 1,4,-1
 397 0 l 1,5,-1
 55 0 l 1,6,-1
 469 584 l 1,7,-1
 88 1120 l 1,8,-1
 430 1120 l 1,9,-1
 616 786 l 1,10,-1
 803 1120 l 1,11,-1
 1145 1120 l 1,0,-1
EndSplineSet
EndChar

StartChar: y
Encoding: 121 121 92
Width: 1233
Flags: W
LayerCount: 2
Fore
SplineSet
711 -121 m 2,0,1
 652 -279 652 -279 569.5 -351.5 c 128,-1,2
 487 -424 487 -424 369 -424 c 2,3,-1
 127 -424 l 1,4,-1
 127 -201 l 1,5,-1
 246 -201 l 2,6,7
 336 -201 336 -201 378 -170.5 c 128,-1,8
 420 -140 420 -140 463 -29 c 2,9,-1
 485 31 l 1,10,-1
 59 1120 l 1,11,-1
 367 1120 l 1,12,-1
 623 393 l 1,13,-1
 868 1120 l 1,14,-1
 1176 1120 l 1,15,-1
 711 -121 l 2,0,1
EndSplineSet
EndChar

StartChar: z
Encoding: 122 122 93
Width: 1233
Flags: W
LayerCount: 2
Fore
SplineSet
186 1120 m 1,0,-1
 1081 1120 l 1,1,-1
 1081 891 l 1,2,-1
 492 219 l 1,3,-1
 1081 219 l 1,4,-1
 1081 0 l 1,5,-1
 162 0 l 1,6,-1
 162 229 l 1,7,-1
 752 901 l 1,8,-1
 186 901 l 1,9,-1
 186 1120 l 1,0,-1
EndSplineSet
EndChar

StartChar: braceleft
Encoding: 123 123 94
Width: 1233
Flags: HW
LayerCount: 2
Fore
SplineSet
1053 -143 m 1,0,-1
 1053 -334 l 1,1,-1
 903 -334 l 2,2,3
 654 -334 654 -334 569.5 -260 c 128,-1,4
 485 -186 485 -186 485 35 c 2,5,-1
 485 250 l 2,6,7
 485 401 485 401 431.5 458.5 c 128,-1,8
 378 516 378 516 238 516 c 2,9,-1
 176 516 l 1,10,-1
 176 707 l 1,11,-1
 238 707 l 2,12,13
 378 707 378 707 431.5 764 c 128,-1,14
 485 821 485 821 485 973 c 2,15,-1
 485 1188 l 2,16,17
 485 1409 485 1409 569.5 1482.5 c 128,-1,18
 654 1556 654 1556 903 1556 c 2,19,-1
 1053 1556 l 1,20,-1
 1053 1366 l 1,21,-1
 930 1366 l 2,22,23
 826 1366 826 1366 791 1324 c 128,-1,24
 756 1282 756 1282 756 1139 c 2,25,-1
 756 930 l 2,26,27
 756 765 756 765 707 698 c 128,-1,28
 658 631 658 631 532 612 c 1,29,30
 658 591 658 591 707 523 c 128,-1,31
 756 455 756 455 756 291 c 2,32,-1
 756 86 l 2,33,34
 756 -58 756 -58 791 -100.5 c 128,-1,35
 826 -143 826 -143 930 -143 c 2,36,-1
 1053 -143 l 1,0,-1
EndSplineSet
EndChar

StartChar: bar
Encoding: 124 124 95
Width: 1233
Flags: HW
LayerCount: 2
Fore
SplineSet
729 1565 m 1,0,-1
 729 -483 l 1,1,-1
 502 -483 l 1,2,-1
 502 1565 l 1,3,-1
 729 1565 l 1,0,-1
EndSplineSet
EndChar

StartChar: braceright
Encoding: 125 125 96
Width: 1233
Flags: HW
LayerCount: 2
Fore
SplineSet
180 -143 m 1,0,-1
 301 -143 l 2,1,2
 405 -143 405 -143 441 -100 c 128,-1,3
 477 -57 477 -57 477 86 c 2,4,-1
 477 291 l 2,5,6
 477 455 477 455 526 523 c 128,-1,7
 575 591 575 591 700 612 c 1,8,9
 574 631 574 631 525.5 698 c 128,-1,10
 477 765 477 765 477 930 c 2,11,-1
 477 1139 l 2,12,13
 477 1280 477 1280 441.5 1323 c 128,-1,14
 406 1366 406 1366 301 1366 c 2,15,-1
 180 1366 l 1,16,-1
 180 1556 l 1,17,-1
 330 1556 l 2,18,19
 578 1556 578 1556 661.5 1482.5 c 128,-1,20
 745 1409 745 1409 745 1188 c 2,21,-1
 745 973 l 2,22,23
 745 822 745 822 799.5 764.5 c 128,-1,24
 854 707 854 707 995 707 c 2,25,-1
 1057 707 l 1,26,-1
 1057 516 l 1,27,-1
 995 516 l 2,28,29
 854 516 854 516 799.5 458 c 128,-1,30
 745 400 745 400 745 250 c 2,31,-1
 745 35 l 2,32,33
 745 -186 745 -186 661.5 -260 c 128,-1,34
 578 -334 578 -334 330 -334 c 2,35,-1
 180 -334 l 1,36,-1
 180 -143 l 1,0,-1
EndSplineSet
EndChar

StartChar: asciitilde
Encoding: 126 126 97
Width: 1233
Flags: HW
LayerCount: 2
Fore
SplineSet
1145 811 m 1,0,-1
 1145 578 l 1,1,2
 1070 518 1070 518 998.5 490.5 c 128,-1,3
 927 463 927 463 848 463 c 0,4,5
 758 463 758 463 645 514 c 0,6,7
 623 524 623 524 612 528 c 0,8,9
 535 562 535 562 483.5 574 c 128,-1,10
 432 586 432 586 381 586 c 0,11,12
 303 586 303 586 232.5 557 c 128,-1,13
 162 528 162 528 88 465 c 1,14,-1
 88 694 l 1,15,16
 166 755 166 755 239 782 c 128,-1,17
 312 809 312 809 395 809 c 0,18,19
 448 809 448 809 498 798 c 128,-1,20
 548 787 548 787 622 756 c 0,21,22
 633 751 633 751 655 741 c 0,23,24
 771 686 771 686 864 686 c 0,25,26
 934 686 934 686 1003 716.5 c 128,-1,27
 1072 747 1072 747 1145 811 c 1,0,-1
EndSplineSet
EndChar

StartChar: Aring
Encoding: 197 197 99
Width: 1233
Flags: W
LayerCount: 2
Fore
SplineSet
815 1421 m 1,0,-1
 1200 0 l 1,1,-1
 905 0 l 1,2,-1
 813 369 l 1,3,-1
 418 369 l 1,4,-1
 328 0 l 1,5,-1
 33 0 l 1,6,-1
 418 1421 l 1,7,8
 374 1458 374 1458 353 1506.5 c 128,-1,9
 332 1555 332 1555 332 1616 c 0,10,11
 332 1733 332 1733 415.5 1817 c 128,-1,12
 499 1901 499 1901 616 1901 c 0,13,14
 734 1901 734 1901 817.5 1817 c 128,-1,15
 901 1733 901 1733 901 1616 c 0,16,17
 901 1554 901 1554 880 1506.5 c 128,-1,18
 859 1459 859 1459 815 1421 c 1,0,-1
485 1616 m 256,19,20
 485 1562 485 1562 524 1523.5 c 128,-1,21
 563 1485 563 1485 616 1485 c 0,22,23
 671 1485 671 1485 709.5 1523.5 c 128,-1,24
 748 1562 748 1562 748 1616 c 256,25,26
 748 1670 748 1670 709 1708.5 c 128,-1,27
 670 1747 670 1747 616 1747 c 0,28,29
 563 1747 563 1747 524 1708.5 c 128,-1,30
 485 1670 485 1670 485 1616 c 256,19,20
616 1223 m 1,31,-1
 477 612 l 1,32,-1
 756 612 l 1,33,-1
 616 1223 l 1,31,-1
EndSplineSet
EndChar

StartChar: oacute
Encoding: 243 243 121
Width: 1233
Flags: W
LayerCount: 2
Fore
SplineSet
752 1561 m 1,0,-1
 1034 1561 l 1,1,-1
 666 1262 l 1,2,-1
 469 1262 l 1,3,-1
 752 1561 l 1,0,-1
616 909 m 0,4,5
 511 909 511 909 451 816.5 c 128,-1,6
 391 724 391 724 391 559 c 256,7,8
 391 394 391 394 451 301.5 c 128,-1,9
 511 209 511 209 616 209 c 0,10,11
 722 209 722 209 782 301.5 c 128,-1,12
 842 394 842 394 842 559 c 256,13,14
 842 724 842 724 782 816.5 c 128,-1,15
 722 909 722 909 616 909 c 0,4,5
98 559 m 256,16,17
 98 830 98 830 238.5 988.5 c 128,-1,18
 379 1147 379 1147 616 1147 c 0,19,20
 854 1147 854 1147 994.5 988.5 c 128,-1,21
 1135 830 1135 830 1135 559 c 256,22,23
 1135 288 1135 288 994.5 129.5 c 128,-1,24
 854 -29 854 -29 616 -29 c 0,25,26
 379 -29 379 -29 238.5 129.5 c 128,-1,27
 98 288 98 288 98 559 c 256,16,17
EndSplineSet
EndChar

StartChar: ograve
Encoding: 242 242 122
Width: 1233
Flags: W
LayerCount: 2
Fore
SplineSet
481 1561 m 1,0,-1
 764 1262 l 1,1,-1
 567 1262 l 1,2,-1
 199 1561 l 1,3,-1
 481 1561 l 1,0,-1
616 909 m 0,4,5
 511 909 511 909 451 816.5 c 128,-1,6
 391 724 391 724 391 559 c 256,7,8
 391 394 391 394 451 301.5 c 128,-1,9
 511 209 511 209 616 209 c 0,10,11
 722 209 722 209 782 301.5 c 128,-1,12
 842 394 842 394 842 559 c 256,13,14
 842 724 842 724 782 816.5 c 128,-1,15
 722 909 722 909 616 909 c 0,4,5
98 559 m 256,16,17
 98 830 98 830 238.5 988.5 c 128,-1,18
 379 1147 379 1147 616 1147 c 0,19,20
 854 1147 854 1147 994.5 988.5 c 128,-1,21
 1135 830 1135 830 1135 559 c 256,22,23
 1135 288 1135 288 994.5 129.5 c 128,-1,24
 854 -29 854 -29 616 -29 c 0,25,26
 379 -29 379 -29 238.5 129.5 c 128,-1,27
 98 288 98 288 98 559 c 256,16,17
EndSplineSet
EndChar

StartChar: ocircumflex
Encoding: 244 244 123
Width: 1233
Flags: W
LayerCount: 2
Fore
SplineSet
496 1561 m 1,0,-1
 737 1561 l 1,1,-1
 993 1262 l 1,2,-1
 815 1262 l 1,3,-1
 616 1409 l 1,4,-1
 418 1262 l 1,5,-1
 240 1262 l 1,6,-1
 496 1561 l 1,0,-1
616 909 m 0,7,8
 511 909 511 909 451 816.5 c 128,-1,9
 391 724 391 724 391 559 c 256,10,11
 391 394 391 394 451 301.5 c 128,-1,12
 511 209 511 209 616 209 c 0,13,14
 722 209 722 209 782 301.5 c 128,-1,15
 842 394 842 394 842 559 c 256,16,17
 842 724 842 724 782 816.5 c 128,-1,18
 722 909 722 909 616 909 c 0,7,8
98 559 m 256,19,20
 98 830 98 830 238.5 988.5 c 128,-1,21
 379 1147 379 1147 616 1147 c 0,22,23
 854 1147 854 1147 994.5 988.5 c 128,-1,24
 1135 830 1135 830 1135 559 c 256,25,26
 1135 288 1135 288 994.5 129.5 c 128,-1,27
 854 -29 854 -29 616 -29 c 0,28,29
 379 -29 379 -29 238.5 129.5 c 128,-1,30
 98 288 98 288 98 559 c 256,19,20
EndSplineSet
EndChar

StartChar: odieresis
Encoding: 246 246 124
Width: 1233
Flags: W
LayerCount: 2
Fore
SplineSet
301 1561 m 1,0,-1
 537 1561 l 1,1,-1
 537 1315 l 1,2,-1
 301 1315 l 1,3,-1
 301 1561 l 1,0,-1
696 1561 m 1,4,-1
 932 1561 l 1,5,-1
 932 1315 l 1,6,-1
 696 1315 l 1,7,-1
 696 1561 l 1,4,-1
616 909 m 0,8,9
 511 909 511 909 451 816.5 c 128,-1,10
 391 724 391 724 391 559 c 256,11,12
 391 394 391 394 451 301.5 c 128,-1,13
 511 209 511 209 616 209 c 0,14,15
 722 209 722 209 782 301.5 c 128,-1,16
 842 394 842 394 842 559 c 256,17,18
 842 724 842 724 782 816.5 c 128,-1,19
 722 909 722 909 616 909 c 0,8,9
98 559 m 256,20,21
 98 830 98 830 238.5 988.5 c 128,-1,22
 379 1147 379 1147 616 1147 c 0,23,24
 854 1147 854 1147 994.5 988.5 c 128,-1,25
 1135 830 1135 830 1135 559 c 256,26,27
 1135 288 1135 288 994.5 129.5 c 128,-1,28
 854 -29 854 -29 616 -29 c 0,29,30
 379 -29 379 -29 238.5 129.5 c 128,-1,31
 98 288 98 288 98 559 c 256,20,21
EndSplineSet
EndChar

StartChar: otilde
Encoding: 245 245 125
Width: 1233
Flags: W
LayerCount: 2
Fore
SplineSet
618 1331 m 2,0,-1
 563 1368 l 2,1,2
 560 1370 560 1370 551 1376 c 0,3,4
 508 1405 508 1405 481 1405 c 0,5,6
 447 1405 447 1405 427.5 1373 c 128,-1,7
 408 1341 408 1341 408 1284 c 2,8,-1
 408 1276 l 1,9,-1
 268 1276 l 1,10,-1
 268 1309 l 2,11,12
 268 1422 268 1422 322 1491.5 c 128,-1,13
 376 1561 376 1561 465 1561 c 0,14,15
 501 1561 501 1561 536.5 1547.5 c 128,-1,16
 572 1534 572 1534 614 1503 c 2,17,-1
 676 1460 l 2,18,19
 697 1445 697 1445 715.5 1437.5 c 128,-1,20
 734 1430 734 1430 750 1430 c 0,21,22
 786 1430 786 1430 805.5 1461 c 128,-1,23
 825 1492 825 1492 825 1550 c 2,24,-1
 825 1559 l 1,25,-1
 965 1559 l 1,26,27
 965 1552 965 1552 964 1541.5 c 128,-1,28
 963 1531 963 1531 963 1526 c 0,29,30
 963 1411 963 1411 909.5 1342.5 c 128,-1,31
 856 1274 856 1274 768 1274 c 0,32,33
 733 1274 733 1274 700.5 1285.5 c 128,-1,34
 668 1297 668 1297 618 1331 c 2,0,-1
616 909 m 0,35,36
 511 909 511 909 451 816.5 c 128,-1,37
 391 724 391 724 391 559 c 256,38,39
 391 394 391 394 451 301.5 c 128,-1,40
 511 209 511 209 616 209 c 0,41,42
 722 209 722 209 782 301.5 c 128,-1,43
 842 394 842 394 842 559 c 256,44,45
 842 724 842 724 782 816.5 c 128,-1,46
 722 909 722 909 616 909 c 0,35,36
98 559 m 256,47,48
 98 830 98 830 238.5 988.5 c 128,-1,49
 379 1147 379 1147 616 1147 c 0,50,51
 854 1147 854 1147 994.5 988.5 c 128,-1,52
 1135 830 1135 830 1135 559 c 256,53,54
 1135 288 1135 288 994.5 129.5 c 128,-1,55
 854 -29 854 -29 616 -29 c 0,56,57
 379 -29 379 -29 238.5 129.5 c 128,-1,58
 98 288 98 288 98 559 c 256,47,48
EndSplineSet
EndChar

StartChar: dagger
Encoding: 8224 8224 130
Width: 1134
VWidth: 2220
Flags: W
HStem: 861.36 246.42<268.62 286.38 865.8 890.22> 1514.04 44.4G<543.9 588.3>
VStem: 444 246.42<311.135 599.4 1427.46 1451.88>
LayerCount: 2
Fore
SplineSet
599.4 950.16 m 1,0,1
 606.535 895.455 606.535 895.455 639.36 796.98 c 0,2,3
 675.467 687.09 675.467 687.09 682.943 641.58 c 128,-1,4
 690.42 596.07 690.42 596.07 690.42 512.82 c 0,5,6
 690.42 303.667 690.42 303.667 672.358 63.3754 c 128,-1,7
 654.296 -176.916 654.296 -176.916 640.402 -289.075 c 128,-1,8
 626.508 -401.234 626.508 -401.234 619.38 -444 c 0,9,10
 616.26 -455.439 616.26 -455.439 607.192 -461.105 c 128,-1,11
 598.123 -466.771 598.123 -466.771 590.128 -467.595 c 128,-1,12
 582.133 -468.42 582.133 -468.42 566.1 -468.42 c 0,13,14
 553.027 -468.42 553.027 -468.42 546.511 -467.893 c 128,-1,15
 539.996 -467.367 539.996 -467.367 532.409 -463.766 c 128,-1,16
 524.823 -460.166 524.823 -460.166 521.7 -452.88 c 1,17,18
 513.709 -442.226 513.709 -442.226 501.72 -346.32 c 0,19,20
 444 115.444 444 115.444 444 512.82 c 0,21,22
 444 592.74 444 592.74 451.025 638.569 c 128,-1,23
 458.05 684.399 458.05 684.399 490.62 783.66 c 0,24,25
 528.567 892.077 528.567 892.077 535.02 950.16 c 1,26,27
 485.508 938.734 485.508 938.734 412.92 903.54 c 0,28,29
 328.561 861.36 328.561 861.36 268.62 861.36 c 0,30,31
 209.817 861.36 209.817 861.36 175.949 897.868 c 128,-1,32
 142.08 934.375 142.08 934.375 142.08 985.68 c 0,33,34
 142.08 1033.62 142.08 1033.62 173.927 1070.7 c 128,-1,35
 205.774 1107.78 205.774 1107.78 268.62 1107.78 c 0,36,37
 296.479 1107.78 296.479 1107.78 330.917 1097.87 c 128,-1,38
 365.356 1087.97 365.356 1087.97 388.363 1077.73 c 128,-1,39
 411.369 1067.49 411.369 1067.49 446.22 1050.06 c 0,40,41
 494.891 1027.01 494.891 1027.01 535.02 1018.98 c 1,42,43
 528.399 1078.57 528.399 1078.57 490.62 1203.24 c 0,44,45
 444 1352.42 444 1352.42 444 1427.46 c 0,46,47
 444 1463.67 444 1463.67 456.237 1490.66 c 128,-1,48
 468.473 1517.65 468.473 1517.65 488.166 1531.59 c 128,-1,49
 507.858 1545.54 507.858 1545.54 527.971 1551.99 c 128,-1,50
 548.083 1558.44 548.083 1558.44 568.32 1558.44 c 0,51,52
 586.048 1558.44 586.048 1558.44 604.714 1552.85 c 128,-1,53
 623.379 1547.26 623.379 1547.26 643.898 1534.16 c 128,-1,54
 664.417 1521.07 664.417 1521.07 677.418 1493.4 c 128,-1,55
 690.42 1465.72 690.42 1465.72 690.42 1427.46 c 0,56,57
 690.42 1393.22 690.42 1393.22 682.427 1349.45 c 128,-1,58
 674.433 1305.68 674.433 1305.68 665.854 1274.59 c 128,-1,59
 657.274 1243.5 657.274 1243.5 641.58 1192.14 c 0,60,61
 606.761 1087.69 606.761 1087.69 599.4 1018.98 c 1,62,63
 648.909 1030.4 648.909 1030.4 721.5 1065.6 c 0,64,65
 805.861 1107.78 805.861 1107.78 865.8 1107.78 c 0,66,67
 924.603 1107.78 924.603 1107.78 958.472 1071.27 c 128,-1,68
 992.34 1034.77 992.34 1034.77 992.34 983.46 c 0,69,70
 992.34 935.525 992.34 935.525 960.493 898.443 c 128,-1,71
 928.646 861.36 928.646 861.36 865.8 861.36 c 0,72,73
 837.941 861.36 837.941 861.36 803.502 871.267 c 128,-1,74
 769.064 881.173 769.064 881.173 746.058 891.414 c 128,-1,75
 723.053 901.654 723.053 901.654 688.2 919.08 c 0,76,77
 639.531 942.133 639.531 942.133 599.4 950.16 c 1,0,1
EndSplineSet
EndChar

StartChar: degree
Encoding: 176 176 131
Width: 888
VWidth: 2220
Flags: W
HStem: 843.6 126.54<444 468.42> 1396.38 126.54<428.46 468.42>
VStem: 111 124.32<1161.06 1201.02> 650.46 126.54<1183.26 1201.02>
LayerCount: 2
Fore
SplineSet
450.66 1522.92 m 0,0,1
 588.711 1522.92 588.711 1522.92 682.856 1424.76 c 128,-1,2
 777 1326.6 777 1326.6 777 1183.26 c 0,3,4
 777 1040.19 777 1040.19 680.491 941.896 c 128,-1,5
 583.981 843.6 583.981 843.6 444 843.6 c 0,6,7
 352.232 843.6 352.232 843.6 275.648 888.935 c 128,-1,8
 199.064 934.271 199.064 934.271 155.032 1012.86 c 128,-1,9
 111 1091.46 111 1091.46 111 1185.48 c 0,10,11
 111 1278.27 111 1278.27 156.254 1355.94 c 128,-1,12
 201.507 1433.6 201.507 1433.6 279.607 1478.26 c 128,-1,13
 357.706 1522.92 357.706 1522.92 450.66 1522.92 c 0,0,1
448.44 1396.38 m 0,14,15
 358.913 1396.38 358.913 1396.38 297.117 1334.14 c 128,-1,16
 235.32 1271.89 235.32 1271.89 235.32 1183.26 c 0,17,18
 235.32 1095.36 235.32 1095.36 297.031 1032.75 c 128,-1,19
 358.742 970.14 358.742 970.14 444 970.14 c 0,20,21
 530.701 970.14 530.701 970.14 590.58 1031.81 c 128,-1,22
 650.46 1093.47 650.46 1093.47 650.46 1183.26 c 0,23,24
 650.46 1271.41 650.46 1271.41 591.121 1333.89 c 128,-1,25
 531.782 1396.38 531.782 1396.38 448.44 1396.38 c 0,14,15
EndSplineSet
EndChar

StartChar: cent
Encoding: 162 162 132
Width: 1233
Flags: W
LayerCount: 2
Fore
SplineSet
1036 1077 m 1,0,-1
 1036 809 l 1,1,2
 980 851 980 851 920 875.5 c 128,-1,3
 860 900 860 900 797 907 c 1,4,-1
 797 215 l 1,5,6
 861 220 861 220 920.5 244 c 128,-1,7
 980 268 980 268 1036 311 c 1,8,-1
 1036 43 l 1,9,10
 984 14 984 14 924 -3 c 128,-1,11
 864 -20 864 -20 797 -25 c 1,12,-1
 797 -313 l 1,13,-1
 655 -313 l 1,14,-1
 655 -25 l 1,15,16
 420 -3 420 -3 283.5 154 c 128,-1,17
 147 311 147 311 147 561 c 0,18,19
 147 816 147 816 283.5 972.5 c 128,-1,20
 420 1129 420 1129 655 1145 c 1,21,-1
 655 1432 l 1,22,-1
 797 1432 l 1,23,-1
 797 1145 l 1,24,25
 858 1140 858 1140 916.5 1123.5 c 128,-1,26
 975 1107 975 1107 1036 1077 c 1,0,-1
655 215 m 1,27,-1
 655 907 l 1,28,29
 541 893 541 893 479.5 803.5 c 128,-1,30
 418 714 418 714 418 561 c 0,31,32
 418 406 418 406 481 313.5 c 128,-1,33
 544 221 544 221 655 215 c 1,27,-1
EndSplineSet
EndChar

StartChar: sterling
Encoding: 163 163 133
Width: 1233
Flags: W
LayerCount: 2
Fore
SplineSet
1102 1462 m 1,0,-1
 1102 1188 l 1,1,2
 1045 1229 1045 1229 980 1250.5 c 128,-1,3
 915 1272 915 1272 846 1272 c 0,4,5
 740 1272 740 1272 690.5 1205.5 c 128,-1,6
 641 1139 641 1139 641 995 c 2,7,-1
 641 819 l 1,8,-1
 977 819 l 1,9,-1
 977 594 l 1,10,-1
 641 594 l 1,11,-1
 641 260 l 1,12,-1
 1122 260 l 1,13,-1
 1122 0 l 1,14,-1
 119 0 l 1,15,-1
 119 260 l 1,16,-1
 354 260 l 1,17,-1
 354 594 l 1,18,-1
 156 594 l 1,19,-1
 156 819 l 1,20,-1
 354 819 l 1,21,-1
 354 1016 l 2,22,23
 354 1272 354 1272 466.5 1396 c 128,-1,24
 579 1520 579 1520 811 1520 c 0,25,26
 894 1520 894 1520 965 1505.5 c 128,-1,27
 1036 1491 1036 1491 1102 1462 c 1,0,-1
EndSplineSet
EndChar

StartChar: section
Encoding: 167 167 134
Width: 1233
Flags: W
LayerCount: 2
Fore
SplineSet
518 856 m 1,0,1
 463 820 463 820 438.5 785.5 c 128,-1,2
 414 751 414 751 414 711 c 0,3,4
 414 657 414 657 462.5 613 c 128,-1,5
 511 569 511 569 711 473 c 1,6,7
 766 509 766 509 790.5 543.5 c 128,-1,8
 815 578 815 578 815 621 c 0,9,10
 815 702 815 702 550 840 c 2,11,-1
 518 856 l 1,0,1
930 1460 m 1,12,-1
 930 1235 l 1,13,14
 845 1265 845 1265 779 1279.5 c 128,-1,15
 713 1294 713 1294 659 1294 c 0,16,17
 583 1294 583 1294 540.5 1265 c 128,-1,18
 498 1236 498 1236 498 1184 c 0,19,20
 498 1109 498 1109 701 1004 c 0,21,22
 720 994 720 994 729 989 c 0,23,24
 943 879 943 879 1002 808.5 c 128,-1,25
 1061 738 1061 738 1061 637 c 0,26,27
 1061 548 1061 548 1013.5 484 c 128,-1,28
 966 420 966 420 864 373 c 1,29,30
 934 323 934 323 966.5 261.5 c 128,-1,31
 999 200 999 200 999 119 c 0,32,33
 999 -28 999 -28 894.5 -111.5 c 128,-1,34
 790 -195 790 -195 604 -195 c 0,35,36
 515 -195 515 -195 429 -180.5 c 128,-1,37
 343 -166 343 -166 258 -137 c 1,38,-1
 258 92 l 1,39,40
 343 62 343 62 424 46.5 c 128,-1,41
 505 31 505 31 578 31 c 0,42,43
 655 31 655 31 696 59.5 c 128,-1,44
 737 88 737 88 737 141 c 0,45,46
 737 211 737 211 523 326 c 2,47,-1
 512 332 l 1,48,-1
 486 346 l 2,49,50
 170 516 170 516 170 688 c 0,51,52
 170 782 170 782 222 851.5 c 128,-1,53
 274 921 274 921 371 954 c 1,54,55
 300 1004 300 1004 268 1064 c 128,-1,56
 236 1124 236 1124 236 1206 c 0,57,58
 236 1348 236 1348 340 1434 c 128,-1,59
 444 1520 444 1520 616 1520 c 0,60,61
 690 1520 690 1520 768.5 1505 c 128,-1,62
 847 1490 847 1490 930 1460 c 1,12,-1
EndSplineSet
EndChar

StartChar: bullet
Encoding: 8226 8226 135
Width: 1110
VWidth: 2220
Flags: W
HStem: 941.28 44.4G<434.01 671.55>
LayerCount: 2
Fore
SplineSet
983.46 555 m 0,0,1
 983.46 439.783 983.46 439.783 926.838 340.826 c 128,-1,2
 870.217 241.869 870.217 241.869 770.721 183.095 c 128,-1,3
 671.226 124.32 671.226 124.32 552.78 124.32 c 0,4,5
 466.857 124.32 466.857 124.32 387.742 158.498 c 128,-1,6
 308.627 192.675 308.627 192.675 250.889 250.295 c 128,-1,7
 193.151 307.914 193.151 307.914 158.736 387.782 c 128,-1,8
 124.32 467.649 124.32 467.649 124.32 555 c 0,9,10
 124.32 670.217 124.32 670.217 180.942 769.174 c 128,-1,11
 237.563 868.131 237.563 868.131 337.058 926.905 c 128,-1,12
 436.554 985.68 436.554 985.68 555 985.68 c 0,13,14
 640.922 985.68 640.922 985.68 720.037 951.502 c 128,-1,15
 799.152 917.325 799.152 917.325 856.891 859.705 c 128,-1,16
 914.629 802.086 914.629 802.086 949.044 722.218 c 128,-1,17
 983.46 642.351 983.46 642.351 983.46 555 c 0,0,1
EndSplineSet
EndChar

StartChar: paragraph
Encoding: 182 182 136
Width: 1233
Flags: W
LayerCount: 2
Fore
SplineSet
545 1493 m 2,0,-1
 1065 1493 l 1,1,-1
 1065 -197 l 1,2,-1
 874 -197 l 1,3,-1
 874 1346 l 1,4,-1
 684 1346 l 1,5,-1
 684 -197 l 1,6,-1
 496 -197 l 1,7,-1
 496 649 l 1,8,9
 291 674 291 674 180.5 783.5 c 128,-1,10
 70 893 70 893 70 1071 c 0,11,12
 70 1261 70 1261 200 1377 c 128,-1,13
 330 1493 330 1493 545 1493 c 2,0,-1
EndSplineSet
EndChar

StartChar: germandbls
Encoding: 223 223 137
Width: 1233
Flags: W
LayerCount: 2
Fore
SplineSet
1034 1059 m 1,0,1
 909 1053 909 1053 844.5 1007.5 c 128,-1,2
 780 962 780 962 780 881 c 0,3,4
 780 817 780 817 896 728 c 0,5,6
 909 718 909 718 915 713 c 2,7,-1
 1012 639 l 2,8,9
 1094 577 1094 577 1134 500.5 c 128,-1,10
 1174 424 1174 424 1174 330 c 0,11,12
 1174 163 1174 163 1062 67 c 128,-1,13
 950 -29 950 -29 756 -29 c 0,14,15
 695 -29 695 -29 633 -16.5 c 128,-1,16
 571 -4 571 -4 504 20 c 1,17,-1
 504 270 l 1,18,19
 562 239 562 239 619.5 223 c 128,-1,20
 677 207 677 207 731 207 c 0,21,22
 804 207 804 207 846.5 240.5 c 128,-1,23
 889 274 889 274 889 332 c 0,24,25
 889 404 889 404 774 492 c 0,26,27
 745 514 745 514 729 526 c 2,28,-1
 643 594 l 2,29,30
 584 642 584 642 554 705.5 c 128,-1,31
 524 769 524 769 524 846 c 0,32,33
 524 972 524 972 598 1057.5 c 128,-1,34
 672 1143 672 1143 809 1174 c 1,35,36
 800 1248 800 1248 751 1284.5 c 128,-1,37
 702 1321 702 1321 610 1321 c 0,38,39
 516 1321 516 1321 468 1270.5 c 128,-1,40
 420 1220 420 1220 420 1122 c 2,41,-1
 420 0 l 1,42,-1
 127 0 l 1,43,-1
 127 1126 l 2,44,45
 127 1337 127 1337 247.5 1446.5 c 128,-1,46
 368 1556 368 1556 598 1556 c 0,47,48
 821 1556 821 1556 927.5 1437.5 c 128,-1,49
 1034 1319 1034 1319 1034 1073 c 2,50,-1
 1034 1059 l 1,0,1
EndSplineSet
EndChar

StartChar: registered
Encoding: 174 174 138
Width: 1753
VWidth: 2220
Flags: W
HStem: -28.86 99.9<876.9 930.18> 350.76 39.96<475.08 509.119 828.06 861.36 1305.36 1334.22> 739.26 62.16<745.92 803.64> 1141.08 66.6<475.08 874.68> 1167.72 39.96<475.08 509.119> 1431.9 99.9<874.68 930.18>
VStem: 111 113.22<714.84 805.86> 592.74 153.18<497.28 739.26 497.28 1096.68> 1030.08 159.84<963.48 1003.44> 1529.58 113.22<714.84 801.42>
DStem2: 434 341 362 333 0.624695 -0.780869
LayerCount: 2
Fore
SplineSet
1114.44 350.76 m 1,0,-1
 803.64 739.26 l 1,1,-1
 745.92 739.26 l 1,2,-1
 745.92 497.28 l 2,3,4
 745.92 433.747 745.92 433.747 766.33 414.721 c 128,-1,5
 786.739 395.695 786.739 395.695 861.36 390.72 c 1,6,-1
 861.36 350.76 l 1,7,-1
 475.08 350.76 l 1,8,-1
 475.08 390.72 l 1,9,10
 551.29 395.69 551.29 395.69 572.015 414.688 c 128,-1,11
 592.74 433.686 592.74 433.686 592.74 497.28 c 2,12,-1
 592.74 1063.38 l 2,13,14
 592.74 1125.37 592.74 1125.37 571.972 1144.06 c 128,-1,15
 551.205 1162.76 551.205 1162.76 475.08 1167.72 c 1,16,-1
 475.08 1207.68 l 1,17,-1
 825.84 1207.68 l 2,18,19
 914.874 1207.68 914.874 1207.68 965.879 1200.28 c 128,-1,20
 1016.88 1192.88 1016.88 1192.88 1058.94 1174.38 c 0,21,22
 1122.09 1146.13 1122.09 1146.13 1156 1094.83 c 128,-1,23
 1189.92 1043.53 1189.92 1043.53 1189.92 976.8 c 0,24,25
 1189.92 890.161 1189.92 890.161 1129.11 831.078 c 128,-1,26
 1068.3 771.995 1068.3 771.995 963.48 757.02 c 1,27,-1
 1196.58 475.08 l 2,28,29
 1238.43 426.536 1238.43 426.536 1264.79 410.284 c 128,-1,30
 1291.16 394.033 1291.16 394.033 1334.22 390.72 c 1,31,-1
 1334.22 350.76 l 1,32,-1
 1114.44 350.76 l 1,0,-1
745.92 1092.24 m 2,33,-1
 745.92 803.64 l 1,34,35
 761.46 801.42 761.46 801.42 781.44 801.42 c 0,36,37
 912.964 801.42 912.964 801.42 971.522 842.209 c 128,-1,38
 1030.08 882.998 1030.08 882.998 1030.08 974.58 c 0,39,40
 1030.08 1059.54 1030.08 1059.54 980.66 1100.31 c 128,-1,41
 931.239 1141.08 931.239 1141.08 828.06 1141.08 c 0,42,43
 769.616 1141.08 769.616 1141.08 757.768 1134.09 c 128,-1,44
 745.92 1127.11 745.92 1127.11 745.92 1092.24 c 2,33,-1
874.68 1531.8 m 0,45,46
 1033.45 1531.8 1033.45 1531.8 1175.94 1469.98 c 128,-1,47
 1318.42 1408.17 1318.42 1408.17 1420.7 1302.76 c 128,-1,48
 1522.98 1197.35 1522.98 1197.35 1582.89 1050.89 c 128,-1,49
 1642.8 904.428 1642.8 904.428 1642.8 741.48 c 0,50,51
 1642.8 587.058 1642.8 587.058 1581.33 444.591 c 128,-1,52
 1519.87 302.124 1519.87 302.124 1416.85 198.481 c 128,-1,53
 1313.83 94.8376 1313.83 94.8376 1172.16 32.9886 c 128,-1,54
 1030.49 -28.8604 1030.49 -28.8604 876.9 -28.8604 c 0,55,56
 721.535 -28.8604 721.535 -28.8604 579.75 33.1571 c 128,-1,57
 437.964 95.1745 437.964 95.1745 335.307 199.873 c 128,-1,58
 232.649 304.572 232.649 304.572 171.825 449.269 c 128,-1,59
 111 593.965 111 593.965 111 752.58 c 0,60,61
 111 910.35 111 910.35 171.792 1054.61 c 128,-1,62
 232.583 1198.86 232.583 1198.86 335.027 1303.35 c 128,-1,63
 437.471 1407.83 437.471 1407.83 578.814 1469.82 c 128,-1,64
 720.157 1531.8 720.157 1531.8 874.68 1531.8 c 0,45,46
874.68 1431.9 m 0,65,66
 743.032 1431.9 743.032 1431.9 622.656 1377.74 c 128,-1,67
 502.28 1323.59 502.28 1323.59 415.02 1232.25 c 128,-1,68
 327.759 1140.91 327.759 1140.91 275.989 1014.71 c 128,-1,69
 224.22 888.505 224.22 888.505 224.22 750.36 c 0,70,71
 224.22 612.966 224.22 612.966 276.037 487.285 c 128,-1,72
 327.854 361.604 327.854 361.604 415.284 270.429 c 128,-1,73
 502.715 179.255 502.715 179.255 623.606 125.147 c 128,-1,74
 744.498 71.04 744.498 71.04 876.9 71.04 c 0,75,76
 1007.72 71.04 1007.72 71.04 1128.33 124.758 c 128,-1,77
 1248.95 178.476 1248.95 178.476 1336.84 268.737 c 128,-1,78
 1424.72 358.999 1424.72 358.999 1477.15 483.565 c 128,-1,79
 1529.58 608.132 1529.58 608.132 1529.58 743.7 c 0,80,81
 1529.58 885.326 1529.58 885.326 1478.37 1012.86 c 128,-1,82
 1427.17 1140.39 1427.17 1140.39 1339.88 1232.22 c 128,-1,83
 1252.6 1324.06 1252.6 1324.06 1131.15 1377.98 c 128,-1,84
 1009.7 1431.9 1009.7 1431.9 874.68 1431.9 c 0,65,66
EndSplineSet
EndChar

StartChar: copyright
Encoding: 169 169 139
Width: 1753
VWidth: 2220
Flags: W
HStem: -28.86 99.9<879.12 932.4> 306.36 73.26<879.12 932.4> 1127.76 68.82<872.46 932.4> 1431.9 99.9<876.9 932.4>
VStem: 113.22 113.22<714.84 790.32> 444 168.72<714.84 790.32> 1531.8 113.22<714.84 790.32>
LayerCount: 2
Fore
SplineSet
1238.76 894.66 m 1,0,-1
 1189.92 894.66 l 1,1,2
 1161.63 1009.48 1161.63 1009.48 1091.17 1068.62 c 128,-1,3
 1020.7 1127.76 1020.7 1127.76 912.42 1127.76 c 0,4,5
 772.61 1127.76 772.61 1127.76 692.665 1027.61 c 128,-1,6
 612.72 927.467 612.72 927.467 612.72 752.58 c 0,7,8
 612.72 579.443 612.72 579.443 695.405 479.532 c 128,-1,9
 778.091 379.62 778.091 379.62 921.3 379.62 c 0,10,11
 1009.91 379.62 1009.91 379.62 1077.6 408.347 c 128,-1,12
 1145.28 437.074 1145.28 437.074 1223.22 508.38 c 1,13,-1
 1256.52 472.86 l 1,14,15
 1176.7 386.39 1176.7 386.39 1090.14 346.375 c 128,-1,16
 1003.58 306.36 1003.58 306.36 896.88 306.36 c 0,17,18
 694.083 306.36 694.083 306.36 569.041 427.467 c 128,-1,19
 444 548.573 444 548.573 444 743.7 c 0,20,21
 444 875.308 444 875.308 501.98 978.622 c 128,-1,22
 559.959 1081.94 559.959 1081.94 664.26 1139.26 c 128,-1,23
 768.562 1196.58 768.562 1196.58 901.32 1196.58 c 0,24,25
 996.377 1196.58 996.377 1196.58 1090.02 1161.06 c 0,26,27
 1115.92 1149.96 1115.92 1149.96 1134.42 1149.96 c 0,28,29
 1152.67 1149.96 1152.67 1149.96 1161.28 1158.23 c 128,-1,30
 1169.89 1166.49 1169.89 1166.49 1183.26 1196.58 c 1,31,-1
 1227.66 1196.58 l 1,32,-1
 1238.76 894.66 l 1,0,-1
876.9 1531.8 m 0,33,34
 1035.67 1531.8 1035.67 1531.8 1178.16 1469.98 c 128,-1,35
 1320.64 1408.17 1320.64 1408.17 1422.92 1302.76 c 128,-1,36
 1525.2 1197.35 1525.2 1197.35 1585.11 1050.89 c 128,-1,37
 1645.02 904.428 1645.02 904.428 1645.02 741.48 c 0,38,39
 1645.02 587.058 1645.02 587.058 1583.55 444.591 c 128,-1,40
 1522.09 302.124 1522.09 302.124 1419.07 198.481 c 128,-1,41
 1316.05 94.8376 1316.05 94.8376 1174.38 32.9886 c 128,-1,42
 1032.71 -28.8604 1032.71 -28.8604 879.12 -28.8604 c 0,43,44
 723.755 -28.8604 723.755 -28.8604 581.97 33.1571 c 128,-1,45
 440.184 95.1745 440.184 95.1745 337.527 199.873 c 128,-1,46
 234.869 304.572 234.869 304.572 174.044 449.269 c 128,-1,47
 113.22 593.965 113.22 593.965 113.22 752.58 c 0,48,49
 113.22 910.35 113.22 910.35 174.011 1054.61 c 128,-1,50
 234.803 1198.86 234.803 1198.86 337.247 1303.35 c 128,-1,51
 439.692 1407.83 439.692 1407.83 581.035 1469.82 c 128,-1,52
 722.378 1531.8 722.378 1531.8 876.9 1531.8 c 0,33,34
876.9 1431.9 m 0,53,54
 745.253 1431.9 745.253 1431.9 624.877 1377.74 c 128,-1,55
 504.501 1323.59 504.501 1323.59 417.24 1232.25 c 128,-1,56
 329.98 1140.91 329.98 1140.91 278.21 1014.71 c 128,-1,57
 226.44 888.505 226.44 888.505 226.44 750.36 c 0,58,59
 226.44 612.966 226.44 612.966 278.258 487.285 c 128,-1,60
 330.075 361.604 330.075 361.604 417.505 270.429 c 128,-1,61
 504.935 179.255 504.935 179.255 625.826 125.147 c 128,-1,62
 746.718 71.04 746.718 71.04 879.12 71.04 c 0,63,64
 1009.94 71.04 1009.94 71.04 1130.55 124.758 c 128,-1,65
 1251.17 178.476 1251.17 178.476 1339.06 268.737 c 128,-1,66
 1426.94 358.999 1426.94 358.999 1479.37 483.565 c 128,-1,67
 1531.8 608.132 1531.8 608.132 1531.8 743.7 c 0,68,69
 1531.8 885.326 1531.8 885.326 1480.59 1012.86 c 128,-1,70
 1429.39 1140.39 1429.39 1140.39 1342.1 1232.22 c 128,-1,71
 1254.82 1324.06 1254.82 1324.06 1133.37 1377.98 c 128,-1,72
 1011.92 1431.9 1011.92 1431.9 876.9 1431.9 c 0,53,54
EndSplineSet
EndChar

StartChar: trademark
Encoding: 8482 8482 140
Width: 1975
VWidth: 2220
Flags: W
HStem: 597.18 48.84<182.04 253.901 610.5 610.5 790.32 835.719 790.32 888 1005.66 1090.02 1520.7 1898.1 1867.02 1898.1> 1414.14 79.92<39.96 321.9 39.96 539.46> 1445.22 48.84<808.08 878.323 1600.62 1898.1>
VStem: 321.9 153.18<712.62 1411.92> 899.1 86.58<701.52 1329.78> 1636.14 153.18<721.5 1365.3>
DStem2: 484 673 444 599 0.371391 -0.928477 603 382 598 269 0.372777 0.927921
LayerCount: 2
Fore
SplineSet
1898.1 1494.06 m 1,0,-1
 1898.1 1445.22 l 1,1,-1
 1862.58 1445.22 l 2,2,3
 1817.54 1445.22 1817.54 1445.22 1803.43 1437.98 c 128,-1,4
 1789.32 1430.75 1789.32 1430.75 1789.32 1407.48 c 2,5,-1
 1789.32 721.5 l 2,6,7
 1789.32 678.141 1789.32 678.141 1808.8 664.574 c 128,-1,8
 1828.28 651.007 1828.28 651.007 1898.1 646.02 c 1,9,-1
 1898.1 597.18 l 1,10,-1
 1520.7 597.18 l 1,11,-1
 1520.7 646.02 l 1,12,13
 1589.11 647.688 1589.11 647.688 1612.62 662.993 c 128,-1,14
 1636.14 678.298 1636.14 678.298 1636.14 721.5 c 2,15,-1
 1636.14 1365.3 l 1,16,-1
 1327.56 597.18 l 1,17,-1
 1278.72 597.18 l 1,18,-1
 985.68 1329.78 l 1,19,-1
 985.68 732.6 l 2,20,21
 985.68 681.203 985.68 681.203 1006.08 664.448 c 128,-1,22
 1026.48 647.692 1026.48 647.692 1090.02 646.02 c 1,23,-1
 1090.02 597.18 l 1,24,-1
 790.32 597.18 l 1,25,-1
 790.32 646.02 l 1,26,27
 863.632 647.686 863.632 647.686 881.366 662.136 c 128,-1,28
 899.1 676.586 899.1 676.586 899.1 734.82 c 2,29,-1
 899.1 1407.48 l 2,30,31
 899.1 1434.28 899.1 1434.28 890.144 1439.33 c 0,32,33
 879.701 1445.22 879.701 1445.22 808.08 1445.22 c 1,34,-1
 808.08 1494.06 l 1,35,-1
 1074.48 1494.06 l 1,36,-1
 1338.66 848.04 l 1,37,-1
 1600.62 1494.06 l 1,38,-1
 1898.1 1494.06 l 1,0,-1
761.46 1494.06 m 1,39,-1
 761.46 1249.86 l 1,40,-1
 710.4 1249.86 l 1,41,42
 709.235 1286.57 709.235 1286.57 705.262 1310.77 c 128,-1,43
 701.289 1334.96 701.289 1334.96 690.749 1354.44 c 128,-1,44
 680.208 1373.91 680.208 1373.91 665.137 1384.62 c 128,-1,45
 650.067 1395.33 650.067 1395.33 622.997 1402.45 c 128,-1,46
 595.928 1409.58 595.928 1409.58 562.853 1411.86 c 128,-1,47
 529.777 1414.14 529.777 1414.14 479.52 1414.14 c 2,48,-1
 475.08 1414.14 l 1,49,-1
 475.08 712.62 l 2,50,51
 474.358 693.134 474.358 693.134 476.801 682.465 c 128,-1,52
 479.243 671.796 479.243 671.796 485.561 663.494 c 128,-1,53
 491.879 655.191 491.879 655.191 508.911 651.989 c 128,-1,54
 525.943 648.786 525.943 648.786 548.04 647.403 c 128,-1,55
 570.138 646.02 570.138 646.02 610.5 646.02 c 1,56,-1
 610.5 597.18 l 1,57,-1
 182.04 597.18 l 1,58,-1
 182.04 646.02 l 1,59,60
 230.773 646.02 230.773 646.02 255.895 648.134 c 128,-1,61
 281.017 650.249 281.017 650.249 297.267 658.474 c 128,-1,62
 313.516 666.699 313.516 666.699 317.708 679.492 c 128,-1,63
 321.9 692.284 321.9 692.284 321.9 717.06 c 2,64,-1
 321.9 1414.14 l 1,65,-1
 308.58 1414.14 l 2,66,67
 260.342 1412.38 260.342 1412.38 229.277 1409.25 c 128,-1,68
 198.211 1406.12 198.211 1406.12 172.266 1398.5 c 128,-1,69
 146.32 1390.88 146.32 1390.88 132.111 1380.47 c 128,-1,70
 117.901 1370.06 117.901 1370.06 107.228 1350.97 c 128,-1,71
 96.5549 1331.88 96.5549 1331.88 91.9247 1308.77 c 128,-1,72
 87.2946 1285.66 87.2946 1285.66 84.3604 1249.86 c 1,73,-1
 39.96 1249.86 l 1,74,-1
 39.96 1494.06 l 1,75,-1
 761.46 1494.06 l 1,39,-1
EndSplineSet
EndChar

StartChar: acute
Encoding: 180 180 141
Width: 1233
Flags: W
LayerCount: 2
Fore
SplineSet
752 1638 m 1,0,-1
 1034 1638 l 1,1,-1
 666 1262 l 1,2,-1
 469 1262 l 1,3,-1
 752 1638 l 1,0,-1
EndSplineSet
EndChar

StartChar: dieresis
Encoding: 168 168 142
Width: 1233
Flags: W
LayerCount: 2
Fore
SplineSet
696 1585 m 1,0,-1
 932 1585 l 1,1,-1
 932 1339 l 1,2,-1
 696 1339 l 1,3,-1
 696 1585 l 1,0,-1
301 1585 m 1,4,-1
 537 1585 l 1,5,-1
 537 1339 l 1,6,-1
 301 1339 l 1,7,-1
 301 1585 l 1,4,-1
EndSplineSet
EndChar

StartChar: notequal
Encoding: 8800 8800 143
Width: 1724
VWidth: 2220
Flags: W
HStem: 295.26 88.8<161.933 659.34 199.8 1547.34> 725.94 88.8<161.933 872.46 197.58 1547.34>
DStem2: 146 -178 181 -198 0.456935 0.8895
LayerCount: 2
Fore
SplineSet
1400.82 1505.16 m 6,0,-1
 401.82 -439.56 l 2,1,2
 381.84 -479.52 381.84 -479.52 352.98 -479.52 c 0,3,4
 332.025 -479.52 332.025 -479.52 320.302 -464.642 c 128,-1,5
 308.58 -449.763 308.58 -449.763 308.58 -435.12 c 0,6,7
 308.58 -426.239 308.58 -426.239 324.12 -395.16 c 2,8,-1
 1323.12 1549.56 l 2,9,10
 1343.1 1589.52 1343.1 1589.52 1371.96 1589.52 c 0,11,12
 1392.92 1589.52 1392.92 1589.52 1404.64 1574.64 c 128,-1,13
 1416.36 1559.76 1416.36 1559.76 1416.36 1545.12 c 0,14,15
 1416.36 1536.24 1416.36 1536.24 1400.82 1505.16 c 6,0,-1
1525.14 725.94 m 2,16,-1
 199.8 725.94 l 2,17,18
 186.125 725.94 186.125 725.94 178.728 726.247 c 128,-1,19
 171.33 726.553 171.33 726.553 159.281 728.831 c 128,-1,20
 147.231 731.109 147.231 731.109 140.864 735.482 c 128,-1,21
 134.497 739.855 134.497 739.855 129.408 748.722 c 128,-1,22
 124.32 757.589 124.32 757.589 124.32 770.34 c 0,23,24
 124.32 786.058 124.32 786.058 130.633 795.853 c 128,-1,25
 136.946 805.649 136.946 805.649 150.058 809.346 c 128,-1,26
 163.17 813.042 163.17 813.042 172.258 813.891 c 128,-1,27
 181.346 814.74 181.346 814.74 197.58 814.74 c 2,28,-1
 1527.36 814.74 l 2,29,30
 1543.59 814.74 1543.59 814.74 1552.68 813.891 c 128,-1,31
 1561.77 813.042 1561.77 813.042 1574.88 809.346 c 128,-1,32
 1587.99 805.649 1587.99 805.649 1594.31 795.853 c 128,-1,33
 1600.62 786.058 1600.62 786.058 1600.62 770.34 c 0,34,35
 1600.62 757.589 1600.62 757.589 1595.53 748.722 c 128,-1,36
 1590.44 739.855 1590.44 739.855 1584.08 735.482 c 128,-1,37
 1577.71 731.109 1577.71 731.109 1565.66 728.831 c 128,-1,38
 1553.61 726.553 1553.61 726.553 1546.21 726.247 c 128,-1,39
 1538.81 725.94 1538.81 725.94 1525.14 725.94 c 2,16,-1
1527.36 295.26 m 2,40,-1
 197.58 295.26 l 2,41,42
 181.346 295.26 181.346 295.26 172.258 296.109 c 128,-1,43
 163.17 296.958 163.17 296.958 150.058 300.654 c 128,-1,44
 136.946 304.351 136.946 304.351 130.633 314.147 c 128,-1,45
 124.32 323.942 124.32 323.942 124.32 339.66 c 0,46,47
 124.32 352.411 124.32 352.411 129.409 361.278 c 128,-1,48
 134.497 370.145 134.497 370.145 140.864 374.518 c 128,-1,49
 147.231 378.891 147.231 378.891 159.281 381.169 c 128,-1,50
 171.331 383.447 171.331 383.447 178.728 383.753 c 128,-1,51
 186.125 384.06 186.125 384.06 199.8 384.06 c 2,52,-1
 1525.14 384.06 l 2,53,54
 1538.82 384.06 1538.82 384.06 1546.21 383.753 c 128,-1,55
 1553.61 383.447 1553.61 383.447 1565.66 381.169 c 128,-1,56
 1577.71 378.891 1577.71 378.891 1584.08 374.518 c 128,-1,57
 1590.44 370.145 1590.44 370.145 1595.53 361.278 c 128,-1,58
 1600.62 352.411 1600.62 352.411 1600.62 339.66 c 0,59,60
 1600.62 323.942 1600.62 323.942 1594.31 314.147 c 128,-1,61
 1587.99 304.351 1587.99 304.351 1574.88 300.654 c 128,-1,62
 1561.77 296.958 1561.77 296.958 1552.68 296.109 c 128,-1,63
 1543.59 295.26 1543.59 295.26 1527.36 295.26 c 2,40,-1
EndSplineSet
EndChar

StartChar: AE
Encoding: 198 198 144
Width: 1233
Flags: W
LayerCount: 2
Fore
SplineSet
1161 1493 m 1,0,-1
 1161 1233 l 1,1,-1
 870 1233 l 1,2,-1
 870 922 l 1,3,-1
 1130 922 l 1,4,-1
 1130 662 l 1,5,-1
 870 662 l 1,6,-1
 870 260 l 1,7,-1
 1180 260 l 1,8,-1
 1180 0 l 1,9,-1
 616 0 l 1,10,-1
 616 362 l 1,11,-1
 334 362 l 1,12,-1
 248 0 l 1,13,-1
 0 0 l 1,14,-1
 358 1493 l 1,15,-1
 1161 1493 l 1,0,-1
537 1233 m 1,16,-1
 389 598 l 1,17,-1
 616 598 l 1,18,-1
 616 1233 l 1,19,-1
 537 1233 l 1,16,-1
EndSplineSet
EndChar

StartChar: Oslash
Encoding: 216 216 145
Width: 1233
Flags: W
LayerCount: 2
Fore
SplineSet
451 354 m 1,0,1
 475 297 475 297 517.5 266.5 c 128,-1,2
 560 236 560 236 616 236 c 0,3,4
 730 236 730 236 782 356.5 c 128,-1,5
 834 477 834 477 834 745 c 0,6,7
 834 773 834 773 833 804 c 128,-1,8
 832 835 832 835 829 888 c 1,9,-1
 451 354 l 1,0,1
772 1153 m 1,10,11
 746 1204 746 1204 707 1229.5 c 128,-1,12
 668 1255 668 1255 616 1255 c 0,13,14
 504 1255 504 1255 451.5 1135 c 128,-1,15
 399 1015 399 1015 399 756 c 2,16,-1
 399 629 l 1,17,-1
 772 1153 l 1,10,11
162 289 m 1,18,19
 127 377 127 377 109.5 490.5 c 128,-1,20
 92 604 92 604 92 745 c 0,21,22
 92 1128 92 1128 224.5 1324 c 128,-1,23
 357 1520 357 1520 616 1520 c 0,24,25
 719 1520 719 1520 802 1489 c 128,-1,26
 885 1458 885 1458 946 1397 c 1,27,-1
 1059 1559 l 1,28,-1
 1221 1444 l 1,29,-1
 1063 1221 l 1,30,31
 1102 1127 1102 1127 1121.5 1007.5 c 128,-1,32
 1141 888 1141 888 1141 745 c 0,33,34
 1141 363 1141 363 1008.5 167 c 128,-1,35
 876 -29 876 -29 616 -29 c 0,36,37
 510 -29 510 -29 425 4.5 c 128,-1,38
 340 38 340 38 276 104 c 1,39,-1
 156 -63 l 1,40,-1
 -6 51 l 1,41,-1
 162 289 l 1,18,19
EndSplineSet
EndChar

StartChar: infinity
Encoding: 8734 8734 146
Width: 2220
VWidth: 2220
Flags: W
HStem: -24.42 71.04<510.6 557.22> -24.42 106.56<1665 1707.18> 910.2 71.04<1649.46 1707.18>
VStem: 124.32 48.84<477.3 510.6> 2044.62 48.84<479.52 526.14>
LayerCount: 2
Fore
SplineSet
1127.76 603.84 m 1,0,1
 1138.73 622.397 1138.73 622.397 1150.46 640.724 c 128,-1,2
 1162.2 659.051 1162.2 659.051 1192.59 699.418 c 128,-1,3
 1222.97 739.785 1222.97 739.785 1254.31 773.484 c 128,-1,4
 1285.64 807.183 1285.64 807.183 1333.67 847.479 c 128,-1,5
 1381.71 887.774 1381.71 887.774 1431 915.564 c 128,-1,6
 1480.29 943.354 1480.29 943.354 1544.34 962.297 c 128,-1,7
 1608.4 981.24 1608.4 981.24 1673.88 981.24 c 0,8,9
 1750.8 981.24 1750.8 981.24 1818.65 952.81 c 128,-1,10
 1886.5 924.38 1886.5 924.38 1936.01 875.511 c 128,-1,11
 1985.53 826.642 1985.53 826.642 2021.54 762.672 c 128,-1,12
 2057.54 698.701 2057.54 698.701 2075.5 626.232 c 128,-1,13
 2093.46 553.762 2093.46 553.762 2093.46 479.52 c 0,14,15
 2093.46 381.423 2093.46 381.423 2062.62 290.288 c 128,-1,16
 2031.77 199.152 2031.77 199.152 1977.37 129.292 c 128,-1,17
 1922.96 59.4312 1922.96 59.4312 1842 17.5056 c 128,-1,18
 1761.04 -24.4199 1761.04 -24.4199 1667.22 -24.4199 c 0,19,20
 1471.37 -24.4199 1471.37 -24.4199 1289.82 128.76 c 0,21,22
 1252.93 160.621 1252.93 160.621 1226.87 189.831 c 128,-1,23
 1200.81 219.04 1200.81 219.04 1090.02 352.98 c 1,24,25
 1079.06 334.427 1079.06 334.427 1067.32 316.096 c 128,-1,26
 1055.58 297.766 1055.58 297.766 1025.19 257.402 c 128,-1,27
 994.807 217.037 994.807 217.037 963.475 183.336 c 128,-1,28
 932.144 149.635 932.144 149.635 884.109 109.341 c 128,-1,29
 836.074 69.0473 836.074 69.0473 786.781 41.2563 c 128,-1,30
 737.489 13.4653 737.489 13.4653 673.435 -5.47732 c 128,-1,31
 609.381 -24.4199 609.381 -24.4199 543.9 -24.4199 c 0,32,33
 466.985 -24.4199 466.985 -24.4199 399.134 4.01007 c 128,-1,34
 331.284 32.4401 331.284 32.4401 281.766 81.309 c 128,-1,35
 232.249 130.178 232.249 130.178 196.244 194.149 c 128,-1,36
 160.239 258.119 160.239 258.119 142.28 330.588 c 128,-1,37
 124.32 403.057 124.32 403.057 124.32 477.3 c 0,38,39
 124.32 575.396 124.32 575.396 155.164 666.532 c 128,-1,40
 186.008 757.667 186.008 757.667 240.413 827.528 c 128,-1,41
 294.817 897.389 294.817 897.389 375.776 939.315 c 128,-1,42
 456.735 981.24 456.735 981.24 550.56 981.24 c 0,43,44
 746.414 981.24 746.414 981.24 927.96 828.06 c 0,45,46
 964.851 796.2 964.851 796.2 990.908 766.992 c 128,-1,47
 1016.97 737.784 1016.97 737.784 1127.76 603.84 c 1,0,1
1185.48 526.14 m 1,48,49
 1207.69 499.165 1207.69 499.165 1291.09 390.07 c 128,-1,50
 1374.48 280.975 1374.48 280.975 1409.7 241.98 c 0,51,52
 1485.12 159.852 1485.12 159.852 1555.88 120.996 c 128,-1,53
 1626.64 82.1396 1626.64 82.1396 1702.74 82.1396 c 0,54,55
 1794.75 82.1396 1794.75 82.1396 1873.37 134.699 c 128,-1,56
 1951.99 187.257 1951.99 187.257 1998.31 278.961 c 128,-1,57
 2044.62 370.664 2044.62 370.664 2044.62 479.52 c 0,58,59
 2044.62 540.432 2044.62 540.432 2030.57 601.024 c 128,-1,60
 2016.52 661.616 2016.52 661.616 1987.06 717.442 c 128,-1,61
 1957.59 773.269 1957.59 773.269 1916.41 816.134 c 128,-1,62
 1875.23 858.999 1875.23 858.999 1816.42 884.6 c 128,-1,63
 1757.62 910.2 1757.62 910.2 1689.42 910.2 c 0,64,65
 1617.56 910.2 1617.56 910.2 1548.74 884.084 c 128,-1,66
 1479.93 857.967 1479.93 857.967 1427.99 819.154 c 128,-1,67
 1376.06 780.341 1376.06 780.341 1327.03 725.877 c 128,-1,68
 1278 671.414 1278 671.414 1246.24 624.717 c 128,-1,69
 1214.47 578.021 1214.47 578.021 1185.48 526.14 c 1,48,49
1032.3 430.68 m 1,70,71
 1010.08 457.658 1010.08 457.658 926.692 566.752 c 128,-1,72
 843.3 675.846 843.3 675.846 808.08 714.84 c 0,73,74
 732.656 796.969 732.656 796.969 661.897 835.824 c 128,-1,75
 591.139 874.68 591.139 874.68 515.04 874.68 c 0,76,77
 423.028 874.68 423.028 874.68 344.407 822.121 c 128,-1,78
 265.786 769.562 265.786 769.562 219.473 677.859 c 128,-1,79
 173.16 586.156 173.16 586.156 173.16 477.3 c 0,80,81
 173.16 416.387 173.16 416.387 187.208 355.795 c 128,-1,82
 201.256 295.204 201.256 295.204 230.721 239.378 c 128,-1,83
 260.186 183.552 260.186 183.552 301.369 140.686 c 128,-1,84
 342.553 97.8212 342.553 97.8212 401.359 72.2206 c 128,-1,85
 460.165 46.6201 460.165 46.6201 528.36 46.6201 c 0,86,87
 600.219 46.6201 600.219 46.6201 669.036 72.7366 c 128,-1,88
 737.853 98.8531 737.853 98.8531 789.788 137.666 c 128,-1,89
 841.724 176.479 841.724 176.479 890.752 230.942 c 128,-1,90
 939.78 285.406 939.78 285.406 971.544 332.102 c 128,-1,91
 1003.31 378.799 1003.31 378.799 1032.3 430.68 c 1,70,71
EndSplineSet
EndChar

StartChar: plusminus
Encoding: 177 177 147
Width: 1233
Flags: HW
LayerCount: 2
Fore
SplineSet
735 1284 m 1,0,-1
 735 930 l 1,1,-1
 1145 930 l 1,2,-1
 1145 694 l 1,3,-1
 735 694 l 1,4,-1
 735 340 l 1,5,-1
 498 340 l 1,6,-1
 498 694 l 1,7,-1
 88 694 l 1,8,-1
 88 930 l 1,9,-1
 498 930 l 1,10,-1
 498 1284 l 1,11,-1
 735 1284 l 1,0,-1
88 238 m 1,12,-1
 1145 238 l 1,13,-1
 1145 0 l 1,14,-1
 88 0 l 1,15,-1
 88 238 l 1,12,-1
EndSplineSet
EndChar

StartChar: lessequal
Encoding: 8804 8804 148
Width: 1724
VWidth: 2220
Flags: W
HStem: -304.14 88.8<222 1505.16>
DStem2: 102 368 150 346 0.904597 0.426267 150 346 102 325 0.904301 -0.426895
LayerCount: 2
Fore
SplineSet
1500.72 1320.9 m 2,0,-1
 333 768.12 l 1,1,-1
 1498.5 217.56 l 2,2,3
 1512.28 210.669 1512.28 210.669 1516.96 208.038 c 128,-1,4
 1521.64 205.406 1521.64 205.406 1528.95 199.61 c 128,-1,5
 1536.26 193.813 1536.26 193.813 1538.47 187.225 c 128,-1,6
 1540.68 180.637 1540.68 180.637 1540.68 170.94 c 0,7,8
 1540.68 152.625 1540.68 152.625 1527.64 139.582 c 128,-1,9
 1514.6 126.54 1514.6 126.54 1496.28 126.54 c 0,10,11
 1482.96 126.54 1482.96 126.54 1458.54 139.86 c 2,12,-1
 226.44 721.5 l 2,13,14
 213.606 727.204 213.606 727.204 206.027 731.763 c 128,-1,15
 198.447 736.323 198.447 736.323 191.353 746.017 c 128,-1,16
 184.26 755.711 184.26 755.711 184.26 768.12 c 0,17,18
 184.26 778.453 184.26 778.453 187.123 785.981 c 128,-1,19
 189.986 793.51 189.986 793.51 197.631 799.585 c 128,-1,20
 205.276 805.66 205.276 805.66 209.878 808.32 c 128,-1,21
 214.48 810.98 214.48 810.98 226.44 816.96 c 2,22,-1
 1460.76 1398.6 l 2,23,24
 1485.18 1411.92 1485.18 1411.92 1496.28 1411.92 c 0,25,26
 1514.6 1411.92 1514.6 1411.92 1527.64 1398.88 c 128,-1,27
 1540.68 1385.84 1540.68 1385.84 1540.68 1367.52 c 0,28,29
 1540.68 1347.92 1540.68 1347.92 1530.85 1338.47 c 128,-1,30
 1521.02 1329.02 1521.02 1329.02 1500.72 1320.9 c 2,0,-1
1467.42 -304.14 m 2,31,-1
 257.52 -304.14 l 2,32,33
 241.286 -304.14 241.286 -304.14 232.198 -303.291 c 128,-1,34
 223.11 -302.441 223.11 -302.441 209.998 -298.745 c 128,-1,35
 196.886 -295.049 196.886 -295.049 190.573 -285.253 c 128,-1,36
 184.26 -275.458 184.26 -275.458 184.26 -259.74 c 128,-1,37
 184.26 -244.043 184.26 -244.043 190.897 -234.23 c 128,-1,38
 197.534 -224.417 197.534 -224.417 211.131 -220.731 c 128,-1,39
 224.729 -217.045 224.729 -217.045 234.048 -216.192 c 128,-1,40
 243.368 -215.34 243.368 -215.34 259.74 -215.34 c 2,41,-1
 1465.2 -215.34 l 2,42,43
 1478.88 -215.34 1478.88 -215.34 1486.27 -215.646 c 128,-1,44
 1493.67 -215.952 1493.67 -215.952 1505.72 -218.23 c 128,-1,45
 1517.77 -220.508 1517.77 -220.508 1524.14 -224.881 c 128,-1,46
 1530.5 -229.254 1530.5 -229.254 1535.59 -238.122 c 128,-1,47
 1540.68 -246.989 1540.68 -246.989 1540.68 -259.74 c 0,48,49
 1540.68 -275.458 1540.68 -275.458 1534.37 -285.253 c 128,-1,50
 1528.05 -295.049 1528.05 -295.049 1514.94 -298.745 c 128,-1,51
 1501.83 -302.441 1501.83 -302.441 1492.74 -303.291 c 128,-1,52
 1483.65 -304.14 1483.65 -304.14 1467.42 -304.14 c 2,31,-1
EndSplineSet
EndChar

StartChar: greaterequal
Encoding: 8805 8805 149
Width: 1724
VWidth: 2220
Flags: W
HStem: -304.14 88.8<222 1502.94>
DStem2: 101 98 266.4 139.86 0.904301 0.426895 121 629 102 595 0.904634 -0.42619
LayerCount: 2
Fore
SplineSet
1498.5 721.5 m 2,0,-1
 266.4 139.86 l 2,1,2
 241.98 126.54 241.98 126.54 228.66 126.54 c 0,3,4
 210.345 126.54 210.345 126.54 197.302 139.582 c 128,-1,5
 184.26 152.625 184.26 152.625 184.26 170.94 c 0,6,7
 184.26 184.408 184.26 184.408 190.92 194.102 c 128,-1,8
 197.58 203.796 197.58 203.796 204.24 207.718 c 128,-1,9
 210.9 211.639 210.9 211.639 224.22 217.56 c 2,10,-1
 1391.94 770.34 l 1,11,-1
 226.44 1320.9 l 2,12,13
 201.722 1332.31 201.722 1332.31 192.991 1340.69 c 128,-1,14
 184.26 1349.07 184.26 1349.07 184.26 1367.52 c 128,-1,15
 184.26 1385.84 184.26 1385.84 197.302 1398.88 c 128,-1,16
 210.345 1411.92 210.345 1411.92 228.66 1411.92 c 0,17,18
 239.76 1411.92 239.76 1411.92 268.62 1396.38 c 2,19,-1
 1498.5 816.96 l 2,20,21
 1510.46 810.98 1510.46 810.98 1515.06 808.32 c 128,-1,22
 1519.66 805.66 1519.66 805.66 1527.31 799.585 c 128,-1,23
 1534.95 793.51 1534.95 793.51 1537.82 785.981 c 128,-1,24
 1540.68 778.453 1540.68 778.453 1540.68 768.12 c 0,25,26
 1540.68 750.341 1540.68 750.341 1529.52 740.332 c 128,-1,27
 1518.35 730.323 1518.35 730.323 1498.5 721.5 c 2,0,-1
1467.42 -304.14 m 2,28,-1
 257.52 -304.14 l 2,29,30
 241.286 -304.14 241.286 -304.14 232.198 -303.291 c 128,-1,31
 223.11 -302.441 223.11 -302.441 209.998 -298.745 c 128,-1,32
 196.886 -295.049 196.886 -295.049 190.573 -285.253 c 128,-1,33
 184.26 -275.458 184.26 -275.458 184.26 -259.74 c 128,-1,34
 184.26 -244.043 184.26 -244.043 190.897 -234.23 c 128,-1,35
 197.534 -224.417 197.534 -224.417 211.131 -220.731 c 128,-1,36
 224.729 -217.045 224.729 -217.045 234.048 -216.192 c 128,-1,37
 243.368 -215.34 243.368 -215.34 259.74 -215.34 c 2,38,-1
 1465.2 -215.34 l 2,39,40
 1478.88 -215.34 1478.88 -215.34 1486.27 -215.646 c 128,-1,41
 1493.67 -215.952 1493.67 -215.952 1505.72 -218.23 c 128,-1,42
 1517.77 -220.508 1517.77 -220.508 1524.14 -224.881 c 128,-1,43
 1530.5 -229.254 1530.5 -229.254 1535.59 -238.122 c 128,-1,44
 1540.68 -246.989 1540.68 -246.989 1540.68 -259.74 c 0,45,46
 1540.68 -275.458 1540.68 -275.458 1534.37 -285.253 c 128,-1,47
 1528.05 -295.049 1528.05 -295.049 1514.94 -298.745 c 128,-1,48
 1501.83 -302.441 1501.83 -302.441 1492.74 -303.291 c 128,-1,49
 1483.65 -304.14 1483.65 -304.14 1467.42 -304.14 c 2,28,-1
EndSplineSet
EndChar

StartChar: yen
Encoding: 165 165 150
Width: 1233
Flags: W
LayerCount: 2
Fore
SplineSet
8 1493 m 1,0,-1
 326 1493 l 1,1,-1
 616 893 l 1,2,-1
 907 1493 l 1,3,-1
 1225 1493 l 1,4,-1
 952 965 l 1,5,-1
 1176 965 l 1,6,-1
 1176 778 l 1,7,-1
 854 778 l 1,8,-1
 768 627 l 1,9,-1
 1176 627 l 1,10,-1
 1176 438 l 1,11,-1
 764 438 l 1,12,-1
 764 0 l 1,13,-1
 469 0 l 1,14,-1
 469 438 l 1,15,-1
 57 438 l 1,16,-1
 57 627 l 1,17,-1
 465 627 l 1,18,-1
 379 778 l 1,19,-1
 57 778 l 1,20,-1
 57 965 l 1,21,-1
 281 965 l 1,22,-1
 8 1493 l 1,0,-1
EndSplineSet
EndChar

StartChar: mu
Encoding: 956 956 151
Width: 1336
VWidth: 2220
Flags: W
HStem: -24.42 48.84<526.14 566.1 1023.42 1063.38> 912.42 44.4G<1084.47 1106.67>
DStem2: 33 -173 189 183 0.241352 0.970438 405 209 460 161 0.243756 0.969837
LayerCount: 2
Fore
SplineSet
512.82 779.22 m 2,0,-1
 419.58 406.26 l 2,1,2
 388.5 281.939 388.5 281.939 388.5 217.56 c 0,3,4
 388.5 125.645 388.5 125.645 429.834 75.0324 c 128,-1,5
 471.167 24.4199 471.167 24.4199 552.78 24.4199 c 0,6,7
 603.246 24.4199 603.246 24.4199 651.233 45.5789 c 128,-1,8
 699.22 66.7379 699.22 66.7379 731.809 96.1814 c 128,-1,9
 764.399 125.625 764.399 125.625 790.223 157.787 c 128,-1,10
 816.047 189.949 816.047 189.949 828.175 211.053 c 128,-1,11
 840.304 232.158 840.304 232.158 841.38 237.54 c 0,12,13
 858.252 293.779 858.252 293.779 899.1 463.98 c 2,14,-1
 1003.44 879.12 l 2,15,16
 1009.6 905.292 1009.6 905.292 1022.22 922.748 c 128,-1,17
 1034.84 940.204 1034.84 940.204 1049.91 946.63 c 128,-1,18
 1064.97 953.057 1064.97 953.057 1073.63 954.938 c 128,-1,19
 1082.28 956.82 1082.28 956.82 1090.02 956.82 c 0,20,21
 1116.8 956.82 1116.8 956.82 1135.6 941.08 c 128,-1,22
 1154.4 925.34 1154.4 925.34 1154.4 896.88 c 0,23,24
 1154.4 889.11 1154.4 889.11 1139.14 825.005 c 128,-1,25
 1123.87 760.9 1123.87 760.9 1121.1 748.14 c 0,26,27
 1090.91 634.911 1090.91 634.911 1083.36 597.18 c 2,28,-1
 1021.2 357.42 l 2,29,30
 1007.88 304.487 1007.88 304.487 992.34 231.157 c 128,-1,31
 976.8 157.828 976.8 157.828 976.8 126.54 c 0,32,33
 976.8 106.616 976.8 106.616 978.975 91.3066 c 128,-1,34
 981.15 75.9977 981.15 75.9977 987.425 59.3756 c 128,-1,35
 993.699 42.7534 993.699 42.7534 1007.9 33.5867 c 128,-1,36
 1022.11 24.4199 1022.11 24.4199 1043.4 24.4199 c 0,37,38
 1065.53 24.4199 1065.53 24.4199 1084.65 34.1511 c 128,-1,39
 1103.77 43.8822 1103.77 43.8822 1119.44 64.3614 c 128,-1,40
 1135.11 84.8406 1135.11 84.8406 1147.51 107.308 c 128,-1,41
 1159.91 129.776 1159.91 129.776 1172.06 164.837 c 128,-1,42
 1184.21 199.898 1184.21 199.898 1192.61 228.566 c 128,-1,43
 1201.01 257.234 1201.01 257.234 1212.12 299.7 c 0,44,45
 1217.55 325.061 1217.55 325.061 1222.53 332.36 c 128,-1,46
 1227.51 339.66 1227.51 339.66 1243.2 339.66 c 0,47,48
 1269.84 339.66 1269.84 339.66 1269.84 317.46 c 0,49,50
 1269.84 307.121 1269.84 307.121 1248.51 227.742 c 128,-1,51
 1227.17 148.363 1227.17 148.363 1203.24 97.6797 c 0,52,53
 1142.19 -24.4199 1142.19 -24.4199 1038.96 -24.4199 c 0,54,55
 964.706 -24.4199 964.706 -24.4199 909.331 19.6179 c 128,-1,56
 853.957 63.6557 853.957 63.6557 839.16 137.64 c 1,57,58
 816.912 111.684 816.912 111.684 802.387 96.0717 c 128,-1,59
 787.862 80.4591 787.862 80.4591 757.491 54.5865 c 128,-1,60
 727.121 28.714 727.121 28.714 699.095 13.8786 c 128,-1,61
 671.069 -0.956831 671.069 -0.956831 629.691 -12.6884 c 128,-1,62
 588.312 -24.4199 588.312 -24.4199 543.9 -24.4199 c 0,63,64
 494.632 -24.4199 494.632 -24.4199 434.941 -9.70739 c 128,-1,65
 375.25 5.00513 375.25 5.00513 328.56 44.4004 c 1,66,67
 216.184 -411.02 216.184 -411.02 206.46 -432.9 c 1,68,69
 175.374 -479.52 175.374 -479.52 128.76 -479.52 c 0,70,71
 101.01 -479.52 101.01 -479.52 83.8046 -462.315 c 128,-1,72
 66.5996 -445.11 66.5996 -445.11 66.5996 -419.58 c 0,73,74
 66.5996 -410.7 66.5996 -410.7 73.2598 -384.06 c 2,75,-1
 392.94 901.32 l 2,76,77
 399.842 928.161 399.842 928.161 413.607 946.204 c 128,-1,78
 427.373 964.248 427.373 964.248 443.035 970.8 c 128,-1,79
 458.698 977.353 458.698 977.353 467.165 979.296 c 128,-1,80
 475.632 981.24 475.632 981.24 481.74 981.24 c 0,81,82
 510.555 981.24 510.555 981.24 528.338 965.193 c 128,-1,83
 546.12 949.145 546.12 949.145 546.12 921.3 c 0,84,85
 546.12 919.084 546.12 919.084 512.82 779.22 c 2,0,-1
EndSplineSet
EndChar

StartChar: partialdiff
Encoding: 8706 8706 152
Width: 1176
VWidth: 2220
Flags: W
HStem: -48.84 62.16<477.3 517.26> 965.7 48.84<741.48 781.44> 1161.06 195.36<437.34 457.32> 1534.02 55.5<737.04 801.42>
VStem: 88.8 170.94<264.18 346.32> 352.98 204.24<1238.76 1278.72> 1090.02 166.5<1014.54 1132.2>
LayerCount: 2
Fore
SplineSet
1027.86 752.58 m 1,0,-1
 1030.08 752.58 l 1,1,2
 1090.02 983.775 1090.02 983.775 1090.02 1132.2 c 0,3,4
 1090.02 1235.69 1090.02 1235.69 1063.58 1315.15 c 128,-1,5
 1037.13 1394.61 1037.13 1394.61 991.692 1441.15 c 128,-1,6
 946.251 1487.69 946.251 1487.69 890.902 1510.86 c 128,-1,7
 835.553 1534.02 835.553 1534.02 772.56 1534.02 c 0,8,9
 747.777 1534.02 747.777 1534.02 723.554 1531.57 c 128,-1,10
 699.33 1529.13 699.33 1529.13 660.767 1518.56 c 128,-1,11
 622.203 1507.99 622.203 1507.99 588.649 1490.16 c 128,-1,12
 555.094 1472.32 555.094 1472.32 517.87 1437.72 c 128,-1,13
 480.645 1403.12 480.645 1403.12 452.88 1356.42 c 1,14,15
 468.42 1356.42 468.42 1356.42 477.931 1355.91 c 128,-1,16
 487.441 1355.39 487.441 1355.39 504.393 1351.34 c 128,-1,17
 521.345 1347.28 521.345 1347.28 531.281 1339.75 c 128,-1,18
 541.218 1332.21 541.218 1332.21 549.219 1316.53 c 128,-1,19
 557.22 1300.85 557.22 1300.85 557.22 1278.72 c 0,20,21
 557.22 1236.67 557.22 1236.67 523.057 1198.87 c 128,-1,22
 488.895 1161.06 488.895 1161.06 437.34 1161.06 c 0,23,24
 392.524 1161.06 392.524 1161.06 372.752 1185.13 c 128,-1,25
 352.98 1209.2 352.98 1209.2 352.98 1238.76 c 0,26,27
 352.98 1253.46 352.98 1253.46 359.348 1277.81 c 128,-1,28
 365.716 1302.17 365.716 1302.17 380.961 1335.43 c 128,-1,29
 396.206 1368.69 396.206 1368.69 418.285 1402.96 c 128,-1,30
 440.364 1437.23 440.364 1437.23 475.197 1470.99 c 128,-1,31
 510.031 1504.74 510.031 1504.74 551.938 1530.91 c 128,-1,32
 593.844 1557.08 593.844 1557.08 652.383 1573.3 c 128,-1,33
 710.922 1589.52 710.922 1589.52 777 1589.52 c 0,34,35
 878.93 1589.52 878.93 1589.52 967.044 1548.89 c 128,-1,36
 1055.16 1508.26 1055.16 1508.26 1119.24 1434.82 c 128,-1,37
 1183.31 1361.38 1183.31 1361.38 1219.92 1252.87 c 128,-1,38
 1256.52 1144.36 1256.52 1144.36 1256.52 1014.54 c 0,39,40
 1256.52 944.201 1256.52 944.201 1242.53 855.627 c 128,-1,41
 1228.53 767.053 1228.53 767.053 1198.09 664.943 c 128,-1,42
 1167.65 562.833 1167.65 562.833 1124.39 462.681 c 128,-1,43
 1081.14 362.529 1081.14 362.529 1017.59 269.783 c 128,-1,44
 954.039 177.038 954.039 177.038 879.196 106.394 c 128,-1,45
 804.353 35.7495 804.353 35.7495 705.366 -6.54517 c 128,-1,46
 606.378 -48.8398 606.378 -48.8398 497.28 -48.8398 c 0,47,48
 408.454 -48.8398 408.454 -48.8398 335.945 -20.7314 c 128,-1,49
 263.436 7.37696 263.436 7.37696 218.736 50.3908 c 128,-1,50
 174.035 93.4046 174.035 93.4046 143.569 147.988 c 128,-1,51
 113.102 202.572 113.102 202.572 100.951 252.144 c 128,-1,52
 88.7998 301.717 88.7998 301.717 88.7998 346.32 c 0,53,54
 88.7998 373.437 88.7998 373.437 91.5888 403.201 c 128,-1,55
 94.3777 432.965 94.3777 432.965 106.364 484.39 c 128,-1,56
 118.35 535.815 118.35 535.815 138.369 584.673 c 128,-1,57
 158.387 633.53 158.387 633.53 197.366 693.568 c 128,-1,58
 236.345 753.605 236.345 753.605 288.6 805.86 c 0,59,60
 408.536 925.796 408.536 925.796 517.046 970.168 c 128,-1,61
 625.556 1014.54 625.556 1014.54 741.48 1014.54 c 0,62,63
 804.224 1014.54 804.224 1014.54 855.747 993.244 c 128,-1,64
 907.27 971.947 907.27 971.947 941.69 934.896 c 128,-1,65
 976.111 897.844 976.111 897.844 997.688 851.857 c 128,-1,66
 1019.27 805.87 1019.27 805.87 1027.86 752.58 c 1,0,-1
503.94 13.3203 m 0,67,68
 574.331 13.3203 574.331 13.3203 638.164 41.4957 c 128,-1,69
 701.997 69.671 701.997 69.671 749.628 116.034 c 128,-1,70
 797.259 162.398 797.259 162.398 837.718 222.539 c 128,-1,71
 878.177 282.68 878.177 282.68 905.3 346.008 c 128,-1,72
 932.423 409.336 932.423 409.336 951.527 472.085 c 128,-1,73
 970.63 534.834 970.63 534.834 979.265 585.768 c 128,-1,74
 987.9 636.703 987.9 636.703 987.9 672.66 c 0,75,76
 987.9 688.107 987.9 688.107 987.108 703.312 c 128,-1,77
 986.316 718.517 986.316 718.517 981.217 749.733 c 128,-1,78
 976.118 780.949 976.118 780.949 967.264 807.076 c 128,-1,79
 958.41 833.203 958.41 833.203 939.898 863.904 c 128,-1,80
 921.386 894.605 921.386 894.605 896.315 915.811 c 128,-1,81
 871.244 937.016 871.244 937.016 831.163 951.358 c 128,-1,82
 791.083 965.7 791.083 965.7 741.48 965.7 c 0,83,84
 544.912 965.7 544.912 965.7 406.26 768.12 c 0,85,86
 346.457 680.603 346.457 680.603 303.098 505.74 c 128,-1,87
 259.74 330.877 259.74 330.877 259.74 264.18 c 0,88,89
 259.74 253.623 259.74 253.623 260.284 242.863 c 128,-1,90
 260.828 232.103 260.828 232.103 265.604 205.169 c 128,-1,91
 270.38 178.234 270.38 178.234 278.795 155.695 c 128,-1,92
 287.21 133.155 287.21 133.155 305.473 105.496 c 128,-1,93
 323.736 77.8362 323.736 77.8362 348.566 58.7397 c 128,-1,94
 373.397 39.6432 373.397 39.6432 413.69 26.4818 c 128,-1,95
 453.984 13.3203 453.984 13.3203 503.94 13.3203 c 0,67,68
EndSplineSet
EndChar

StartChar: summation
Encoding: 8721 8721 153
Width: 2342
VWidth: 2220
Flags: W
HStem: -444 122.1<310.8 2026.86> 1687.2 88.8<186.48 1369.74>
DStem2: 164 760 56 768 0.588076 -0.808806 66 -173 140 -145 0.62879 0.777575
LayerCount: 2
Fore
SplineSet
1081.14 630.48 m 2,0,-1
 310.8 -321.9 l 1,1,-1
 1254.3 -321.9 l 2,2,3
 1563.33 -321.9 1563.33 -321.9 1769.34 -257.52 c 0,4,5
 1911.87 -208.892 1911.87 -208.892 2016.4 -112.069 c 128,-1,6
 2120.94 -15.2458 2120.94 -15.2458 2162.28 108.78 c 1,7,-1
 2217.78 108.78 l 1,8,-1
 2026.86 -444 l 1,9,-1
 186.48 -444 l 2,10,11
 167.749 -444 167.749 -444 159.632 -443.587 c 128,-1,12
 151.515 -443.173 151.515 -443.173 142.149 -440.979 c 128,-1,13
 132.784 -438.785 132.784 -438.785 129.662 -433.666 c 128,-1,14
 126.54 -428.547 126.54 -428.547 126.54 -419.58 c 0,15,16
 126.54 -409.034 126.54 -409.034 146.52 -384.06 c 2,17,-1
 934.62 590.52 l 1,18,-1
 124.32 1704.96 l 1,19,20
 124.32 1756.5 124.32 1756.5 132.889 1766.25 c 128,-1,21
 141.458 1776 141.458 1776 186.48 1776 c 2,22,-1
 2026.86 1776 l 1,23,-1
 2217.78 1256.52 l 1,24,-1
 2162.28 1256.52 l 1,25,26
 2137.1 1323.78 2137.1 1323.78 2097.6 1380.52 c 128,-1,27
 2058.1 1437.27 2058.1 1437.27 2013.34 1478.4 c 128,-1,28
 1968.59 1519.53 1968.59 1519.53 1910.61 1552.58 c 128,-1,29
 1852.63 1585.63 1852.63 1585.63 1798.95 1607.06 c 128,-1,30
 1745.26 1628.49 1745.26 1628.49 1678.89 1644.17 c 128,-1,31
 1612.52 1659.85 1612.52 1659.85 1559.99 1667.9 c 128,-1,32
 1507.46 1675.95 1507.46 1675.95 1442.78 1680.58 c 128,-1,33
 1378.11 1685.2 1378.11 1685.2 1336.82 1686.2 c 128,-1,34
 1295.53 1687.2 1295.53 1687.2 1243.2 1687.2 c 2,35,-1
 364.08 1687.2 l 1,36,-1
 1085.58 697.08 l 2,37,38
 1090.58 689.483 1090.58 689.483 1093.63 685.043 c 128,-1,39
 1096.68 680.603 1096.68 680.603 1098.35 677.377 c 128,-1,40
 1100.01 674.151 1100.01 674.151 1100.57 671.793 c 128,-1,41
 1101.12 669.434 1101.12 669.434 1101.12 666 c 0,42,43
 1101.12 656.169 1101.12 656.169 1081.14 630.48 c 2,0,-1
EndSplineSet
EndChar

StartChar: product
Encoding: 8719 8719 154
Width: 2095
VWidth: 2220
Flags: W
HStem: -444 88.8<124.32 177.259 796.98 796.98 1296.48 1349.42 1969.14 1969.14> 1687.2 88.8<124.32 177.259 124.32 1525.14 124.32 1969.14>
VStem: 352.98 215.34<-227.361 1547.34> 1525.14 215.34<-227.361 1547.34>
LayerCount: 2
Fore
SplineSet
1740.48 1511.82 m 2,0,-1
 1740.48 -179.82 l 2,1,2
 1740.48 -195.139 1740.48 -195.139 1740.74 -203.633 c 128,-1,3
 1741 -212.126 1741 -212.126 1743.04 -228.555 c 128,-1,4
 1745.08 -244.985 1745.08 -244.985 1748.9 -255.146 c 128,-1,5
 1752.71 -265.308 1752.71 -265.308 1760.61 -280.105 c 128,-1,6
 1768.5 -294.903 1768.5 -294.903 1779.64 -304.248 c 128,-1,7
 1790.77 -313.593 1790.77 -313.593 1808.28 -324.274 c 128,-1,8
 1825.8 -334.955 1825.8 -334.955 1848.01 -340.998 c 128,-1,9
 1870.23 -347.042 1870.23 -347.042 1901.13 -351.121 c 128,-1,10
 1932.03 -355.2 1932.03 -355.2 1969.14 -355.2 c 1,11,-1
 1969.14 -444 l 1,12,-1
 1296.48 -444 l 1,13,-1
 1296.48 -355.2 l 1,14,15
 1333.6 -355.2 1333.6 -355.2 1364.49 -351.121 c 128,-1,16
 1395.39 -347.042 1395.39 -347.042 1417.61 -340.998 c 128,-1,17
 1439.82 -334.955 1439.82 -334.955 1457.34 -324.274 c 128,-1,18
 1474.85 -313.593 1474.85 -313.593 1485.98 -304.248 c 128,-1,19
 1497.12 -294.903 1497.12 -294.903 1505.01 -280.105 c 128,-1,20
 1512.91 -265.308 1512.91 -265.308 1516.72 -255.146 c 128,-1,21
 1520.54 -244.985 1520.54 -244.985 1522.58 -228.555 c 128,-1,22
 1524.62 -212.126 1524.62 -212.126 1524.88 -203.633 c 128,-1,23
 1525.14 -195.139 1525.14 -195.139 1525.14 -179.82 c 2,24,-1
 1525.14 1687.2 l 1,25,-1
 568.32 1687.2 l 1,26,-1
 568.32 -179.82 l 2,27,28
 568.32 -195.141 568.32 -195.141 568.582 -203.633 c 128,-1,29
 568.843 -212.124 568.843 -212.124 570.882 -228.555 c 128,-1,30
 572.921 -244.986 572.921 -244.986 576.737 -255.146 c 128,-1,31
 580.552 -265.307 580.552 -265.307 588.447 -280.105 c 128,-1,32
 596.342 -294.904 596.342 -294.904 607.476 -304.248 c 128,-1,33
 618.61 -313.593 618.61 -313.593 636.124 -324.274 c 128,-1,34
 653.638 -334.955 653.638 -334.955 675.854 -340.999 c 128,-1,35
 698.07 -347.042 698.07 -347.042 728.968 -351.121 c 128,-1,36
 759.866 -355.2 759.866 -355.2 796.98 -355.2 c 1,37,-1
 796.98 -444 l 1,38,-1
 124.32 -444 l 1,39,-1
 124.32 -355.2 l 1,40,41
 161.435 -355.2 161.435 -355.2 192.333 -351.121 c 128,-1,42
 223.23 -347.042 223.23 -347.042 245.447 -340.999 c 128,-1,43
 267.663 -334.955 267.663 -334.955 285.177 -324.274 c 128,-1,44
 302.691 -313.593 302.691 -313.593 313.825 -304.248 c 128,-1,45
 324.959 -294.904 324.959 -294.904 332.854 -280.105 c 128,-1,46
 340.748 -265.307 340.748 -265.307 344.564 -255.146 c 128,-1,47
 348.38 -244.986 348.38 -244.986 350.419 -228.555 c 128,-1,48
 352.458 -212.124 352.458 -212.124 352.719 -203.633 c 128,-1,49
 352.98 -195.141 352.98 -195.141 352.98 -179.82 c 2,50,-1
 352.98 1511.82 l 2,51,52
 352.98 1527.14 352.98 1527.14 352.719 1535.63 c 128,-1,53
 352.458 1544.12 352.458 1544.12 350.419 1560.56 c 128,-1,54
 348.38 1576.99 348.38 1576.99 344.564 1587.15 c 128,-1,55
 340.748 1597.31 340.748 1597.31 332.854 1612.11 c 128,-1,56
 324.959 1626.9 324.959 1626.9 313.825 1636.25 c 128,-1,57
 302.691 1645.59 302.691 1645.59 285.177 1656.27 c 128,-1,58
 267.663 1666.96 267.663 1666.96 245.447 1673 c 128,-1,59
 223.23 1679.04 223.23 1679.04 192.333 1683.12 c 128,-1,60
 161.435 1687.2 161.435 1687.2 124.32 1687.2 c 1,61,-1
 124.32 1776 l 1,62,-1
 1969.14 1776 l 1,63,-1
 1969.14 1687.2 l 1,64,65
 1932.02 1687.2 1932.02 1687.2 1901.13 1683.12 c 128,-1,66
 1870.23 1679.04 1870.23 1679.04 1848.01 1673 c 128,-1,67
 1825.8 1666.95 1825.8 1666.95 1808.28 1656.27 c 128,-1,68
 1790.77 1645.59 1790.77 1645.59 1779.64 1636.25 c 128,-1,69
 1768.5 1626.9 1768.5 1626.9 1760.61 1612.11 c 128,-1,70
 1752.71 1597.31 1752.71 1597.31 1748.9 1587.15 c 128,-1,71
 1745.08 1576.98 1745.08 1576.98 1743.04 1560.56 c 128,-1,72
 1741 1544.13 1741 1544.13 1740.74 1535.63 c 128,-1,73
 1740.48 1527.14 1740.48 1527.14 1740.48 1511.82 c 2,0,-1
EndSplineSet
EndChar

StartChar: pi
Encoding: 960 960 155
Width: 1265
VWidth: 2220
Flags: W
HStem: -24.42 46.62G<278.61 326.34 826.95 865.8> 828.06 128.76<377.4 530.58 426.24 839.16 426.24 1174.38>
VStem: 745.92 111<255.3 475.08>
LayerCount: 2
Fore
SplineSet
588.3 828.06 m 1,0,-1
 463.98 337.44 l 2,1,2
 427.196 195.965 427.196 195.965 404.04 119.88 c 0,3,4
 400.174 107.559 400.174 107.559 396.257 95.8796 c 128,-1,5
 392.34 84.2002 392.34 84.2002 388.66 73.3311 c 128,-1,6
 384.98 62.462 384.98 62.462 380.903 52.4875 c 128,-1,7
 376.826 42.5131 376.826 42.5131 372.64 33.602 c 128,-1,8
 368.454 24.691 368.454 24.691 363.525 16.9276 c 128,-1,9
 358.596 9.16427 358.596 9.16427 353.211 2.71739 c 128,-1,10
 347.826 -3.72949 347.826 -3.72949 341.352 -8.77556 c 128,-1,11
 334.877 -13.8216 334.877 -13.8216 327.601 -17.2981 c 128,-1,12
 320.325 -20.7747 320.325 -20.7747 311.612 -22.5973 c 128,-1,13
 302.9 -24.4199 302.9 -24.4199 293.04 -24.4199 c 0,14,15
 268.223 -24.4199 268.223 -24.4199 248.442 -9.03428 c 128,-1,16
 228.66 6.35137 228.66 6.35137 228.66 35.5195 c 0,17,18
 228.66 48.2847 228.66 48.2847 231.284 56.8117 c 128,-1,19
 233.907 65.3387 233.907 65.3387 246.42 88.7998 c 0,20,21
 305.474 216.75 305.474 216.75 347.877 314.61 c 128,-1,22
 390.28 412.471 390.28 412.471 443.923 557.85 c 128,-1,23
 497.567 703.229 497.567 703.229 530.58 828.06 c 1,24,-1
 404.04 828.06 l 2,25,26
 386.897 828.06 386.897 828.06 374.563 827.07 c 128,-1,27
 362.229 826.081 362.229 826.081 336.115 821.926 c 128,-1,28
 310 817.771 310 817.771 286.482 806.494 c 128,-1,29
 262.964 795.217 262.964 795.217 234.406 777.609 c 128,-1,30
 205.847 760 205.847 760 176.941 728.938 c 128,-1,31
 148.036 697.877 148.036 697.877 122.1 657.12 c 0,32,33
 117.278 650.46 117.278 650.46 113.428 645.465 c 128,-1,34
 109.578 640.47 109.578 640.47 106.005 637.14 c 128,-1,35
 102.432 633.81 102.432 633.81 97.7494 632.145 c 128,-1,36
 93.0666 630.48 93.0666 630.48 86.5801 630.48 c 0,37,38
 74.6602 630.48 74.6602 630.48 68.0603 636.154 c 128,-1,39
 61.4604 641.827 61.4604 641.827 60.7004 645.527 c 128,-1,40
 59.9404 649.227 59.9404 649.227 59.9404 652.68 c 0,41,42
 59.9404 663.978 59.9404 663.978 101.824 729.451 c 128,-1,43
 143.707 794.924 143.707 794.924 195.36 852.48 c 0,44,45
 229.744 889.208 229.744 889.208 264.014 912.402 c 128,-1,46
 298.284 935.596 298.284 935.596 330.877 944.178 c 128,-1,47
 363.47 952.76 363.47 952.76 381.535 954.79 c 128,-1,48
 399.6 956.82 399.6 956.82 426.24 956.82 c 2,49,-1
 1169.94 956.82 l 2,50,51
 1186.99 956.82 1186.99 956.82 1195.9 956.446 c 128,-1,52
 1204.8 956.073 1204.8 956.073 1218.9 953.358 c 128,-1,53
 1232.99 950.643 1232.99 950.643 1240.15 945.364 c 128,-1,54
 1247.32 940.085 1247.32 940.085 1253.03 929.488 c 128,-1,55
 1258.74 918.892 1258.74 918.892 1258.74 903.54 c 0,56,57
 1258.74 828.06 1258.74 828.06 1149.96 828.06 c 2,58,-1
 896.88 828.06 l 1,59,60
 856.92 639.158 856.92 639.158 856.92 475.08 c 0,61,62
 856.92 268.62 856.92 268.62 921.3 108.78 c 0,63,64
 934.62 77.7002 934.62 77.7002 934.62 59.9404 c 0,65,66
 934.62 27.1772 934.62 27.1772 906.057 1.37866 c 128,-1,67
 877.495 -24.4199 877.495 -24.4199 843.6 -24.4199 c 0,68,69
 815.315 -24.4199 815.315 -24.4199 797.208 -2.8455 c 128,-1,70
 779.101 18.7289 779.101 18.7289 763.68 86.5801 c 0,71,72
 745.92 162.06 745.92 162.06 745.92 255.3 c 0,73,74
 745.92 361.239 745.92 361.239 763.086 462.553 c 128,-1,75
 780.252 563.867 780.252 563.867 839.16 828.06 c 1,76,-1
 588.3 828.06 l 1,0,-1
EndSplineSet
EndChar

StartChar: integral
Encoding: 8747 8747 156
Width: 1149
VWidth: 2220
Flags: W
HStem: -479.52 48.84<279.72 299.7> -479.52 270.84<205.35 287.49> 1318.68 270.84<862.47 944.61> 1540.68 48.84<850.26 868.02>
LayerCount: 2
Fore
SplineSet
949.05 1498.5 m 1,0,1
 944.855 1504.79 944.855 1504.79 936.708 1512.84 c 128,-1,2
 928.561 1520.88 928.561 1520.88 908.112 1530.78 c 128,-1,3
 887.663 1540.68 887.663 1540.68 864.69 1540.68 c 128,-1,4
 841.522 1540.68 841.522 1540.68 822.727 1530.26 c 128,-1,5
 803.932 1519.84 803.932 1519.84 790.381 1498.56 c 128,-1,6
 776.831 1477.28 776.831 1477.28 766.877 1453.59 c 128,-1,7
 756.923 1429.9 756.923 1429.9 749.27 1394.38 c 128,-1,8
 741.616 1358.86 741.616 1358.86 736.927 1329.56 c 128,-1,9
 732.238 1300.25 732.238 1300.25 727.05 1258.74 c 0,10,11
 716.391 1184.12 716.391 1184.12 691.53 932.4 c 0,12,13
 660.111 581.078 660.111 581.078 600.682 230.852 c 128,-1,14
 541.252 -119.375 541.252 -119.375 511.71 -237.54 c 0,15,16
 499.248 -286.498 499.248 -286.498 480.906 -327.389 c 128,-1,17
 462.565 -368.279 462.565 -368.279 435.85 -403.789 c 128,-1,18
 409.135 -439.298 409.135 -439.298 371.086 -459.409 c 128,-1,19
 333.037 -479.52 333.037 -479.52 287.49 -479.52 c 0,20,21
 210.571 -479.52 210.571 -479.52 162.45 -424.204 c 128,-1,22
 114.33 -368.888 114.33 -368.888 114.33 -301.92 c 0,23,24
 114.33 -254.771 114.33 -254.771 142.158 -231.725 c 128,-1,25
 169.987 -208.68 169.987 -208.68 205.35 -208.68 c 128,-1,26
 240.668 -208.68 240.668 -208.68 267.409 -233.193 c 128,-1,27
 294.15 -257.705 294.15 -257.705 294.15 -297.48 c 0,28,29
 294.15 -345.311 294.15 -345.311 266.482 -365.853 c 128,-1,30
 238.813 -386.395 238.813 -386.395 200.91 -388.5 c 1,31,32
 205.105 -394.793 205.105 -394.793 213.252 -402.838 c 128,-1,33
 221.399 -410.883 221.399 -410.883 241.848 -420.782 c 128,-1,34
 262.297 -430.68 262.297 -430.68 285.27 -430.68 c 0,35,36
 307.837 -430.68 307.837 -430.68 326.291 -420.605 c 128,-1,37
 344.746 -410.531 344.746 -410.531 357.93 -390.527 c 128,-1,38
 371.115 -370.523 371.115 -370.523 380.866 -348.229 c 128,-1,39
 390.618 -325.935 390.618 -325.935 397.89 -293.669 c 128,-1,40
 405.162 -261.403 405.162 -261.403 409.542 -235.153 c 128,-1,41
 413.921 -208.903 413.921 -208.903 418.47 -173.16 c 0,42,43
 432.574 -83.8353 432.574 -83.8353 458.43 177.6 c 0,44,45
 489.849 528.922 489.849 528.922 549.278 879.148 c 128,-1,46
 608.708 1229.37 608.708 1229.37 638.25 1347.54 c 0,47,48
 650.712 1396.5 650.712 1396.5 669.054 1437.39 c 128,-1,49
 687.395 1478.28 687.395 1478.28 714.11 1513.79 c 128,-1,50
 740.825 1549.3 740.825 1549.3 778.874 1569.41 c 128,-1,51
 816.923 1589.52 816.923 1589.52 862.47 1589.52 c 0,52,53
 939.389 1589.52 939.389 1589.52 987.51 1534.2 c 128,-1,54
 1035.63 1478.89 1035.63 1478.89 1035.63 1411.92 c 0,55,56
 1035.63 1364.77 1035.63 1364.77 1007.8 1341.73 c 128,-1,57
 979.973 1318.68 979.973 1318.68 944.61 1318.68 c 128,-1,58
 909.292 1318.68 909.292 1318.68 882.551 1343.19 c 128,-1,59
 855.81 1367.71 855.81 1367.71 855.81 1407.48 c 0,60,61
 855.81 1455.31 855.81 1455.31 883.478 1475.85 c 128,-1,62
 911.147 1496.39 911.147 1496.39 949.05 1498.5 c 1,0,1
EndSplineSet
EndChar

StartChar: ordfeminine
Encoding: 170 170 157
Width: 1233
Flags: W
LayerCount: 2
Fore
SplineSet
786 1049 m 2,0,-1
 786 1079 l 1,1,-1
 684 1079 l 2,2,3
 575 1079 575 1079 525 1053 c 128,-1,4
 475 1027 475 1027 475 971 c 0,5,6
 475 922 475 922 505.5 894 c 128,-1,7
 536 866 536 866 590 866 c 0,8,9
 676 866 676 866 731 917.5 c 128,-1,10
 786 969 786 969 786 1049 c 2,0,-1
786 809 m 1,11,12
 736 752 736 752 675.5 725 c 128,-1,13
 615 698 615 698 537 698 c 0,14,15
 407 698 407 698 331.5 766.5 c 128,-1,16
 256 835 256 835 256 952 c 0,17,18
 256 1086 256 1086 348.5 1152.5 c 128,-1,19
 441 1219 441 1219 629 1219 c 2,20,-1
 786 1219 l 1,21,-1
 786 1245 l 2,22,23
 786 1294 786 1294 740.5 1318.5 c 128,-1,24
 695 1343 695 1343 604 1343 c 0,25,26
 522 1343 522 1343 450.5 1326.5 c 128,-1,27
 379 1310 379 1310 315 1276 c 1,28,-1
 315 1464 l 1,29,30
 388 1492 388 1492 462 1506 c 128,-1,31
 536 1520 536 1520 612 1520 c 0,32,33
 801 1520 801 1520 890 1434 c 128,-1,34
 979 1348 979 1348 979 1165 c 2,35,-1
 979 717 l 1,36,-1
 786 717 l 1,37,-1
 786 809 l 1,11,12
293 598 m 1,38,-1
 981 598 l 1,39,-1
 981 428 l 1,40,-1
 293 428 l 1,41,-1
 293 598 l 1,38,-1
EndSplineSet
EndChar

StartChar: ordmasculine
Encoding: 186 186 158
Width: 1233
Flags: W
LayerCount: 2
Fore
SplineSet
293 598 m 1,0,-1
 981 598 l 1,1,-1
 981 428 l 1,2,-1
 293 428 l 1,3,-1
 293 598 l 1,0,-1
274 1108 m 256,4,5
 274 1297 274 1297 372.5 1408.5 c 128,-1,6
 471 1520 471 1520 637 1520 c 256,7,8
 803 1520 803 1520 901 1409 c 128,-1,9
 999 1298 999 1298 999 1108 c 0,10,11
 999 919 999 919 901.5 808.5 c 128,-1,12
 804 698 804 698 637 698 c 0,13,14
 471 698 471 698 372.5 808.5 c 128,-1,15
 274 919 274 919 274 1108 c 256,4,5
637 1343 m 256,16,17
 564 1343 564 1343 521.5 1280 c 128,-1,18
 479 1217 479 1217 479 1108 c 256,19,20
 479 999 479 999 521.5 936.5 c 128,-1,21
 564 874 564 874 637 874 c 256,22,23
 710 874 710 874 752.5 936.5 c 128,-1,24
 795 999 795 999 795 1108 c 256,25,26
 795 1217 795 1217 752.5 1280 c 128,-1,27
 710 1343 710 1343 637 1343 c 256,16,17
EndSplineSet
EndChar

StartChar: Omega
Encoding: 937 937 159
Width: 1602
VWidth: 2220
Flags: W
HStem: 0 144.3<339.66 517.26 1083.36 1260.96 1260.96 1325.34> 1516.26 48.84<698.19 905.76>
VStem: 124.32 228.66<926.85 1159.95> 517.26 64.38 1018.98 64.38 1247.64 228.66<926.85 1162.17>
LayerCount: 2
Fore
SplineSet
1502.94 359.64 m 1,0,-1
 1429.68 0 l 1,1,-1
 1076.7 0 l 2,2,3
 1036.74 0 1036.74 0 1027.86 6.4303 c 128,-1,4
 1018.98 12.8606 1018.98 12.8606 1018.98 46.6201 c 0,5,6
 1018.98 200.694 1018.98 200.694 1123.32 492.84 c 0,7,8
 1155.51 583.861 1155.51 583.861 1171.25 631.312 c 128,-1,9
 1186.98 678.763 1186.98 678.763 1208.28 753.031 c 128,-1,10
 1229.58 827.3 1229.58 827.3 1238.61 888.901 c 128,-1,11
 1247.64 950.502 1247.64 950.502 1247.64 1010.1 c 0,12,13
 1247.64 1110.54 1247.64 1110.54 1221.42 1195.31 c 128,-1,14
 1195.2 1280.08 1195.2 1280.08 1151.21 1338.3 c 128,-1,15
 1107.23 1396.52 1107.23 1396.52 1049.08 1437.41 c 128,-1,16
 990.925 1478.31 990.925 1478.31 927.719 1497.28 c 128,-1,17
 864.513 1516.26 864.513 1516.26 799.2 1516.26 c 0,18,19
 736.741 1516.26 736.741 1516.26 675.129 1498.18 c 128,-1,20
 613.517 1480.09 613.517 1480.09 554.946 1439.93 c 128,-1,21
 496.376 1399.77 496.376 1399.77 451.779 1342.17 c 128,-1,22
 407.183 1284.57 407.183 1284.57 380.082 1198.68 c 128,-1,23
 352.98 1112.78 352.98 1112.78 352.98 1010.1 c 0,24,25
 352.98 951.105 352.98 951.105 362.45 887.683 c 128,-1,26
 371.92 824.26 371.92 824.26 390.859 757.371 c 128,-1,27
 409.797 690.482 409.797 690.482 424.124 647.16 c 128,-1,28
 438.451 603.837 438.451 603.837 461.76 539.46 c 0,29,30
 496.568 442.603 496.568 442.603 517.452 378.517 c 128,-1,31
 538.336 314.431 538.336 314.431 559.988 216.443 c 128,-1,32
 581.64 118.455 581.64 118.455 581.64 46.6201 c 0,33,34
 581.64 12.9036 581.64 12.9036 573.037 6.45182 c 128,-1,35
 564.435 0 564.435 0 526.14 0 c 2,36,-1
 170.94 0 l 1,37,-1
 97.6797 359.64 l 1,38,-1
 153.18 359.64 l 1,39,40
 176.427 243.41 176.427 243.41 193.14 195.36 c 0,41,42
 198.319 179.822 198.319 179.822 202.969 172.825 c 128,-1,43
 207.619 165.828 207.619 165.828 221.918 157.851 c 128,-1,44
 236.218 149.874 236.218 149.874 264.366 147.087 c 128,-1,45
 292.514 144.3 292.514 144.3 339.66 144.3 c 2,46,-1
 517.26 144.3 l 1,47,48
 506.835 189.208 506.835 189.208 489.773 232.19 c 128,-1,49
 472.711 275.172 472.711 275.172 442.454 327.597 c 128,-1,50
 412.197 380.021 412.197 380.021 389.526 415.479 c 128,-1,51
 366.855 450.937 366.855 450.937 319.68 521.7 c 0,52,53
 273.744 591.092 273.744 591.092 244.002 641.661 c 128,-1,54
 214.259 692.229 214.259 692.229 184.007 755.968 c 128,-1,55
 153.755 819.708 153.755 819.708 139.038 882.253 c 128,-1,56
 124.32 944.798 124.32 944.798 124.32 1007.88 c 0,57,58
 124.32 1120.29 124.32 1120.29 176.901 1222.98 c 128,-1,59
 229.481 1325.67 229.481 1325.67 319.2 1400.82 c 128,-1,60
 408.919 1475.96 408.919 1475.96 535.014 1520.53 c 128,-1,61
 661.109 1565.1 661.109 1565.1 801.42 1565.1 c 0,62,63
 939.627 1565.1 939.627 1565.1 1064.73 1521.1 c 128,-1,64
 1189.84 1477.1 1189.84 1477.1 1279.97 1402.54 c 128,-1,65
 1370.09 1327.97 1370.09 1327.97 1423.2 1224.8 c 128,-1,66
 1476.3 1121.63 1476.3 1121.63 1476.3 1007.88 c 0,67,68
 1476.3 944.798 1476.3 944.798 1461.58 882.253 c 128,-1,69
 1446.86 819.708 1446.86 819.708 1416.61 755.969 c 128,-1,70
 1386.36 692.23 1386.36 692.23 1356.62 641.661 c 128,-1,71
 1326.88 591.091 1326.88 591.091 1280.94 521.7 c 0,72,73
 1192.83 392.467 1192.83 392.467 1147.99 311.012 c 128,-1,74
 1103.15 229.558 1103.15 229.558 1083.36 144.3 c 1,75,-1
 1260.96 144.3 l 2,76,77
 1308.26 144.3 1308.26 144.3 1336.29 147.111 c 128,-1,78
 1364.32 149.923 1364.32 149.923 1378.67 158.138 c 128,-1,79
 1393.02 166.354 1393.02 166.354 1397.68 173.751 c 128,-1,80
 1402.35 181.148 1402.35 181.148 1407.48 197.58 c 0,81,82
 1425.53 245.715 1425.53 245.715 1447.44 359.64 c 1,83,-1
 1502.94 359.64 l 1,0,-1
EndSplineSet
EndChar

StartChar: ae
Encoding: 230 230 160
Width: 1233
Flags: W
LayerCount: 2
Fore
SplineSet
489 401 m 1,0,-1
 489 483 l 1,1,-1
 416 483 l 2,2,3
 329 483 329 483 284.5 444 c 128,-1,4
 240 405 240 405 240 330 c 0,5,6
 240 259 240 259 272 221.5 c 128,-1,7
 304 184 304 184 365 184 c 0,8,9
 428 184 428 184 458.5 227 c 128,-1,10
 489 270 489 270 489 358 c 2,11,-1
 489 401 l 1,0,-1
963 690 m 1,12,-1
 963 713 l 2,13,14
 963 838 963 838 938 885 c 128,-1,15
 913 932 913 932 850 932 c 256,16,17
 787 932 787 932 762 885 c 128,-1,18
 737 838 737 838 737 713 c 2,19,-1
 737 690 l 1,20,-1
 963 690 l 1,12,-1
1188 479 m 1,21,-1
 737 479 l 1,22,23
 737 335 737 335 787 259.5 c 128,-1,24
 837 184 837 184 932 184 c 0,25,26
 992 184 992 184 1052 213.5 c 128,-1,27
 1112 243 1112 243 1171 301 c 1,28,-1
 1171 57 l 1,29,30
 1121 13 1121 13 1058.5 -8 c 128,-1,31
 996 -29 996 -29 913 -29 c 0,32,33
 810 -29 810 -29 735 13 c 128,-1,34
 660 55 660 55 618 135 c 1,35,36
 577 51 577 51 511.5 11 c 128,-1,37
 446 -29 446 -29 348 -29 c 0,38,39
 188 -29 188 -29 101 63.5 c 128,-1,40
 14 156 14 156 14 326 c 0,41,42
 14 511 14 511 115 602.5 c 128,-1,43
 216 694 216 694 420 694 c 2,44,-1
 496 694 l 1,45,-1
 496 745 l 2,46,47
 496 838 496 838 457 885 c 128,-1,48
 418 932 418 932 342 932 c 0,49,50
 285 932 285 932 217.5 904.5 c 128,-1,51
 150 877 150 877 76 823 c 1,52,-1
 76 1069 l 1,53,54
 150 1108 150 1108 220 1127.5 c 128,-1,55
 290 1147 290 1147 354 1147 c 0,56,57
 452 1147 452 1147 514.5 1116 c 128,-1,58
 577 1085 577 1085 612 1020 c 1,59,60
 641 1081 641 1081 706.5 1114 c 128,-1,61
 772 1147 772 1147 864 1147 c 0,62,63
 1041 1147 1041 1147 1114.5 1028 c 128,-1,64
 1188 909 1188 909 1188 606 c 2,65,-1
 1188 479 l 1,21,-1
EndSplineSet
EndChar

StartChar: oslash
Encoding: 248 248 161
Width: 1233
Flags: W
LayerCount: 2
Fore
SplineSet
831 675 m 1,0,-1
 483 262 l 1,1,2
 514 235 514 235 547 222 c 128,-1,3
 580 209 580 209 618 209 c 0,4,5
 722 209 722 209 782 302.5 c 128,-1,6
 842 396 842 396 842 559 c 0,7,8
 842 588 842 588 839.5 617 c 128,-1,9
 837 646 837 646 831 675 c 1,0,-1
399 449 m 1,10,-1
 745 860 l 1,11,12
 719 885 719 885 688 897 c 128,-1,13
 657 909 657 909 618 909 c 0,14,15
 512 909 512 909 451.5 816.5 c 128,-1,16
 391 724 391 724 391 559 c 0,17,18
 391 525 391 525 393 499 c 128,-1,19
 395 473 395 473 399 449 c 1,10,-1
188 199 m 1,20,21
 143 272 143 272 120.5 361 c 128,-1,22
 98 450 98 450 98 559 c 0,23,24
 98 830 98 830 238.5 988.5 c 128,-1,25
 379 1147 379 1147 616 1147 c 0,26,27
 701 1147 701 1147 774.5 1125.5 c 128,-1,28
 848 1104 848 1104 915 1059 c 1,29,-1
 1063 1235 l 1,30,-1
 1202 1114 l 1,31,-1
 1042 926 l 1,32,33
 1088 850 1088 850 1111.5 758 c 128,-1,34
 1135 666 1135 666 1135 559 c 0,35,36
 1135 288 1135 288 994.5 129.5 c 128,-1,37
 854 -29 854 -29 616 -29 c 0,38,39
 533 -29 533 -29 457.5 -6.5 c 128,-1,40
 382 16 382 16 315 61 c 1,41,-1
 164 -117 l 1,42,-1
 25 2 l 1,43,-1
 188 199 l 1,20,21
EndSplineSet
EndChar

StartChar: questiondown
Encoding: 191 191 162
Width: 1233
Flags: W
LayerCount: 2
Fore
SplineSet
799 1210 m 1,0,-1
 532 1210 l 1,1,-1
 532 1493 l 1,2,-1
 799 1493 l 1,3,-1
 799 1210 l 1,0,-1
532 1092 m 1,4,-1
 799 1092 l 1,5,-1
 799 938 l 2,6,7
 799 839 799 839 768 768.5 c 128,-1,8
 737 698 737 698 657 621 c 2,9,-1
 567 532 l 2,10,11
 506 473 506 473 483.5 432.5 c 128,-1,12
 461 392 461 392 461 348 c 0,13,14
 461 281 461 281 507 247 c 128,-1,15
 553 213 553 213 645 213 c 0,16,17
 728 213 728 213 818.5 248.5 c 128,-1,18
 909 284 909 284 1006 354 c 1,19,-1
 1006 86 l 1,20,21
 908 30 908 30 807.5 1.5 c 128,-1,22
 707 -27 707 -27 606 -27 c 0,23,24
 405 -27 405 -27 290.5 67 c 128,-1,25
 176 161 176 161 176 326 c 0,26,27
 176 402 176 402 210 467.5 c 128,-1,28
 244 533 244 533 338 625 c 2,29,-1
 426 711 l 2,30,31
 492 775 492 775 511 817 c 128,-1,32
 530 859 530 859 530 922 c 0,33,34
 530 923 530 923 531 928 c 1,35,36
 532 949 532 949 532 969 c 2,37,-1
 532 1092 l 1,4,-1
EndSplineSet
EndChar

StartChar: exclamdown
Encoding: 161 161 163
Width: 1233
Flags: W
LayerCount: 2
Fore
SplineSet
750 1210 m 1,0,-1
 483 1210 l 1,1,-1
 483 1493 l 1,2,-1
 750 1493 l 1,3,-1
 750 1210 l 1,0,-1
750 0 m 1,4,-1
 483 0 l 1,5,-1
 483 655 l 1,6,-1
 516 1012 l 1,7,-1
 715 1012 l 1,8,-1
 750 655 l 1,9,-1
 750 0 l 1,4,-1
EndSplineSet
EndChar

StartChar: logicalnot
Encoding: 172 172 164
Width: 1233
Flags: HW
LayerCount: 2
Fore
SplineSet
88 899 m 1,0,-1
 1145 899 l 1,1,-1
 1145 362 l 1,2,-1
 907 362 l 1,3,-1
 907 662 l 1,4,-1
 88 662 l 1,5,-1
 88 899 l 1,0,-1
EndSplineSet
EndChar

StartChar: radical
Encoding: 8730 8730 165
Width: 1218
VWidth: 2220
Flags: W
DStem2: 10 449 26 414 0.899301 0.437331 156 520 121 461 0.438495 -0.898734 353 123 363 -35 0.159134 0.987257
LayerCount: 2
Fore
SplineSet
805.86 -77.7002 m 1,0,-1
 268.62 1023.42 l 1,1,-1
 57.7197 919.08 l 1,2,-1
 22.2002 996.78 l 1,3,-1
 346.32 1154.4 l 1,4,-1
 783.66 273.06 l 1,5,-1
 1065.6 2026.86 l 1,6,-1
 1143.3 2015.76 l 1,7,-1
 805.86 -77.7002 l 1,0,-1
EndSplineSet
EndChar

StartChar: florin
Encoding: 402 402 166
Width: 1233
Flags: W
LayerCount: 2
Fore
SplineSet
1153 1505 m 1,0,-1
 1153 1274 l 1,1,2
 1112 1299 1112 1299 1071 1312 c 128,-1,3
 1030 1325 1030 1325 993 1325 c 0,4,5
 899 1325 899 1325 847.5 1265 c 128,-1,6
 796 1205 796 1205 778 1075 c 2,7,-1
 754 885 l 1,8,-1
 1014 885 l 1,9,-1
 1014 666 l 1,10,-1
 725 666 l 1,11,-1
 631 -47 l 2,12,13
 606 -228 606 -228 505 -327 c 128,-1,14
 404 -426 404 -426 244 -426 c 0,15,16
 182 -426 182 -426 124.5 -413.5 c 128,-1,17
 67 -401 67 -401 12 -375 c 1,18,-1
 12 -141 l 1,19,20
 55 -168 55 -168 95 -181.5 c 128,-1,21
 135 -195 135 -195 174 -195 c 0,22,23
 269 -195 269 -195 321.5 -134.5 c 128,-1,24
 374 -74 374 -74 391 55 c 2,25,-1
 471 666 l 1,26,-1
 219 666 l 1,27,-1
 219 885 l 1,28,-1
 500 885 l 1,29,-1
 539 1178 l 2,30,31
 563 1358 563 1358 664.5 1457 c 128,-1,32
 766 1556 766 1556 926 1556 c 0,33,34
 986 1556 986 1556 1042 1543.5 c 128,-1,35
 1098 1531 1098 1531 1153 1505 c 1,0,-1
EndSplineSet
EndChar

StartChar: approxequal
Encoding: 8776 8776 167
Width: 1724
VWidth: 2220
Flags: W
HStem: 124.32 124.32<1190.2 1263.18> 430.68 124.32<492.84 517.26> 641.58 124.32<1190.2 1263.18> 947.94 124.32<492.84 517.26>
VStem: 124.32 62.16<173.16 193.14 690.42 710.4>
LayerCount: 2
Fore
SplineSet
1600.62 1003.44 m 0,0,1
 1600.62 902.147 1600.62 902.147 1551.32 818.832 c 128,-1,2
 1502.03 735.517 1502.03 735.517 1417.56 688.549 c 128,-1,3
 1333.08 641.58 1333.08 641.58 1232.1 641.58 c 0,4,5
 1181.7 641.58 1181.7 641.58 1133.01 653.1 c 128,-1,6
 1084.31 664.621 1084.31 664.621 1034.09 689.792 c 128,-1,7
 983.871 714.963 983.871 714.963 955.618 731.772 c 128,-1,8
 927.364 748.58 927.364 748.58 876.9 781.44 c 0,9,10
 817.78 820.564 817.78 820.564 790.129 838.245 c 128,-1,11
 762.478 855.927 762.478 855.927 716.506 882.077 c 128,-1,12
 670.534 908.228 670.534 908.228 640.447 919.231 c 128,-1,13
 610.36 930.234 610.36 930.234 571.087 939.087 c 128,-1,14
 531.814 947.94 531.814 947.94 492.84 947.94 c 0,15,16
 457.588 947.94 457.588 947.94 419.318 939.805 c 128,-1,17
 381.047 931.669 381.047 931.669 340.348 912.28 c 128,-1,18
 299.649 892.891 299.649 892.891 267.044 864.786 c 128,-1,19
 234.438 836.682 234.438 836.682 212.05 792.506 c 128,-1,20
 189.663 748.331 189.663 748.331 186.48 694.86 c 0,21,22
 186.48 680.561 186.48 680.561 178.859 662.18 c 128,-1,23
 171.238 643.8 171.238 643.8 155.4 643.8 c 0,24,25
 142.314 643.8 142.314 643.8 133.317 660.08 c 128,-1,26
 124.32 676.36 124.32 676.36 124.32 710.4 c 0,27,28
 124.32 811.694 124.32 811.694 173.616 895.009 c 128,-1,29
 222.911 978.323 222.911 978.323 307.384 1025.29 c 128,-1,30
 391.857 1072.26 391.857 1072.26 492.84 1072.26 c 0,31,32
 543.234 1072.26 543.234 1072.26 591.931 1060.74 c 128,-1,33
 640.627 1049.22 640.627 1049.22 690.848 1024.05 c 128,-1,34
 741.069 998.877 741.069 998.877 769.323 982.068 c 128,-1,35
 797.576 965.26 797.576 965.26 848.04 932.4 c 0,36,37
 907.157 893.278 907.157 893.278 934.811 875.595 c 128,-1,38
 962.465 857.912 962.465 857.912 1008.43 831.763 c 128,-1,39
 1054.4 805.613 1054.4 805.613 1084.49 794.61 c 128,-1,40
 1114.58 783.606 1114.58 783.606 1153.85 774.753 c 128,-1,41
 1193.13 765.9 1193.13 765.9 1232.1 765.9 c 0,42,43
 1304.59 765.9 1304.59 765.9 1372.28 794.703 c 128,-1,44
 1439.96 823.505 1439.96 823.505 1487.08 880.657 c 128,-1,45
 1534.21 937.809 1534.21 937.809 1538.46 1010.1 c 0,46,47
 1544.45 1070.04 1544.45 1070.04 1569.54 1070.04 c 0,48,49
 1582.39 1070.04 1582.39 1070.04 1591.51 1053.11 c 128,-1,50
 1600.62 1036.19 1600.62 1036.19 1600.62 1003.44 c 0,0,1
1600.62 483.96 m 0,51,52
 1600.62 386.313 1600.62 386.313 1552.47 303.778 c 128,-1,53
 1504.32 221.243 1504.32 221.243 1419.37 172.782 c 128,-1,54
 1334.41 124.32 1334.41 124.32 1232.1 124.32 c 0,55,56
 1181.7 124.32 1181.7 124.32 1133.01 135.841 c 128,-1,57
 1084.31 147.361 1084.31 147.361 1034.09 172.531 c 128,-1,58
 983.873 197.702 983.873 197.702 955.617 214.511 c 128,-1,59
 927.362 231.321 927.362 231.321 876.9 264.18 c 0,60,61
 817.782 303.303 817.782 303.303 790.129 320.985 c 128,-1,62
 762.476 338.667 762.476 338.667 716.506 364.817 c 128,-1,63
 670.535 390.967 670.535 390.967 640.447 401.97 c 128,-1,64
 610.359 412.974 610.359 412.974 571.087 421.827 c 128,-1,65
 531.814 430.68 531.814 430.68 492.84 430.68 c 0,66,67
 457.588 430.68 457.588 430.68 419.318 422.544 c 128,-1,68
 381.047 414.408 381.047 414.408 340.348 395.019 c 128,-1,69
 299.649 375.63 299.649 375.63 267.044 347.526 c 128,-1,70
 234.438 319.421 234.438 319.421 212.05 275.246 c 128,-1,71
 189.663 231.071 189.663 231.071 186.48 177.6 c 0,72,73
 186.48 163.301 186.48 163.301 178.859 144.92 c 128,-1,74
 171.238 126.54 171.238 126.54 155.4 126.54 c 0,75,76
 142.314 126.54 142.314 126.54 133.317 142.82 c 128,-1,77
 124.32 159.1 124.32 159.1 124.32 193.14 c 0,78,79
 124.32 294.433 124.32 294.433 173.616 377.748 c 128,-1,80
 222.911 461.063 222.911 461.063 307.384 508.031 c 128,-1,81
 391.857 555 391.857 555 492.84 555 c 0,82,83
 543.235 555 543.235 555 591.931 543.48 c 128,-1,84
 640.627 531.959 640.627 531.959 690.848 506.788 c 128,-1,85
 741.068 481.617 741.068 481.617 769.323 464.808 c 128,-1,86
 797.578 447.999 797.578 447.999 848.04 415.14 c 0,87,88
 907.161 376.016 907.161 376.016 934.812 358.335 c 128,-1,89
 962.463 340.653 962.463 340.653 1008.43 314.503 c 128,-1,90
 1054.41 288.352 1054.41 288.352 1084.49 277.349 c 128,-1,91
 1114.58 266.346 1114.58 266.346 1153.85 257.493 c 128,-1,92
 1193.13 248.64 1193.13 248.64 1232.1 248.64 c 0,93,94
 1349.9 248.64 1349.9 248.64 1440 317.568 c 128,-1,95
 1530.11 386.496 1530.11 386.496 1538.46 481.74 c 0,96,97
 1539.85 502.542 1539.85 502.542 1542.02 515.801 c 128,-1,98
 1544.2 529.059 1544.2 529.059 1551.18 540.92 c 128,-1,99
 1558.16 552.78 1558.16 552.78 1569.54 552.78 c 0,100,101
 1582.24 552.78 1582.24 552.78 1591.43 534.835 c 128,-1,102
 1600.62 516.89 1600.62 516.89 1600.62 483.96 c 0,51,52
EndSplineSet
EndChar

StartChar: uni2206
Encoding: 8710 8710 168
Width: 1849
VWidth: 2220
Flags: W
HStem: 0 168.72<253.08 1449.66> 1545.12 44.4<904.65 942.39>
VStem: 104.34 1638.36<8.88 18.87>
LayerCount: 2
Fore
SplineSet
981.24 1549.56 m 2,0,-1
 1731.6 44.4004 l 2,1,2
 1742.7 24.4199 1742.7 24.4199 1742.7 17.7598 c 0,3,4
 1742.7 5.39138 1742.7 5.39138 1733.27 2.69569 c 128,-1,5
 1723.83 0 1723.83 0 1693.86 0 c 2,6,-1
 153.18 0 l 2,7,8
 131.967 0 131.967 0 123.827 0.690653 c 128,-1,9
 115.687 1.38131 115.687 1.38131 110.013 5.22927 c 128,-1,10
 104.34 9.07723 104.34 9.07723 104.34 17.7598 c 0,11,12
 104.34 24.4199 104.34 24.4199 115.44 44.4004 c 2,13,-1
 865.8 1549.56 l 2,14,15
 875.562 1567.69 875.562 1567.69 879.86 1573.7 c 128,-1,16
 884.158 1579.71 884.158 1579.71 894.66 1584.62 c 128,-1,17
 905.162 1589.52 905.162 1589.52 923.52 1589.52 c 128,-1,18
 941.878 1589.52 941.878 1589.52 952.38 1584.62 c 128,-1,19
 962.882 1579.71 962.882 1579.71 967.18 1573.7 c 128,-1,20
 971.478 1567.69 971.478 1567.69 981.24 1549.56 c 2,0,-1
852.48 1367.52 m 1,21,-1
 253.08 168.72 l 1,22,-1
 1449.66 168.72 l 1,23,-1
 852.48 1367.52 l 1,21,-1
EndSplineSet
EndChar

StartChar: guillemotleft
Encoding: 171 171 169
Width: 1233
Flags: W
LayerCount: 2
Fore
SplineSet
1042 1059 m 1,0,-1
 1042 821 l 1,1,-1
 766 600 l 1,2,-1
 1042 379 l 1,3,-1
 1042 141 l 1,4,-1
 573 535 l 1,5,-1
 573 666 l 1,6,-1
 1042 1059 l 1,0,-1
588 1059 m 1,7,-1
 588 821 l 1,8,-1
 311 600 l 1,9,-1
 588 379 l 1,10,-1
 588 141 l 1,11,-1
 119 535 l 1,12,-1
 119 666 l 1,13,-1
 588 1059 l 1,7,-1
EndSplineSet
EndChar

StartChar: guillemotright
Encoding: 187 187 170
Width: 1233
Flags: W
LayerCount: 2
Fore
SplineSet
193 1059 m 1,0,-1
 662 666 l 1,1,-1
 662 535 l 1,2,-1
 193 141 l 1,3,-1
 193 379 l 1,4,-1
 469 600 l 1,5,-1
 193 821 l 1,6,-1
 193 1059 l 1,0,-1
647 1059 m 1,7,-1
 1116 666 l 1,8,-1
 1116 535 l 1,9,-1
 647 141 l 1,10,-1
 647 379 l 1,11,-1
 924 600 l 1,12,-1
 647 821 l 1,13,-1
 647 1059 l 1,7,-1
EndSplineSet
EndChar

StartChar: ellipsis
Encoding: 8230 8230 171
Width: 2220
VWidth: 2220
Flags: W
HStem: -28.86 46.62G<336.33 405.15 1075.59 1144.41 1814.85 1883.67>
VStem: 246.42 248.64<97.68 115.44> 985.68 248.64<97.68 115.44> 1724.94 248.64<97.68 115.44>
LayerCount: 2
Fore
SplineSet
372.96 222 m 0,0,1
 421.421 222 421.421 222 458.24 184.726 c 128,-1,2
 495.06 147.452 495.06 147.452 495.06 97.6797 c 0,3,4
 495.06 45.8527 495.06 45.8527 458.603 8.49618 c 128,-1,5
 422.147 -28.8604 422.147 -28.8604 370.74 -28.8604 c 128,-1,6
 319.332 -28.8604 319.332 -28.8604 282.876 8.49614 c 128,-1,7
 246.42 45.8526 246.42 45.8526 246.42 97.6797 c 0,8,9
 246.42 149.088 246.42 149.088 283.776 185.544 c 128,-1,10
 321.132 222 321.132 222 372.96 222 c 0,0,1
1112.22 222 m 0,11,12
 1160.68 222 1160.68 222 1197.5 184.726 c 128,-1,13
 1234.32 147.452 1234.32 147.452 1234.32 97.6797 c 0,14,15
 1234.32 45.8526 1234.32 45.8526 1197.86 8.49614 c 128,-1,16
 1161.41 -28.8604 1161.41 -28.8604 1110 -28.8604 c 128,-1,17
 1058.59 -28.8604 1058.59 -28.8604 1022.14 8.49614 c 128,-1,18
 985.68 45.8526 985.68 45.8526 985.68 97.6797 c 0,19,20
 985.68 149.087 985.68 149.087 1023.04 185.544 c 128,-1,21
 1060.39 222 1060.39 222 1112.22 222 c 0,11,12
1851.48 222 m 0,22,23
 1899.94 222 1899.94 222 1936.76 184.726 c 128,-1,24
 1973.58 147.452 1973.58 147.452 1973.58 97.6797 c 0,25,26
 1973.58 45.8526 1973.58 45.8526 1937.12 8.49614 c 128,-1,27
 1900.67 -28.8604 1900.67 -28.8604 1849.26 -28.8604 c 128,-1,28
 1797.85 -28.8604 1797.85 -28.8604 1761.4 8.49618 c 128,-1,29
 1724.94 45.8527 1724.94 45.8527 1724.94 97.6797 c 0,30,31
 1724.94 149.088 1724.94 149.088 1762.3 185.544 c 128,-1,32
 1799.65 222 1799.65 222 1851.48 222 c 0,22,23
EndSplineSet
EndChar

StartChar: OE
Encoding: 338 338 176
Width: 1233
Flags: W
LayerCount: 2
Fore
SplineSet
1217 260 m 1,0,-1
 1217 0 l 1,1,-1
 633 0 l 2,2,3
 309 0 309 0 188.5 155.5 c 128,-1,4
 68 311 68 311 68 745 c 0,5,6
 68 1181 68 1181 189 1337 c 128,-1,7
 310 1493 310 1493 633 1493 c 2,8,-1
 1206 1493 l 1,9,-1
 1206 1233 l 1,10,-1
 874 1233 l 1,11,-1
 874 922 l 1,12,-1
 1176 922 l 1,13,-1
 1176 662 l 1,14,-1
 874 662 l 1,15,-1
 874 260 l 1,16,-1
 1217 260 l 1,0,-1
569 1233 m 2,17,18
 446 1233 446 1233 400 1144 c 128,-1,19
 354 1055 354 1055 354 745 c 0,20,21
 354 434 354 434 399.5 347 c 128,-1,22
 445 260 445 260 569 260 c 2,23,-1
 621 260 l 1,24,-1
 621 1233 l 1,25,-1
 569 1233 l 2,17,18
EndSplineSet
EndChar

StartChar: oe
Encoding: 339 339 177
Width: 1233
Flags: W
LayerCount: 2
Fore
SplineSet
1210 479 m 1,0,-1
 760 479 l 1,1,2
 760 335 760 335 809.5 259.5 c 128,-1,3
 859 184 859 184 954 184 c 0,4,5
 1014 184 1014 184 1074 213.5 c 128,-1,6
 1134 243 1134 243 1194 301 c 1,7,-1
 1194 57 l 1,8,9
 1145 13 1145 13 1083 -8 c 128,-1,10
 1021 -29 1021 -29 936 -29 c 0,11,12
 838 -29 838 -29 767 8 c 128,-1,13
 696 45 696 45 649 119 c 1,14,15
 606 42 606 42 539.5 6.5 c 128,-1,16
 473 -29 473 -29 373 -29 c 0,17,18
 183 -29 183 -29 98.5 109 c 128,-1,19
 14 247 14 247 14 559 c 0,20,21
 14 874 14 874 98.5 1010.5 c 128,-1,22
 183 1147 183 1147 373 1147 c 0,23,24
 472 1147 472 1147 534 1117.5 c 128,-1,25
 596 1088 596 1088 637 1022 c 1,26,27
 665 1082 665 1082 730 1114.5 c 128,-1,28
 795 1147 795 1147 887 1147 c 0,29,30
 1064 1147 1064 1147 1137 1028 c 128,-1,31
 1210 909 1210 909 1210 606 c 2,32,-1
 1210 479 l 1,0,-1
985 690 m 1,33,-1
 985 725 l 2,34,35
 985 841 985 841 959.5 887.5 c 128,-1,36
 934 934 934 934 872 934 c 256,37,38
 810 934 810 934 785 886.5 c 128,-1,39
 760 839 760 839 760 713 c 2,40,-1
 760 690 l 1,41,-1
 985 690 l 1,33,-1
520 559 m 0,42,43
 520 801 520 801 491 867.5 c 128,-1,44
 462 934 462 934 385 934 c 0,45,46
 307 934 307 934 277.5 867.5 c 128,-1,47
 248 801 248 801 248 559 c 256,48,49
 248 317 248 317 277.5 250.5 c 128,-1,50
 307 184 307 184 385 184 c 0,51,52
 462 184 462 184 491 251 c 128,-1,53
 520 318 520 318 520 559 c 0,42,43
EndSplineSet
EndChar

StartChar: endash
Encoding: 8211 8211 178
Width: 1233
Flags: W
LayerCount: 2
Fore
SplineSet
0 690 m 1,0,-1
 1233 690 l 1,1,-1
 1233 444 l 1,2,-1
 0 444 l 1,3,-1
 0 690 l 1,0,-1
EndSplineSet
EndChar

StartChar: emdash
Encoding: 8212 8212 179
Width: 1233
Flags: W
LayerCount: 2
Fore
SplineSet
0 690 m 1,0,-1
 1233 690 l 1,1,-1
 1233 444 l 1,2,-1
 0 444 l 1,3,-1
 0 690 l 1,0,-1
EndSplineSet
EndChar

StartChar: quotedblleft
Encoding: 8220 8220 180
Width: 1233
Flags: W
LayerCount: 2
Fore
SplineSet
465 903 m 1,0,-1
 152 903 l 1,1,-1
 152 1174 l 1,2,-1
 348 1556 l 1,3,-1
 563 1556 l 1,4,-1
 465 1174 l 1,5,-1
 465 903 l 1,0,-1
985 903 m 1,6,-1
 672 903 l 1,7,-1
 672 1174 l 1,8,-1
 868 1556 l 1,9,-1
 1081 1556 l 1,10,-1
 985 1174 l 1,11,-1
 985 903 l 1,6,-1
EndSplineSet
EndChar

StartChar: quotedblright
Encoding: 8221 8221 181
Width: 1233
Flags: W
LayerCount: 2
Fore
SplineSet
768 1556 m 1,0,-1
 1081 1556 l 1,1,-1
 1081 1286 l 1,2,-1
 885 903 l 1,3,-1
 670 903 l 1,4,-1
 768 1286 l 1,5,-1
 768 1556 l 1,0,-1
248 1556 m 1,6,-1
 561 1556 l 1,7,-1
 561 1286 l 1,8,-1
 365 903 l 1,9,-1
 150 903 l 1,10,-1
 248 1286 l 1,11,-1
 248 1556 l 1,6,-1
EndSplineSet
EndChar

StartChar: quoteleft
Encoding: 8216 8216 182
Width: 1233
Flags: W
LayerCount: 2
Fore
SplineSet
745 903 m 1,0,-1
 432 903 l 1,1,-1
 432 1174 l 1,2,-1
 629 1556 l 1,3,-1
 844 1556 l 1,4,-1
 745 1174 l 1,5,-1
 745 903 l 1,0,-1
EndSplineSet
EndChar

StartChar: quoteright
Encoding: 8217 8217 183
Width: 1233
Flags: W
LayerCount: 2
Fore
SplineSet
530 1556 m 1,0,-1
 844 1556 l 1,1,-1
 844 1286 l 1,2,-1
 647 903 l 1,3,-1
 432 903 l 1,4,-1
 530 1286 l 1,5,-1
 530 1556 l 1,0,-1
EndSplineSet
EndChar

StartChar: divide
Encoding: 247 247 184
Width: 1233
Flags: HW
LayerCount: 2
Fore
SplineSet
461 1198 m 1,0,-1
 770 1198 l 1,1,-1
 770 889 l 1,2,-1
 461 889 l 1,3,-1
 461 1198 l 1,0,-1
461 395 m 1,4,-1
 770 395 l 1,5,-1
 770 86 l 1,6,-1
 461 86 l 1,7,-1
 461 395 l 1,4,-1
66 762 m 1,8,-1
 1165 762 l 1,9,-1
 1165 524 l 1,10,-1
 66 524 l 1,11,-1
 66 762 l 1,8,-1
EndSplineSet
EndChar

StartChar: lozenge
Encoding: 9674 9674 185
Width: 1478
VWidth: 2220
Flags: W
HStem: -295.26 128.76<734.82 743.7>
DStem2: 100 291 63 274 0.536595 -0.84384 65 311 100 291 0.535466 0.844557 355 699 333 659 0.536595 -0.84384 334 -75 355 -116 0.535466 0.844557
LayerCount: 2
Fore
SplineSet
1334.22 603.84 m 2,0,-1
 788.1 -257.52 l 2,1,2
 779 -271.17 779 -271.17 774.457 -277.027 c 128,-1,3
 769.915 -282.885 769.915 -282.885 760.303 -289.072 c 128,-1,4
 750.691 -295.26 750.691 -295.26 739.26 -295.26 c 128,-1,5
 727.829 -295.26 727.829 -295.26 718.217 -289.072 c 128,-1,6
 708.605 -282.884 708.605 -282.884 704.063 -277.028 c 128,-1,7
 699.521 -271.171 699.521 -271.171 690.42 -257.52 c 2,8,-1
 139.86 608.28 l 1,9,10
 139.86 608.897 139.86 608.897 135.975 615.634 c 128,-1,11
 132.09 622.371 132.09 622.371 128.205 631.266 c 128,-1,12
 124.32 640.161 124.32 640.161 124.32 646.02 c 0,13,14
 124.32 655.455 124.32 655.455 127.373 662.916 c 128,-1,15
 130.425 670.378 130.425 670.378 144.3 690.42 c 2,16,-1
 690.42 1551.78 l 2,17,18
 699.522 1565.43 699.522 1565.43 704.063 1571.29 c 128,-1,19
 708.605 1577.14 708.605 1577.14 718.217 1583.33 c 128,-1,20
 727.829 1589.52 727.829 1589.52 739.26 1589.52 c 128,-1,21
 750.691 1589.52 750.691 1589.52 760.303 1583.33 c 128,-1,22
 769.915 1577.14 769.915 1577.14 774.457 1571.29 c 128,-1,23
 778.999 1565.43 778.999 1565.43 788.1 1551.78 c 2,24,-1
 1338.66 685.98 l 1,25,26
 1338.66 685.364 1338.66 685.364 1342.55 678.626 c 128,-1,27
 1346.43 671.889 1346.43 671.889 1350.32 662.994 c 128,-1,28
 1354.2 654.098 1354.2 654.098 1354.2 648.24 c 0,29,30
 1354.2 638.805 1354.2 638.805 1351.15 631.343 c 128,-1,31
 1348.1 623.882 1348.1 623.882 1334.22 603.84 c 2,0,-1
222 646.02 m 1,32,-1
 737.04 -166.5 l 1,33,-1
 741.48 -166.5 l 1,34,-1
 1256.52 648.24 l 1,35,-1
 739.26 1462.98 l 1,36,-1
 222 646.02 l 1,32,-1
EndSplineSet
EndChar

StartChar: uni2215
Encoding: 8725 8725 188
Width: 1110
VWidth: 2220
Flags: W
DStem2: 61 -212 97 -230 0.34038 0.940288
LayerCount: 2
Fore
SplineSet
972.36 1580.64 m 2,0,-1
 215.34 -510.6 l 2,1,2
 211.229 -524.304 211.229 -524.304 207.159 -532.526 c 128,-1,3
 203.089 -540.748 203.089 -540.748 193.181 -547.874 c 128,-1,4
 183.273 -555 183.273 -555 168.72 -555 c 0,5,6
 150.405 -555 150.405 -555 137.363 -541.957 c 128,-1,7
 124.32 -528.915 124.32 -528.915 124.32 -510.6 c 0,8,9
 124.32 -499.5 124.32 -499.5 135.42 -470.64 c 2,10,-1
 892.44 1620.6 l 2,11,12
 896.551 1634.3 896.551 1634.3 900.621 1642.53 c 128,-1,13
 904.691 1650.75 904.691 1650.75 914.599 1657.87 c 128,-1,14
 924.507 1665 924.507 1665 939.06 1665 c 0,15,16
 957.375 1665 957.375 1665 970.417 1651.96 c 128,-1,17
 983.46 1638.91 983.46 1638.91 983.46 1620.6 c 0,18,19
 983.46 1609.5 983.46 1609.5 972.36 1580.64 c 2,0,-1
EndSplineSet
EndChar

StartChar: currency
Encoding: 164 164 189
Width: 1233
Flags: W
LayerCount: 2
Fore
SplineSet
827 643 m 0,0,1
 827 716 827 716 777 765.5 c 128,-1,2
 727 815 727 815 653 815 c 0,3,4
 580 815 580 815 529.5 765.5 c 128,-1,5
 479 716 479 716 479 643 c 0,6,7
 479 569 479 569 529.5 518 c 128,-1,8
 580 467 580 467 653 467 c 0,9,10
 727 467 727 467 777 518 c 128,-1,11
 827 569 827 569 827 643 c 0,0,1
819 938 m 1,12,-1
 991 1108 l 1,13,-1
 1118 979 l 1,14,-1
 948 809 l 1,15,16
 971 768 971 768 982 726.5 c 128,-1,17
 993 685 993 685 993 641 c 0,18,19
 993 594 993 594 981.5 553.5 c 128,-1,20
 970 513 970 513 946 477 c 1,21,-1
 1118 307 l 1,22,-1
 987 176 l 1,23,-1
 817 348 l 1,24,25
 781 324 781 324 741 312.5 c 128,-1,26
 701 301 701 301 653 301 c 0,27,28
 614 301 614 301 572 311.5 c 128,-1,29
 530 322 530 322 485 344 c 1,30,-1
 315 176 l 1,31,-1
 186 305 l 1,32,-1
 356 475 l 1,33,34
 334 517 334 517 322.5 558.5 c 128,-1,35
 311 600 311 600 311 641 c 0,36,37
 311 688 311 688 322.5 728.5 c 128,-1,38
 334 769 334 769 358 807 c 1,39,-1
 186 977 l 1,40,-1
 317 1108 l 1,41,-1
 483 936 l 1,42,43
 524 960 524 960 565.5 971.5 c 128,-1,44
 607 983 607 983 653 983 c 0,45,46
 692 983 692 983 732.5 972 c 128,-1,47
 773 961 773 961 819 938 c 1,12,-1
EndSplineSet
EndChar

StartChar: guilsinglleft
Encoding: 8249 8249 190
Width: 1203
VWidth: 2220
Flags: W
HStem: 165.39 779.22<990.675 1010.66 994.005 994.005 994.005 994.005>
VStem: 178.155 846.93
LayerCount: 2
Fore
SplineSet
999.555 881.34 m 6,0,-1
 283.605 555 l 1,1,-1
 999.555 228.66 l 2,2,3
 1025.08 216.877 1025.08 216.877 1025.08 196.47 c 0,4,5
 1025.08 183.982 1025.08 183.982 1015.79 174.686 c 128,-1,6
 1006.49 165.39 1006.49 165.39 994.005 165.39 c 0,7,8
 986.235 165.39 986.235 165.39 969.585 173.16 c 2,9,-1
 203.685 522.81 l 2,10,11
 178.155 534.593 178.155 534.593 178.155 555 c 128,-1,12
 178.155 575.407 178.155 575.407 203.685 587.19 c 2,13,-1
 972.915 937.95 l 2,14,15
 987.903 944.61 987.903 944.61 994.005 944.61 c 0,16,17
 1006.49 944.61 1006.49 944.61 1015.79 935.314 c 128,-1,18
 1025.08 926.018 1025.08 926.018 1025.08 913.53 c 0,19,20
 1025.08 893.123 1025.08 893.123 999.555 881.34 c 6,0,-1
EndSplineSet
EndChar

StartChar: guilsinglright
Encoding: 8250 8250 191
Width: 1203
VWidth: 2220
Flags: W
HStem: 165.39 23.31<200.91 212.565> 922.41 22.2<200.91 210.9>
VStem: 178.155 846.93
LayerCount: 2
Fore
SplineSet
999.555 522.81 m 6,0,-1
 230.325 172.05 l 2,1,2
 215.338 165.39 215.338 165.39 209.235 165.39 c 0,3,4
 196.748 165.39 196.748 165.39 187.452 174.686 c 128,-1,5
 178.155 183.982 178.155 183.982 178.155 196.47 c 0,6,7
 178.155 216.877 178.155 216.877 203.685 228.66 c 2,8,-1
 919.635 555 l 1,9,-1
 203.685 881.34 l 2,10,11
 178.155 893.123 178.155 893.123 178.155 913.53 c 0,12,13
 178.155 926.018 178.155 926.018 187.452 935.314 c 128,-1,14
 196.748 944.61 196.748 944.61 209.235 944.61 c 0,15,16
 217.005 944.61 217.005 944.61 233.655 936.84 c 2,17,-1
 999.555 587.19 l 2,18,19
 1025.08 575.407 1025.08 575.407 1025.08 555 c 128,-1,20
 1025.08 534.593 1025.08 534.593 999.555 522.81 c 6,0,-1
EndSplineSet
EndChar

StartChar: uniFB01
Encoding: 64257 64257 192
Width: 1233
Flags: W
LayerCount: 2
Fore
SplineSet
805 1556 m 1,0,-1
 1098 1556 l 1,1,-1
 1098 1264 l 1,2,-1
 805 1264 l 1,3,-1
 805 1556 l 1,0,-1
494 1219 m 2,4,-1
 494 1120 l 1,5,-1
 1098 1120 l 1,6,-1
 1098 0 l 1,7,-1
 805 0 l 1,8,-1
 805 895 l 1,9,-1
 494 895 l 1,10,-1
 494 0 l 1,11,-1
 201 0 l 1,12,-1
 201 895 l 1,13,-1
 12 895 l 1,14,-1
 12 1120 l 1,15,-1
 201 1120 l 1,16,-1
 201 1198 l 2,17,18
 201 1400 201 1400 284.5 1478 c 128,-1,19
 368 1556 368 1556 596 1556 c 2,20,-1
 676 1556 l 1,21,-1
 676 1331 l 1,22,-1
 608 1331 l 2,23,24
 542 1331 542 1331 518.5 1307 c 128,-1,25
 495 1283 495 1283 494 1219 c 2,4,-1
EndSplineSet
EndChar

StartChar: uniFB02
Encoding: 64258 64258 193
Width: 1233
Flags: W
LayerCount: 2
Fore
SplineSet
494 1219 m 2,0,-1
 494 1120 l 1,1,-1
 682 1120 l 1,2,-1
 682 895 l 1,3,-1
 494 895 l 1,4,-1
 494 0 l 1,5,-1
 201 0 l 1,6,-1
 201 895 l 1,7,-1
 12 895 l 1,8,-1
 12 1120 l 1,9,-1
 201 1120 l 1,10,-1
 201 1198 l 2,11,12
 201 1400 201 1400 284.5 1478 c 128,-1,13
 368 1556 368 1556 596 1556 c 2,14,-1
 1098 1556 l 1,15,-1
 1098 0 l 1,16,-1
 805 0 l 1,17,-1
 805 1331 l 1,18,-1
 608 1331 l 2,19,20
 542 1331 542 1331 518.5 1307 c 128,-1,21
 495 1283 495 1283 494 1219 c 2,0,-1
EndSplineSet
EndChar

StartChar: daggerdbl
Encoding: 8225 8225 194
Width: 1134
VWidth: 2220
Flags: W
HStem: -448.44 46.62G<542.79 594.96> -71.04 246.42<268.62 286.38 865.8 890.22> 934.62 244.2<246.42 286.38 850.26 890.22> 1514.04 44.4G<539.46 591.63>
VStem: 444 246.42<-319.68 -304.14 424.02 441.78 656.008 690.42 1429.68 1434.12>
LayerCount: 2
Fore
SplineSet
601.62 1021.2 m 1,0,1
 607.098 986.506 607.098 986.506 612.74 965.264 c 128,-1,2
 618.383 944.023 618.383 944.023 637.14 892.44 c 0,3,4
 654.718 844.98 654.718 844.98 662.254 823.445 c 128,-1,5
 669.791 801.911 669.791 801.911 680.105 758.675 c 128,-1,6
 690.42 715.438 690.42 715.438 690.42 683.76 c 0,7,8
 690.42 619.276 690.42 619.276 653.07 587.138 c 128,-1,9
 615.72 555 615.72 555 566.1 555 c 0,10,11
 546.95 555 546.95 555 527.076 561.719 c 128,-1,12
 507.202 568.437 507.202 568.437 487.845 582.414 c 128,-1,13
 468.489 596.391 468.489 596.391 456.244 622.769 c 128,-1,14
 444 649.146 444 649.146 444 683.76 c 0,15,16
 444 756.677 444 756.677 495.06 890.22 c 0,17,18
 508.874 925.286 508.874 925.286 516.432 949.332 c 128,-1,19
 523.99 973.378 523.99 973.378 526.228 984.289 c 128,-1,20
 528.466 995.199 528.466 995.199 532.8 1021.2 c 1,21,22
 483.962 1008.99 483.962 1008.99 441.78 987.9 c 0,23,24
 391.393 963.221 391.393 963.221 354.258 950.65 c 128,-1,25
 317.124 938.08 317.124 938.08 302.862 936.35 c 128,-1,26
 288.6 934.62 288.6 934.62 268.62 934.62 c 0,27,28
 236.561 934.62 236.561 934.62 212.179 944.786 c 128,-1,29
 187.796 954.952 187.796 954.952 174.972 969.05 c 128,-1,30
 162.148 983.148 162.148 983.148 154.21 1001.51 c 128,-1,31
 146.272 1019.87 146.272 1019.87 144.176 1032.7 c 128,-1,32
 142.08 1045.53 142.08 1045.53 142.08 1056.72 c 0,33,34
 142.08 1106.8 142.08 1106.8 175.018 1142.81 c 128,-1,35
 207.956 1178.82 207.956 1178.82 266.4 1178.82 c 0,36,37
 332.998 1178.82 332.998 1178.82 444 1123.32 c 0,38,39
 479.744 1106.39 479.744 1106.39 532.8 1092.24 c 1,40,41
 527.322 1126.93 527.322 1126.93 521.679 1148.18 c 128,-1,42
 516.037 1169.42 516.037 1169.42 497.28 1221 c 0,43,44
 479.702 1268.46 479.702 1268.46 472.166 1289.99 c 128,-1,45
 464.629 1311.53 464.629 1311.53 454.314 1354.77 c 128,-1,46
 444 1398 444 1398 444 1429.68 c 0,47,48
 444 1494.16 444 1494.16 481.35 1526.3 c 128,-1,49
 518.7 1558.44 518.7 1558.44 568.32 1558.44 c 0,50,51
 587.47 1558.44 587.47 1558.44 607.344 1551.72 c 128,-1,52
 627.218 1545 627.218 1545 646.575 1531.03 c 128,-1,53
 665.931 1517.05 665.931 1517.05 678.176 1490.67 c 128,-1,54
 690.42 1464.29 690.42 1464.29 690.42 1429.68 c 0,55,56
 690.42 1356.76 690.42 1356.76 639.36 1223.22 c 0,57,58
 625.546 1188.15 625.546 1188.15 617.988 1164.11 c 128,-1,59
 610.43 1140.06 610.43 1140.06 608.192 1129.15 c 128,-1,60
 605.954 1118.24 605.954 1118.24 601.62 1092.24 c 1,61,62
 630.951 1099.14 630.951 1099.14 651.488 1106.89 c 128,-1,63
 672.026 1114.63 672.026 1114.63 723.72 1138.86 c 0,64,65
 803.641 1178.82 803.641 1178.82 868.02 1178.82 c 0,66,67
 926.464 1178.82 926.464 1178.82 959.402 1142.81 c 128,-1,68
 992.34 1106.8 992.34 1106.8 992.34 1056.72 c 0,69,70
 992.34 1045.53 992.34 1045.53 990.244 1032.7 c 128,-1,71
 988.148 1019.87 988.148 1019.87 980.21 1001.51 c 128,-1,72
 972.272 983.148 972.272 983.148 959.448 969.05 c 128,-1,73
 946.624 954.952 946.624 954.952 922.241 944.786 c 128,-1,74
 897.859 934.62 897.859 934.62 865.8 934.62 c 0,75,76
 830.414 934.62 830.414 934.62 793.79 945.684 c 128,-1,77
 757.166 956.747 757.166 956.747 690.42 990.12 c 0,78,79
 654.672 1007.05 654.672 1007.05 601.62 1021.2 c 1,0,1
601.62 17.7598 m 1,80,81
 605.668 -7.87374 605.668 -7.87374 608.266 -20.2948 c 128,-1,82
 610.865 -32.7159 610.865 -32.7159 618.654 -57.405 c 128,-1,83
 626.443 -82.0942 626.443 -82.0942 641.58 -122.1 c 0,84,85
 657.182 -164.651 657.182 -164.651 665.831 -190.877 c 128,-1,86
 674.479 -217.103 674.479 -217.103 682.449 -253.863 c 128,-1,87
 690.42 -290.622 690.42 -290.622 690.42 -319.68 c 0,88,89
 690.42 -384.163 690.42 -384.163 653.07 -416.302 c 128,-1,90
 615.72 -448.44 615.72 -448.44 566.1 -448.44 c 0,91,92
 546.95 -448.44 546.95 -448.44 527.076 -441.722 c 128,-1,93
 507.202 -435.003 507.202 -435.003 487.845 -421.026 c 128,-1,94
 468.489 -407.05 468.489 -407.05 456.244 -380.671 c 128,-1,95
 444 -354.293 444 -354.293 444 -319.68 c 0,96,97
 444 -251.812 444 -251.812 488.4 -137.64 c 0,98,99
 513.519 -68.5622 513.519 -68.5622 520.445 -43.4967 c 128,-1,100
 527.371 -18.4312 527.371 -18.4312 532.8 17.7598 c 1,101,102
 494.318 8.13943 494.318 8.13943 412.92 -28.8604 c 0,103,104
 328.557 -71.04 328.557 -71.04 268.62 -71.04 c 0,105,106
 209.817 -71.04 209.817 -71.04 175.949 -34.5324 c 128,-1,107
 142.08 1.97531 142.08 1.97531 142.08 53.2803 c 0,108,109
 142.08 101.216 142.08 101.216 173.927 138.298 c 128,-1,110
 205.774 175.38 205.774 175.38 268.62 175.38 c 0,111,112
 295.468 175.38 295.468 175.38 329.574 165.842 c 128,-1,113
 363.68 156.305 363.68 156.305 385.266 147.177 c 128,-1,114
 406.853 138.049 406.853 138.049 446.22 119.88 c 0,115,116
 490.242 96.4016 490.242 96.4016 532.8 86.5801 c 1,117,118
 528.752 112.214 528.752 112.214 526.154 124.635 c 128,-1,119
 523.555 137.056 523.555 137.056 515.766 161.745 c 128,-1,120
 507.977 186.434 507.977 186.434 492.84 226.44 c 0,121,122
 477.239 268.989 477.239 268.989 468.59 295.217 c 128,-1,123
 459.941 321.444 459.941 321.444 451.97 358.203 c 128,-1,124
 444 394.963 444 394.963 444 424.02 c 0,125,126
 444 488.503 444 488.503 481.35 520.642 c 128,-1,127
 518.7 552.78 518.7 552.78 568.32 552.78 c 0,128,129
 587.47 552.78 587.47 552.78 607.344 546.062 c 128,-1,130
 627.218 539.343 627.218 539.343 646.575 525.366 c 128,-1,131
 665.931 511.389 665.931 511.389 678.176 485.011 c 128,-1,132
 690.42 458.633 690.42 458.633 690.42 424.02 c 0,133,134
 690.42 356.152 690.42 356.152 646.02 241.98 c 0,135,136
 620.9 172.902 620.9 172.902 613.975 147.836 c 128,-1,137
 607.049 122.771 607.049 122.771 601.62 86.5801 c 1,138,139
 652.236 101.041 652.236 101.041 721.5 133.2 c 0,140,141
 805.859 175.38 805.859 175.38 865.8 175.38 c 0,142,143
 924.604 175.38 924.604 175.38 958.472 138.873 c 128,-1,144
 992.34 102.365 992.34 102.365 992.34 51.0596 c 0,145,146
 992.34 3.12424 992.34 3.12424 960.493 -33.9579 c 128,-1,147
 928.646 -71.04 928.646 -71.04 865.8 -71.04 c 0,148,149
 805.862 -71.04 805.862 -71.04 725.94 -31.0801 c 0,150,151
 634.817 8.53872 634.817 8.53872 601.62 17.7598 c 1,80,81
EndSplineSet
EndChar

StartChar: periodcentered
Encoding: 183 183 195
Width: 1233
Flags: HW
LayerCount: 2
Fore
SplineSet
449 895 m 1,0,-1
 782 895 l 1,1,-1
 782 530 l 1,2,-1
 449 530 l 1,3,-1
 449 895 l 1,0,-1
EndSplineSet
EndChar

StartChar: quotesinglbase
Encoding: 8218 8218 196
Width: 1233
Flags: W
LayerCount: 2
Fore
SplineSet
461 367 m 1,0,-1
 774 367 l 1,1,-1
 774 96 l 1,2,-1
 578 -287 l 1,3,-1
 362 -287 l 1,4,-1
 461 96 l 1,5,-1
 461 367 l 1,0,-1
EndSplineSet
EndChar

StartChar: quotedblbase
Encoding: 8222 8222 197
Width: 1233
Flags: W
LayerCount: 2
Fore
SplineSet
768 367 m 1,0,-1
 1081 367 l 1,1,-1
 1081 96 l 1,2,-1
 885 -287 l 1,3,-1
 670 -287 l 1,4,-1
 768 96 l 1,5,-1
 768 367 l 1,0,-1
248 367 m 1,6,-1
 561 367 l 1,7,-1
 561 96 l 1,8,-1
 365 -287 l 1,9,-1
 150 -287 l 1,10,-1
 248 96 l 1,11,-1
 248 367 l 1,6,-1
EndSplineSet
EndChar

StartChar: perthousand
Encoding: 8240 8240 198
Width: 2632
VWidth: 2220
Flags: W
HStem: -124.32 48.84<1440.78 1462.98 2193.36 2233.32> 721.5 48.84<1440.78 1462.98 2193.36 2233.32> 770.34 48.84<452.88 468.42> 1374.18 48.84<985.68 1061.16> 1616.16 48.84<452.88 468.42>
DStem2: 153.5 -16 184.5 -41 0.557749 0.83001
LayerCount: 2
Fore
SplineSet
2210.01 -75.4805 m 0,0,1
 2300.71 -75.4805 2300.71 -75.4805 2370.8 37.74 c 128,-1,2
 2440.89 150.96 2440.89 150.96 2440.89 324.12 c 0,3,4
 2440.89 408.99 2440.89 408.99 2421.33 484.126 c 128,-1,5
 2401.76 559.262 2401.76 559.262 2369.61 610.646 c 128,-1,6
 2337.46 662.03 2337.46 662.03 2295.69 691.765 c 128,-1,7
 2253.92 721.5 2253.92 721.5 2210.01 721.5 c 0,8,9
 2197.5 721.5 2197.5 721.5 2184.57 719.047 c 128,-1,10
 2171.65 716.594 2171.65 716.594 2151.95 706.905 c 128,-1,11
 2132.26 697.216 2132.26 697.216 2115.11 681.184 c 128,-1,12
 2097.97 665.151 2097.97 665.151 2079.74 634.596 c 128,-1,13
 2061.5 604.042 2061.5 604.042 2048.6 563.479 c 128,-1,14
 2035.71 522.915 2035.71 522.915 2027.4 460.544 c 128,-1,15
 2019.09 398.172 2019.09 398.172 2019.09 321.9 c 0,16,17
 2019.09 246.122 2019.09 246.122 2027.51 184.081 c 128,-1,18
 2035.94 122.039 2035.94 122.039 2049 81.7307 c 128,-1,19
 2062.06 41.4221 2062.06 41.4221 2080.43 11.0108 c 128,-1,20
 2098.81 -19.4006 2098.81 -19.4006 2116.05 -35.3406 c 128,-1,21
 2133.29 -51.2807 2133.29 -51.2807 2152.92 -60.9356 c 128,-1,22
 2172.55 -70.5905 2172.55 -70.5905 2185.28 -73.0355 c 128,-1,23
 2198.01 -75.4805 2198.01 -75.4805 2210.01 -75.4805 c 0,0,1
2496.39 321.9 m 0,24,25
 2496.39 199.369 2496.39 199.369 2458.34 96.8322 c 128,-1,26
 2420.28 -5.70469 2420.28 -5.70469 2353.89 -65.0125 c 128,-1,27
 2287.49 -124.32 2287.49 -124.32 2207.79 -124.32 c 0,28,29
 2145.45 -124.32 2145.45 -124.32 2086.57 -91.5251 c 128,-1,30
 2027.7 -58.7299 2027.7 -58.7299 1982.17 -1.33373 c 128,-1,31
 1936.64 56.0625 1936.64 56.0625 1909.04 141.228 c 128,-1,32
 1881.45 226.394 1881.45 226.394 1881.45 324.12 c 0,33,34
 1881.45 418.857 1881.45 418.857 1908.79 502.976 c 128,-1,35
 1936.12 587.094 1936.12 587.094 1981.28 645.077 c 128,-1,36
 2026.43 703.06 2026.43 703.06 2085.69 736.7 c 128,-1,37
 2144.96 770.34 2144.96 770.34 2207.79 770.34 c 0,38,39
 2285.81 770.34 2285.81 770.34 2351.98 712.082 c 128,-1,40
 2418.16 653.825 2418.16 653.825 2457.28 550.358 c 128,-1,41
 2496.39 446.89 2496.39 446.89 2496.39 321.9 c 0,24,25
1532.91 1580.64 m 2,42,-1
 409.59 -91.0195 l 2,43,44
 404.376 -98.3191 404.376 -98.3191 400.284 -103.86 c 128,-1,45
 396.191 -109.402 396.191 -109.402 392.682 -113.291 c 128,-1,46
 389.173 -117.181 389.173 -117.181 385.294 -119.632 c 128,-1,47
 381.415 -122.083 381.415 -122.083 376.628 -123.201 c 128,-1,48
 371.84 -124.32 371.84 -124.32 365.19 -124.32 c 0,49,50
 348.158 -124.32 348.158 -124.32 334.474 -111.093 c 128,-1,51
 320.79 -97.8649 320.79 -97.8649 320.79 -79.9199 c 0,52,53
 320.79 -64.3799 320.79 -64.3799 340.77 -35.5195 c 2,54,-1
 1337.55 1449.66 l 1,55,-1
 1335.33 1451.88 l 1,56,57
 1325.07 1445.04 1325.07 1445.04 1305.6 1435.41 c 128,-1,58
 1286.14 1425.78 1286.14 1425.78 1247.67 1410.28 c 128,-1,59
 1209.21 1394.79 1209.21 1394.79 1153.81 1384.49 c 128,-1,60
 1098.41 1374.18 1098.41 1374.18 1040.07 1374.18 c 0,61,62
 868.652 1374.18 868.652 1374.18 704.85 1467.42 c 1,63,64
 751.47 1351.98 751.47 1351.98 751.47 1216.56 c 0,65,66
 751.47 1094.03 751.47 1094.03 713.415 991.492 c 128,-1,67
 675.359 888.955 675.359 888.955 608.965 829.648 c 128,-1,68
 542.571 770.34 542.571 770.34 462.87 770.34 c 0,69,70
 400.533 770.34 400.533 770.34 341.654 803.135 c 128,-1,71
 282.775 835.93 282.775 835.93 237.246 893.326 c 128,-1,72
 191.717 950.723 191.717 950.723 164.124 1035.89 c 128,-1,73
 136.53 1121.05 136.53 1121.05 136.53 1218.78 c 0,74,75
 136.53 1313.52 136.53 1313.52 163.867 1397.64 c 128,-1,76
 191.205 1481.75 191.205 1481.75 236.358 1539.74 c 128,-1,77
 281.511 1597.72 281.511 1597.72 340.774 1631.36 c 128,-1,78
 400.037 1665 400.037 1665 462.87 1665 c 0,79,80
 511.332 1665 511.332 1665 548.077 1646.43 c 128,-1,81
 584.822 1627.86 584.822 1627.86 622.71 1593.96 c 0,82,83
 803.511 1423.02 803.511 1423.02 1037.85 1423.02 c 0,84,85
 1304.58 1423.02 1304.58 1423.02 1459.65 1633.92 c 0,86,87
 1463.85 1638.64 1463.85 1638.64 1467.48 1643.12 c 128,-1,88
 1471.12 1647.59 1471.12 1647.59 1475.42 1651.57 c 128,-1,89
 1479.73 1655.55 1479.73 1655.55 1484.11 1658.54 c 128,-1,90
 1488.48 1661.52 1488.48 1661.52 1494.18 1663.26 c 128,-1,91
 1499.87 1665 1499.87 1665 1506.27 1665 c 0,92,93
 1524.59 1665 1524.59 1665 1537.63 1651.96 c 128,-1,94
 1550.67 1638.91 1550.67 1638.91 1550.67 1620.6 c 0,95,96
 1550.67 1607.28 1550.67 1607.28 1532.91 1580.64 c 2,42,-1
465.09 819.18 m 0,97,98
 555.793 819.18 555.793 819.18 625.881 932.4 c 128,-1,99
 695.97 1045.62 695.97 1045.62 695.97 1218.78 c 0,100,101
 695.97 1303.65 695.97 1303.65 676.405 1378.79 c 128,-1,102
 656.84 1453.92 656.84 1453.92 624.688 1505.31 c 128,-1,103
 592.536 1556.69 592.536 1556.69 550.767 1586.43 c 128,-1,104
 508.999 1616.16 508.999 1616.16 465.09 1616.16 c 0,105,106
 452.577 1616.16 452.577 1616.16 439.654 1613.71 c 128,-1,107
 426.731 1611.25 426.731 1611.25 407.033 1601.57 c 128,-1,108
 387.335 1591.88 387.335 1591.88 370.193 1575.84 c 128,-1,109
 353.052 1559.81 353.052 1559.81 334.815 1529.26 c 128,-1,110
 316.578 1498.7 316.578 1498.7 303.684 1458.14 c 128,-1,111
 290.79 1417.58 290.79 1417.58 282.48 1355.2 c 128,-1,112
 274.17 1292.83 274.17 1292.83 274.17 1216.56 c 0,113,114
 274.17 1140.78 274.17 1140.78 282.593 1078.74 c 128,-1,115
 291.016 1016.7 291.016 1016.7 304.076 976.391 c 128,-1,116
 317.136 936.082 317.136 936.082 335.511 905.671 c 128,-1,117
 353.885 875.26 353.885 875.26 371.129 859.32 c 128,-1,118
 388.373 843.38 388.373 843.38 408 833.725 c 128,-1,119
 427.628 824.07 427.628 824.07 440.357 821.625 c 128,-1,120
 453.086 819.18 453.086 819.18 465.09 819.18 c 0,97,98
1448.55 -75.4805 m 0,121,122
 1539.25 -75.4805 1539.25 -75.4805 1609.34 37.7398 c 128,-1,123
 1679.43 150.96 1679.43 150.96 1679.43 324.12 c 0,124,125
 1679.43 408.99 1679.43 408.99 1659.86 484.126 c 128,-1,126
 1640.3 559.262 1640.3 559.262 1608.15 610.646 c 128,-1,127
 1576 662.031 1576 662.031 1534.23 691.765 c 128,-1,128
 1492.46 721.5 1492.46 721.5 1448.55 721.5 c 0,129,130
 1436.04 721.5 1436.04 721.5 1423.11 719.047 c 128,-1,131
 1410.19 716.594 1410.19 716.594 1390.49 706.905 c 128,-1,132
 1370.79 697.217 1370.79 697.217 1353.65 681.184 c 128,-1,133
 1336.51 665.151 1336.51 665.151 1318.27 634.596 c 128,-1,134
 1300.04 604.042 1300.04 604.042 1287.14 563.479 c 128,-1,135
 1274.25 522.915 1274.25 522.915 1265.94 460.544 c 128,-1,136
 1257.63 398.172 1257.63 398.172 1257.63 321.9 c 0,137,138
 1257.63 246.122 1257.63 246.122 1266.05 184.081 c 128,-1,139
 1274.48 122.039 1274.48 122.039 1287.54 81.7307 c 128,-1,140
 1300.6 41.4221 1300.6 41.4221 1318.97 11.0108 c 128,-1,141
 1337.35 -19.4006 1337.35 -19.4006 1354.59 -35.3406 c 128,-1,142
 1371.83 -51.2807 1371.83 -51.2807 1391.46 -60.9356 c 128,-1,143
 1411.09 -70.5905 1411.09 -70.5905 1423.82 -73.0355 c 128,-1,144
 1436.55 -75.4805 1436.55 -75.4805 1448.55 -75.4805 c 0,121,122
1734.93 321.9 m 0,145,146
 1734.93 199.369 1734.93 199.369 1696.87 96.8321 c 128,-1,147
 1658.82 -5.70465 1658.82 -5.70465 1592.43 -65.0125 c 128,-1,148
 1526.03 -124.32 1526.03 -124.32 1446.33 -124.32 c 0,149,150
 1383.99 -124.32 1383.99 -124.32 1325.11 -91.5251 c 128,-1,151
 1266.24 -58.7299 1266.24 -58.7299 1220.71 -1.33373 c 128,-1,152
 1175.18 56.0625 1175.18 56.0625 1147.58 141.228 c 128,-1,153
 1119.99 226.394 1119.99 226.394 1119.99 324.12 c 0,154,155
 1119.99 418.857 1119.99 418.857 1147.33 502.976 c 128,-1,156
 1174.66 587.094 1174.66 587.094 1219.82 645.077 c 128,-1,157
 1264.97 703.06 1264.97 703.06 1324.23 736.7 c 128,-1,158
 1383.5 770.34 1383.5 770.34 1446.33 770.34 c 0,159,160
 1524.35 770.34 1524.35 770.34 1590.52 712.082 c 128,-1,161
 1656.7 653.825 1656.7 653.825 1695.82 550.358 c 128,-1,162
 1734.93 446.89 1734.93 446.89 1734.93 321.9 c 0,145,146
EndSplineSet
EndChar

StartChar: dotlessi
Encoding: 305 305 214
Width: 1233
Flags: W
LayerCount: 2
Fore
SplineSet
221 1120 m 1,0,-1
 801 1120 l 1,1,-1
 801 225 l 1,2,-1
 1165 225 l 1,3,-1
 1165 0 l 1,4,-1
 143 0 l 1,5,-1
 143 225 l 1,6,-1
 508 225 l 1,7,-1
 508 895 l 1,8,-1
 221 895 l 1,9,-1
 221 1120 l 1,0,-1
EndSplineSet
EndChar

StartChar: circumflex
Encoding: 710 710 215
Width: 1233
Flags: W
LayerCount: 2
Fore
SplineSet
496 1638 m 1,0,-1
 737 1638 l 1,1,-1
 993 1262 l 1,2,-1
 815 1262 l 1,3,-1
 616 1487 l 1,4,-1
 418 1262 l 1,5,-1
 240 1262 l 1,6,-1
 496 1638 l 1,0,-1
EndSplineSet
EndChar

StartChar: tilde
Encoding: 732 732 216
Width: 1233
Flags: W
LayerCount: 2
Fore
SplineSet
618 1364 m 2,0,-1
 563 1401 l 2,1,2
 560 1403 560 1403 551 1409 c 0,3,4
 508 1438 508 1438 481 1438 c 0,5,6
 445 1438 445 1438 426.5 1407 c 128,-1,7
 408 1376 408 1376 408 1317 c 2,8,-1
 408 1309 l 1,9,-1
 268 1309 l 1,10,11
 268 1445 268 1445 319.5 1519 c 128,-1,12
 371 1593 371 1593 465 1593 c 0,13,14
 501 1593 501 1593 537 1579.5 c 128,-1,15
 573 1566 573 1566 614 1536 c 2,16,-1
 676 1493 l 2,17,18
 697 1478 697 1478 715.5 1470 c 128,-1,19
 734 1462 734 1462 750 1462 c 0,20,21
 786 1462 786 1462 805.5 1493.5 c 128,-1,22
 825 1525 825 1525 825 1583 c 2,23,-1
 825 1591 l 1,24,-1
 965 1591 l 1,25,26
 965 1455 965 1455 913.5 1381 c 128,-1,27
 862 1307 862 1307 768 1307 c 0,28,29
 732 1307 732 1307 699 1319 c 128,-1,30
 666 1331 666 1331 618 1364 c 2,0,-1
EndSplineSet
EndChar

StartChar: macron
Encoding: 175 175 217
Width: 1233
Flags: W
LayerCount: 2
Fore
SplineSet
301 1556 m 1,0,-1
 932 1556 l 1,1,-1
 932 1368 l 1,2,-1
 301 1368 l 1,3,-1
 301 1556 l 1,0,-1
EndSplineSet
EndChar

StartChar: breve
Encoding: 728 728 218
Width: 1233
Flags: W
LayerCount: 2
Fore
SplineSet
281 1606 m 1,0,-1
 422 1606 l 1,1,2
 433 1537 433 1537 483 1499.5 c 128,-1,3
 533 1462 533 1462 616 1462 c 256,4,5
 699 1462 699 1462 748.5 1499 c 128,-1,6
 798 1536 798 1536 809 1606 c 1,7,-1
 952 1606 l 1,8,9
 946 1462 946 1462 859.5 1385.5 c 128,-1,10
 773 1309 773 1309 616 1309 c 0,11,12
 460 1309 460 1309 373.5 1385.5 c 128,-1,13
 287 1462 287 1462 281 1606 c 1,0,-1
EndSplineSet
EndChar

StartChar: dotaccent
Encoding: 729 729 219
Width: 1233
Flags: W
LayerCount: 2
Fore
SplineSet
479 1585 m 1,0,-1
 754 1585 l 1,1,-1
 754 1339 l 1,2,-1
 479 1339 l 1,3,-1
 479 1585 l 1,0,-1
EndSplineSet
EndChar

StartChar: ring
Encoding: 730 730 220
Width: 1233
Flags: W
LayerCount: 2
Fore
SplineSet
332 1534 m 256,0,1
 332 1652 332 1652 415 1735.5 c 128,-1,2
 498 1819 498 1819 616 1819 c 0,3,4
 735 1819 735 1819 818 1735.5 c 128,-1,5
 901 1652 901 1652 901 1534 c 256,6,7
 901 1416 901 1416 818 1332.5 c 128,-1,8
 735 1249 735 1249 616 1249 c 0,9,10
 498 1249 498 1249 415 1332.5 c 128,-1,11
 332 1416 332 1416 332 1534 c 256,0,1
485 1534 m 0,12,13
 485 1479 485 1479 523.5 1441 c 128,-1,14
 562 1403 562 1403 616 1403 c 0,15,16
 671 1403 671 1403 709.5 1441.5 c 128,-1,17
 748 1480 748 1480 748 1534 c 256,18,19
 748 1588 748 1588 709 1626.5 c 128,-1,20
 670 1665 670 1665 616 1665 c 256,21,22
 562 1665 562 1665 523.5 1626.5 c 128,-1,23
 485 1588 485 1588 485 1534 c 0,12,13
EndSplineSet
EndChar

StartChar: cedilla
Encoding: 184 184 221
Width: 1233
Flags: W
LayerCount: 2
Fore
SplineSet
707 0 m 1,0,1
 764 -62 764 -62 791.5 -115 c 128,-1,2
 819 -168 819 -168 819 -215 c 0,3,4
 819 -310 819 -310 757.5 -355.5 c 128,-1,5
 696 -401 696 -401 569 -401 c 0,6,7
 521 -401 521 -401 470.5 -394.5 c 128,-1,8
 420 -388 420 -388 367 -375 c 1,9,-1
 367 -219 l 1,10,11
 412 -236 412 -236 454 -245 c 128,-1,12
 496 -254 496 -254 532 -254 c 0,13,14
 590 -254 590 -254 622.5 -231 c 128,-1,15
 655 -208 655 -208 655 -168 c 0,16,17
 655 -142 655 -142 634 -101 c 128,-1,18
 613 -60 613 -60 567 0 c 1,19,-1
 707 0 l 1,0,1
EndSplineSet
EndChar

StartChar: hungarumlaut
Encoding: 733 733 222
Width: 1233
Flags: W
LayerCount: 2
Fore
SplineSet
854 1638 m 1,0,-1
 1085 1638 l 1,1,-1
 813 1262 l 1,2,-1
 639 1262 l 1,3,-1
 854 1638 l 1,0,-1
492 1638 m 1,4,-1
 709 1638 l 1,5,-1
 461 1262 l 1,6,-1
 297 1262 l 1,7,-1
 492 1638 l 1,4,-1
EndSplineSet
EndChar

StartChar: ogonek
Encoding: 731 731 223
Width: 1233
Flags: W
LayerCount: 2
Fore
SplineSet
557 0 m 1,0,-1
 698 0 l 1,1,2
 645 -71 645 -71 626.5 -106 c 128,-1,3
 608 -141 608 -141 608 -166 c 0,4,5
 608 -205 608 -205 638.5 -229.5 c 128,-1,6
 669 -254 669 -254 719 -254 c 0,7,8
 757 -254 757 -254 795.5 -246.5 c 128,-1,9
 834 -239 834 -239 874 -223 c 1,10,-1
 874 -379 l 1,11,12
 820 -390 820 -390 772.5 -395.5 c 128,-1,13
 725 -401 725 -401 684 -401 c 0,14,15
 570 -401 570 -401 508 -355 c 128,-1,16
 446 -309 446 -309 446 -223 c 0,17,18
 446 -170 446 -170 473.5 -115.5 c 128,-1,19
 501 -61 501 -61 557 0 c 1,0,-1
EndSplineSet
EndChar

StartChar: caron
Encoding: 711 711 224
Width: 1233
Flags: W
LayerCount: 2
Fore
SplineSet
496 1262 m 1,0,-1
 240 1638 l 1,1,-1
 418 1638 l 1,2,-1
 616 1411 l 1,3,-1
 815 1638 l 1,4,-1
 993 1638 l 1,5,-1
 737 1262 l 1,6,-1
 496 1262 l 1,0,-1
EndSplineSet
EndChar

StartChar: Lslash
Encoding: 321 321 225
Width: 1233
Flags: W
LayerCount: 2
Fore
SplineSet
225 0 m 1,0,-1
 225 537 l 1,1,-1
 74 426 l 1,2,-1
 -39 580 l 1,3,-1
 225 768 l 1,4,-1
 225 1493 l 1,5,-1
 520 1493 l 1,6,-1
 520 973 l 1,7,-1
 795 1167 l 1,8,-1
 907 1014 l 1,9,-1
 520 741 l 1,10,-1
 520 260 l 1,11,-1
 1151 260 l 1,12,-1
 1151 0 l 1,13,-1
 225 0 l 1,0,-1
EndSplineSet
EndChar

StartChar: lslash
Encoding: 322 322 226
Width: 1233
Flags: W
LayerCount: 2
Fore
SplineSet
410 467 m 2,0,-1
 410 633 l 1,1,-1
 137 438 l 1,2,-1
 37 600 l 1,3,-1
 410 864 l 1,4,-1
 410 1331 l 1,5,-1
 115 1331 l 1,6,-1
 115 1556 l 1,7,-1
 702 1556 l 1,8,-1
 702 1071 l 1,9,-1
 997 1280 l 1,10,-1
 1100 1120 l 1,11,-1
 702 840 l 1,12,-1
 702 467 l 2,13,14
 702 335 702 335 743.5 280 c 128,-1,15
 785 225 785 225 883 225 c 2,16,-1
 1116 225 l 1,17,-1
 1116 0 l 1,18,-1
 801 0 l 2,19,20
 592 0 592 0 501 108 c 128,-1,21
 410 216 410 216 410 467 c 2,0,-1
EndSplineSet
EndChar

StartChar: brokenbar
Encoding: 166 166 231
Width: 1233
Flags: W
LayerCount: 2
Fore
SplineSet
729 408 m 1,0,-1
 729 -350 l 1,1,-1
 502 -350 l 1,2,-1
 502 408 l 1,3,-1
 729 408 l 1,0,-1
729 1432 m 1,4,-1
 729 674 l 1,5,-1
 502 674 l 1,6,-1
 502 1432 l 1,7,-1
 729 1432 l 1,4,-1
EndSplineSet
EndChar

StartChar: Eth
Encoding: 208 208 232
Width: 1233
Flags: W
LayerCount: 2
Fore
SplineSet
432 1227 m 1,0,-1
 432 901 l 1,1,-1
 643 901 l 1,2,-1
 643 664 l 1,3,-1
 432 664 l 1,4,-1
 432 266 l 1,5,-1
 512 266 l 2,6,7
 686 266 686 266 760 375.5 c 128,-1,8
 834 485 834 485 834 748 c 0,9,10
 834 1009 834 1009 760 1118 c 128,-1,11
 686 1227 686 1227 512 1227 c 2,12,-1
 432 1227 l 1,0,-1
137 1493 m 1,13,-1
 453 1493 l 2,14,15
 819 1493 819 1493 980 1318.5 c 128,-1,16
 1141 1144 1141 1144 1141 748 c 0,17,18
 1141 351 1141 351 980 175.5 c 128,-1,19
 819 0 819 0 453 0 c 2,20,-1
 137 0 l 1,21,-1
 137 664 l 1,22,-1
 0 664 l 1,23,-1
 0 901 l 1,24,-1
 137 901 l 1,25,-1
 137 1493 l 1,13,-1
EndSplineSet
EndChar

StartChar: eth
Encoding: 240 240 233
Width: 1233
Flags: W
LayerCount: 2
Fore
SplineSet
811 760 m 1,0,1
 762 787 762 787 713 801 c 128,-1,2
 664 815 664 815 616 815 c 0,3,4
 511 815 511 815 450 742.5 c 128,-1,5
 389 670 389 670 389 545 c 0,6,7
 389 387 389 387 448.5 298 c 128,-1,8
 508 209 508 209 612 209 c 0,9,10
 721 209 721 209 778.5 299.5 c 128,-1,11
 836 390 836 390 836 563 c 0,12,13
 836 608 836 608 829.5 657 c 128,-1,14
 823 706 823 706 811 760 c 1,0,1
940 1100 m 2,15,16
 1040 963 1040 963 1083 836.5 c 128,-1,17
 1126 710 1126 710 1126 559 c 0,18,19
 1126 283 1126 283 990 127 c 128,-1,20
 854 -29 854 -29 612 -29 c 0,21,22
 376 -29 376 -29 237 124 c 128,-1,23
 98 277 98 277 98 537 c 0,24,25
 98 773 98 773 228 913 c 128,-1,26
 358 1053 358 1053 575 1053 c 0,27,28
 615 1053 615 1053 646.5 1047 c 128,-1,29
 678 1041 678 1041 705 1028 c 1,30,-1
 545 1247 l 1,31,-1
 233 1128 l 1,32,-1
 178 1245 l 1,33,-1
 461 1354 l 1,34,-1
 303 1556 l 1,35,-1
 596 1556 l 1,36,-1
 688 1440 l 1,37,-1
 985 1567 l 1,38,-1
 1051 1444 l 1,39,-1
 774 1327 l 1,40,-1
 940 1100 l 2,15,16
EndSplineSet
EndChar

StartChar: Thorn
Encoding: 222 222 236
Width: 1233
Flags: W
LayerCount: 2
Fore
SplineSet
457 1014 m 1,0,-1
 457 575 l 1,1,-1
 578 575 l 2,2,3
 724 575 724 575 782 624 c 128,-1,4
 840 673 840 673 840 793 c 0,5,6
 840 914 840 914 781.5 964 c 128,-1,7
 723 1014 723 1014 578 1014 c 2,8,-1
 457 1014 l 1,0,-1
162 1493 m 1,9,-1
 457 1493 l 1,10,-1
 457 1255 l 1,11,-1
 567 1255 l 2,12,13
 876 1255 876 1255 1011.5 1145.5 c 128,-1,14
 1147 1036 1147 1036 1147 788 c 0,15,16
 1147 549 1147 549 1010 440.5 c 128,-1,17
 873 332 873 332 567 332 c 2,18,-1
 457 332 l 1,19,-1
 457 0 l 1,20,-1
 162 0 l 1,21,-1
 162 1493 l 1,9,-1
EndSplineSet
EndChar

StartChar: thorn
Encoding: 254 254 237
Width: 1233
Flags: W
LayerCount: 2
Fore
SplineSet
442 158 m 1,0,-1
 442 -426 l 1,1,-1
 150 -426 l 1,2,-1
 150 1556 l 1,3,-1
 442 1556 l 1,4,-1
 442 952 l 1,5,6
 488 1049 488 1049 563 1098 c 128,-1,7
 638 1147 638 1147 739 1147 c 0,8,9
 931 1147 931 1147 1037 993 c 128,-1,10
 1143 839 1143 839 1143 559 c 0,11,12
 1143 275 1143 275 1035.5 123 c 128,-1,13
 928 -29 928 -29 729 -29 c 0,14,15
 639 -29 639 -29 567.5 17.5 c 128,-1,16
 496 64 496 64 442 158 c 1,0,-1
850 561 m 256,17,18
 850 723 850 723 796 815 c 128,-1,19
 742 907 742 907 647 907 c 256,20,21
 552 907 552 907 497 815 c 128,-1,22
 442 723 442 723 442 561 c 256,23,24
 442 399 442 399 497 307 c 128,-1,25
 552 215 552 215 647 215 c 256,26,27
 742 215 742 215 796 307 c 128,-1,28
 850 399 850 399 850 561 c 256,17,18
EndSplineSet
EndChar

StartChar: minus
Encoding: 8722 8722 238
Width: 1724
VWidth: 2220
Flags: W
HStem: 510.6 88.8<257.52 1467.42>
VStem: 184.26 1356.42<532.8 577.2>
LayerCount: 2
Fore
SplineSet
1467.42 510.6 m 2,0,-1
 257.52 510.6 l 2,1,2
 241.286 510.6 241.286 510.6 232.198 511.449 c 128,-1,3
 223.11 512.298 223.11 512.298 209.998 515.994 c 128,-1,4
 196.886 519.691 196.886 519.691 190.573 529.486 c 128,-1,5
 184.26 539.282 184.26 539.282 184.26 555 c 128,-1,6
 184.26 570.718 184.26 570.718 190.573 580.514 c 128,-1,7
 196.886 590.309 196.886 590.309 209.998 594.006 c 128,-1,8
 223.11 597.702 223.11 597.702 232.198 598.551 c 128,-1,9
 241.286 599.4 241.286 599.4 257.52 599.4 c 2,10,-1
 1467.42 599.4 l 2,11,12
 1483.65 599.4 1483.65 599.4 1492.74 598.551 c 128,-1,13
 1501.83 597.702 1501.83 597.702 1514.94 594.006 c 128,-1,14
 1528.05 590.309 1528.05 590.309 1534.37 580.514 c 128,-1,15
 1540.68 570.718 1540.68 570.718 1540.68 555 c 128,-1,16
 1540.68 539.282 1540.68 539.282 1534.37 529.486 c 128,-1,17
 1528.05 519.691 1528.05 519.691 1514.94 515.994 c 128,-1,18
 1501.83 512.298 1501.83 512.298 1492.74 511.449 c 128,-1,19
 1483.65 510.6 1483.65 510.6 1467.42 510.6 c 2,0,-1
EndSplineSet
EndChar

StartChar: multiply
Encoding: 215 215 239
Width: 1233
Flags: HW
LayerCount: 2
Fore
SplineSet
1112 971 m 1,0,-1
 782 643 l 1,1,-1
 1112 313 l 1,2,-1
 944 147 l 1,3,-1
 614 475 l 1,4,-1
 287 147 l 1,5,-1
 119 313 l 1,6,-1
 449 643 l 1,7,-1
 119 971 l 1,8,-1
 287 1139 l 1,9,-1
 614 811 l 1,10,-1
 944 1139 l 1,11,-1
 1112 971 l 1,0,-1
EndSplineSet
EndChar

StartChar: uni00B9
Encoding: 185 185 240
Width: 1233
Flags: W
LayerCount: 2
Fore
SplineSet
313 813 m 1,0,-1
 539 813 l 1,1,-1
 539 1356 l 1,2,-1
 319 1313 l 1,3,-1
 319 1462 l 1,4,-1
 541 1503 l 1,5,-1
 735 1503 l 1,6,-1
 735 813 l 1,7,-1
 961 813 l 1,8,-1
 961 668 l 1,9,-1
 313 668 l 1,10,-1
 313 813 l 1,0,-1
EndSplineSet
EndChar

StartChar: uni00B2
Encoding: 178 178 241
Width: 1233
Flags: W
LayerCount: 2
Fore
SplineSet
500 813 m 1,0,-1
 940 813 l 1,1,-1
 940 668 l 1,2,-1
 274 668 l 1,3,-1
 274 809 l 1,4,5
 325 852 325 852 415 927 c 0,6,7
 729 1189 729 1189 729 1268 c 0,8,9
 729 1320 729 1320 685.5 1350 c 128,-1,10
 642 1380 642 1380 567 1380 c 0,11,12
 511 1380 511 1380 443.5 1362.5 c 128,-1,13
 376 1345 376 1345 299 1311 c 1,14,-1
 299 1475 l 1,15,16
 374 1497 374 1497 445 1508.5 c 128,-1,17
 516 1520 516 1520 582 1520 c 0,18,19
 751 1520 751 1520 844.5 1457.5 c 128,-1,20
 938 1395 938 1395 938 1284 c 0,21,22
 938 1158 938 1158 583 878 c 0,23,24
 529 836 529 836 500 813 c 1,0,-1
EndSplineSet
EndChar

StartChar: uni00B3
Encoding: 179 179 242
Width: 1233
Flags: W
LayerCount: 2
Fore
SplineSet
582 1042 m 2,0,-1
 471 1042 l 1,1,-1
 471 1188 l 1,2,-1
 582 1188 l 2,3,4
 656 1188 656 1188 698.5 1213 c 128,-1,5
 741 1238 741 1238 741 1282 c 0,6,7
 741 1327 741 1327 701.5 1352.5 c 128,-1,8
 662 1378 662 1378 592 1378 c 0,9,10
 523 1378 523 1378 454 1367 c 128,-1,11
 385 1356 385 1356 317 1333 c 1,12,-1
 317 1485 l 1,13,14
 386 1502 386 1502 455.5 1511 c 128,-1,15
 525 1520 525 1520 592 1520 c 0,16,17
 754 1520 754 1520 846 1462 c 128,-1,18
 938 1404 938 1404 938 1303 c 0,19,20
 938 1230 938 1230 885.5 1183 c 128,-1,21
 833 1136 833 1136 735 1120 c 1,22,23
 846 1105 846 1105 904.5 1049 c 128,-1,24
 963 993 963 993 963 901 c 0,25,26
 963 780 963 780 866.5 716.5 c 128,-1,27
 770 653 770 653 586 653 c 0,28,29
 511 653 511 653 436 663.5 c 128,-1,30
 361 674 361 674 287 694 c 1,31,-1
 287 848 l 1,32,33
 354 821 354 821 430 807 c 128,-1,34
 506 793 506 793 586 793 c 0,35,36
 671 793 671 793 718.5 825 c 128,-1,37
 766 857 766 857 766 913 c 0,38,39
 766 974 766 974 717 1008 c 128,-1,40
 668 1042 668 1042 582 1042 c 2,0,-1
EndSplineSet
EndChar

StartChar: dcroat
Encoding: 273 273 255
Width: 1233
Flags: W
LayerCount: 2
Fore
SplineSet
791 961 m 1,0,-1
 791 1251 l 1,1,-1
 485 1251 l 1,2,-1
 485 1440 l 1,3,-1
 791 1440 l 1,4,-1
 791 1556 l 1,5,-1
 1083 1556 l 1,6,-1
 1083 1440 l 1,7,-1
 1229 1440 l 1,8,-1
 1229 1251 l 1,9,-1
 1083 1251 l 1,10,-1
 1083 0 l 1,11,-1
 791 0 l 1,12,-1
 791 166 l 1,13,14
 744 69 744 69 669.5 20 c 128,-1,15
 595 -29 595 -29 494 -29 c 0,16,17
 302 -29 302 -29 196 125 c 128,-1,18
 90 279 90 279 90 559 c 0,19,20
 90 843 90 843 197.5 995 c 128,-1,21
 305 1147 305 1147 504 1147 c 0,22,23
 594 1147 594 1147 665.5 1100.5 c 128,-1,24
 737 1054 737 1054 791 961 c 1,0,-1
383 557 m 256,25,26
 383 395 383 395 437 303 c 128,-1,27
 491 211 491 211 586 211 c 256,28,29
 681 211 681 211 736 303 c 128,-1,30
 791 395 791 395 791 557 c 256,31,32
 791 719 791 719 736 811 c 128,-1,33
 681 903 681 903 586 903 c 256,34,35
 491 903 491 903 437 811 c 128,-1,36
 383 719 383 719 383 557 c 256,25,26
EndSplineSet
EndChar

StartChar: uni00AD
Encoding: 173 173 256
Width: 1233
Flags: W
LayerCount: 2
Fore
SplineSet
301 735 m 1,0,-1
 932 735 l 1,1,-1
 932 444 l 1,2,-1
 301 444 l 1,3,-1
 301 735 l 1,0,-1
EndSplineSet
EndChar

StartChar: uni2219
Encoding: 8729 8729 257
Width: 1110
VWidth: 2220
Flags: W
HStem: 941.28 44.4G<434.01 671.55>
LayerCount: 2
Fore
SplineSet
983.46 555 m 0,0,1
 983.46 439.783 983.46 439.783 926.838 340.826 c 128,-1,2
 870.217 241.869 870.217 241.869 770.721 183.095 c 128,-1,3
 671.226 124.32 671.226 124.32 552.78 124.32 c 0,4,5
 466.857 124.32 466.857 124.32 387.742 158.498 c 128,-1,6
 308.627 192.675 308.627 192.675 250.889 250.295 c 128,-1,7
 193.151 307.914 193.151 307.914 158.736 387.782 c 128,-1,8
 124.32 467.649 124.32 467.649 124.32 555 c 0,9,10
 124.32 670.217 124.32 670.217 180.942 769.174 c 128,-1,11
 237.563 868.131 237.563 868.131 337.058 926.905 c 128,-1,12
 436.554 985.68 436.554 985.68 555 985.68 c 0,13,14
 640.922 985.68 640.922 985.68 720.037 951.502 c 128,-1,15
 799.152 917.325 799.152 917.325 856.891 859.705 c 128,-1,16
 914.629 802.086 914.629 802.086 949.044 722.218 c 128,-1,17
 983.46 642.351 983.46 642.351 983.46 555 c 0,0,1
EndSplineSet
EndChar

StartChar: Euro
Encoding: 8364 8364 258
Width: 1233
Flags: W
LayerCount: 2
Fore
SplineSet
209 1010 m 1,0,1
 253 1260 253 1260 399 1390 c 128,-1,2
 545 1520 545 1520 780 1520 c 0,3,4
 863 1520 863 1520 936 1502 c 128,-1,5
 1009 1484 1009 1484 1077 1448 c 1,6,-1
 1077 1120 l 1,7,8
 1003 1198 1003 1198 933 1234 c 128,-1,9
 863 1270 863 1270 786 1270 c 0,10,11
 679 1270 679 1270 609 1204.5 c 128,-1,12
 539 1139 539 1139 508 1010 c 1,13,-1
 950 1010 l 1,14,-1
 866 821 l 1,15,-1
 484 821 l 1,16,17
 482 805 482 805 481.5 787 c 128,-1,18
 481 769 481 769 481 733 c 0,19,20
 481 719 481 719 481.5 703 c 128,-1,21
 482 687 482 687 483 670 c 1,22,-1
 799 670 l 1,23,-1
 715 483 l 1,24,-1
 508 483 l 1,25,26
 532 356 532 356 603.5 288.5 c 128,-1,27
 675 221 675 221 784 221 c 0,28,29
 862 221 862 221 932.5 257 c 128,-1,30
 1003 293 1003 293 1077 371 c 1,31,-1
 1077 43 l 1,32,33
 1011 7 1011 7 937.5 -11 c 128,-1,34
 864 -29 864 -29 780 -29 c 0,35,36
 545 -29 545 -29 399 102 c 128,-1,37
 253 233 253 233 209 483 c 1,38,-1
 6 483 l 1,39,-1
 90 670 l 1,40,-1
 186 670 l 1,41,42
 185 684 185 684 184.5 699.5 c 128,-1,43
 184 715 184 715 184 745 c 0,44,45
 184 774 184 774 184.5 790 c 128,-1,46
 185 806 185 806 186 821 c 1,47,-1
 6 821 l 1,48,-1
 90 1010 l 1,49,-1
 209 1010 l 1,0,1
EndSplineSet
EndChar

StartChar: u10003
Encoding: 65539 65539 259
Width: 1233
Flags: W
LayerCount: 2
Fore
SplineSet
696 1526 m 1,0,-1
 932 1526 l 1,1,-1
 932 1280 l 1,2,-1
 696 1280 l 1,3,-1
 696 1526 l 1,0,-1
301 1526 m 1,4,-1
 537 1526 l 1,5,-1
 537 1280 l 1,6,-1
 301 1280 l 1,7,-1
 301 1526 l 1,4,-1
EndSplineSet
EndChar

StartChar: u10004
Encoding: 65540 65540 260
Width: 1233
Flags: W
LayerCount: 2
Fore
SplineSet
668 1526 m 1,0,-1
 952 1526 l 1,1,-1
 666 1262 l 1,2,-1
 469 1262 l 1,3,-1
 668 1526 l 1,0,-1
EndSplineSet
EndChar

StartChar: u10005
Encoding: 65541 65541 261
Width: 1233
Flags: W
LayerCount: 2
Fore
SplineSet
618 1311 m 2,0,-1
 564 1345 l 2,1,2
 559 1348 559 1348 552 1352 c 0,3,4
 507 1378 507 1378 479 1378 c 0,5,6
 448 1378 448 1378 428 1348 c 128,-1,7
 408 1318 408 1318 408 1268 c 2,8,-1
 408 1262 l 1,9,-1
 268 1262 l 1,10,-1
 268 1292 l 2,11,12
 268 1398 268 1398 322.5 1463 c 128,-1,13
 377 1528 377 1528 465 1528 c 0,14,15
 501 1528 501 1528 538.5 1515.5 c 128,-1,16
 576 1503 576 1503 614 1479 c 2,17,-1
 674 1440 l 2,18,19
 695 1426 695 1426 714.5 1418.5 c 128,-1,20
 734 1411 734 1411 750 1411 c 0,21,22
 786 1411 786 1411 805.5 1441 c 128,-1,23
 825 1471 825 1471 825 1528 c 1,24,-1
 965 1528 l 1,25,26
 965 1523 965 1523 964 1513 c 128,-1,27
 963 1503 963 1503 963 1497 c 0,28,29
 963 1391 963 1391 909.5 1326.5 c 128,-1,30
 856 1262 856 1262 768 1262 c 0,31,32
 731 1262 731 1262 695.5 1273 c 128,-1,33
 660 1284 660 1284 618 1311 c 2,0,-1
EndSplineSet
EndChar

StartChar: u10006
Encoding: 65542 65542 262
Width: 1233
Flags: W
LayerCount: 2
Fore
SplineSet
567 1526 m 1,0,-1
 766 1262 l 1,1,-1
 569 1262 l 1,2,-1
 283 1526 l 1,3,-1
 567 1526 l 1,0,-1
EndSplineSet
EndChar

StartChar: u10007
Encoding: 65543 65543 263
Width: 1233
Flags: W
LayerCount: 2
Fore
SplineSet
461 1526 m 1,0,-1
 770 1526 l 1,1,-1
 993 1262 l 1,2,-1
 815 1262 l 1,3,-1
 616 1423 l 1,4,-1
 418 1262 l 1,5,-1
 240 1262 l 1,6,-1
 461 1526 l 1,0,-1
EndSplineSet
EndChar

StartChar: u10008
Encoding: 65544 65544 264
Width: 1233
Flags: W
LayerCount: 2
Fore
SplineSet
461 1262 m 1,0,-1
 240 1526 l 1,1,-1
 418 1526 l 1,2,-1
 616 1364 l 1,3,-1
 815 1526 l 1,4,-1
 993 1526 l 1,5,-1
 770 1262 l 1,6,-1
 461 1262 l 1,0,-1
EndSplineSet
EndChar

StartChar: u10009
Encoding: 65545 65545 265
Width: 1233
Flags: W
LayerCount: 2
Fore
SplineSet
84 500 m 1,0,-1
 47 618 l 1,1,-1
 1106 881 l 1,2,-1
 1143 762 l 1,3,-1
 84 500 l 1,0,-1
EndSplineSet
EndChar

StartChar: u1000A
Encoding: 65546 65546 266
Width: 1233
Flags: W
LayerCount: 2
Fore
SplineSet
639 1321 m 1,0,-1
 389 991 l 1,1,-1
 639 991 l 1,2,-1
 639 1321 l 1,0,-1
621 1503 m 1,3,-1
 825 1503 l 1,4,-1
 825 991 l 1,5,-1
 934 991 l 1,6,-1
 934 848 l 1,7,-1
 825 848 l 1,8,-1
 825 668 l 1,9,-1
 639 668 l 1,10,-1
 639 848 l 1,11,-1
 246 848 l 1,12,-1
 246 1010 l 1,13,-1
 621 1503 l 1,3,-1
EndSplineSet
EndChar

StartChar: u1000B
Encoding: 65547 65547 267
Width: 1233
Flags: W
LayerCount: 2
Fore
SplineSet
281 1526 m 1,0,-1
 422 1526 l 1,1,2
 442 1466 442 1466 491 1435.5 c 128,-1,3
 540 1405 540 1405 616 1405 c 0,4,5
 693 1405 693 1405 741 1435 c 128,-1,6
 789 1465 789 1465 809 1526 c 1,7,-1
 952 1526 l 1,8,9
 937 1397 937 1397 850.5 1329.5 c 128,-1,10
 764 1262 764 1262 616 1262 c 0,11,12
 469 1262 469 1262 382.5 1329.5 c 128,-1,13
 296 1397 296 1397 281 1526 c 1,0,-1
EndSplineSet
EndChar

StartChar: u1000C
Encoding: 65548 65548 268
Width: 1233
Flags: W
LayerCount: 2
Fore
SplineSet
479 1526 m 1,0,-1
 754 1526 l 1,1,-1
 754 1280 l 1,2,-1
 479 1280 l 1,3,-1
 479 1526 l 1,0,-1
EndSplineSet
EndChar

StartChar: Alpha
Encoding: 913 913 269
Width: 1665
VWidth: 2220
Flags: W
HStem: 0 68.82<71.04 71.04 552.78 552.78 981.24 981.24 1591.74 1591.74> 506.16 68.82<517.26 1016.76> 1545.12 44.4
VStem: 71.04 1520.7<0 68.82>
LayerCount: 2
Fore
SplineSet
883.56 1545.12 m 2,0,-1
 1363.08 157.62 l 2,1,2
 1375.78 119.51 1375.78 119.51 1394.36 101.473 c 128,-1,3
 1412.94 83.4353 1412.94 83.4353 1447.98 76.1278 c 128,-1,4
 1483.02 68.8203 1483.02 68.8203 1551.78 68.8203 c 2,5,-1
 1591.74 68.8203 l 1,6,-1
 1591.74 0 l 1,7,8
 1451.89 6.66016 1451.89 6.66016 1300.92 6.66016 c 0,9,10
 1061.16 6.66016 1061.16 6.66016 981.24 0 c 1,11,-1
 981.24 68.8203 l 1,12,13
 1003.01 68.8203 1003.01 68.8203 1016.38 69.1999 c 128,-1,14
 1029.75 69.5794 1029.75 69.5794 1054.97 71.2157 c 128,-1,15
 1080.19 72.852 1080.19 72.852 1096.53 77.2165 c 128,-1,16
 1112.86 81.581 1112.86 81.581 1130.37 88.4823 c 128,-1,17
 1147.88 95.3836 1147.88 95.3836 1156.69 107.433 c 128,-1,18
 1165.5 119.482 1165.5 119.482 1165.5 135.42 c 0,19,20
 1165.5 139.868 1165.5 139.868 1158.84 166.5 c 2,21,-1
 1041.18 506.16 l 1,22,-1
 492.84 506.16 l 1,23,-1
 390.72 215.34 l 2,24,25
 386.28 206.461 386.28 206.461 386.28 182.04 c 0,26,27
 386.28 135.42 386.28 135.42 430.096 102.12 c 128,-1,28
 473.912 68.8203 473.912 68.8203 552.78 68.8203 c 1,29,-1
 552.78 0 l 1,30,31
 339.629 6.66016 339.629 6.66016 297.48 6.66016 c 0,32,33
 224.241 6.66016 224.241 6.66016 71.04 0 c 1,34,-1
 71.04 68.8203 l 1,35,36
 167.959 70.6149 167.959 70.6149 229.63 103.885 c 128,-1,37
 291.301 137.155 291.301 137.155 319.68 217.56 c 2,38,-1
 779.22 1545.12 l 2,39,40
 788.485 1571.06 788.485 1571.06 798.069 1580.29 c 128,-1,41
 807.653 1589.52 807.653 1589.52 832.5 1589.52 c 0,42,43
 845.474 1589.52 845.474 1589.52 853.584 1587.32 c 128,-1,44
 861.694 1585.12 861.694 1585.12 867.505 1577.47 c 128,-1,45
 873.317 1569.81 873.317 1569.81 875.576 1564.91 c 128,-1,46
 877.834 1560.01 877.834 1560.01 883.56 1545.12 c 2,0,-1
765.9 1296.48 m 1,47,-1
 517.26 574.98 l 1,48,-1
 1016.76 574.98 l 1,49,-1
 765.9 1296.48 l 1,47,-1
EndSplineSet
EndChar

StartChar: Beta
Encoding: 914 914 270
Width: 1571
VWidth: 2220
Flags: W
HStem: 0 68.82<79.92 133.2 133.2 218.67 601.62 879.12 879.12 950.16> 763.68 48.84<492.84 814.74 814.74 910.2> 1447.44 68.82<79.92 133.2 549.45 601.62 601.62 876.9>
VStem: 308.58 184.26<173.16 763.68 812.52 1343.1 1343.1 1358.64> 1169.94 215.34<1070.04 1199.91> 1223.22 222<329.67 482.85>
LayerCount: 2
Fore
SplineSet
492.84 812.52 m 1,0,-1
 814.74 812.52 l 2,1,2
 885.83 812.52 885.83 812.52 945.966 833.099 c 128,-1,3
 1006.1 853.678 1006.1 853.678 1046.56 887.205 c 128,-1,4
 1087.03 920.732 1087.03 920.732 1115.54 964.097 c 128,-1,5
 1144.05 1007.46 1144.05 1007.46 1157 1052.3 c 128,-1,6
 1169.94 1097.14 1169.94 1097.14 1169.94 1141.08 c 0,7,8
 1169.94 1178.39 1169.94 1178.39 1160.46 1218.24 c 128,-1,9
 1150.98 1258.1 1150.98 1258.1 1128.48 1299.63 c 128,-1,10
 1105.98 1341.15 1105.98 1341.15 1073.4 1373.61 c 128,-1,11
 1040.82 1406.07 1040.82 1406.07 989.742 1426.75 c 128,-1,12
 938.666 1447.44 938.666 1447.44 876.9 1447.44 c 2,13,-1
 601.62 1447.44 l 2,14,15
 561.327 1447.44 561.327 1447.44 540.411 1444.53 c 128,-1,16
 519.494 1441.61 519.494 1441.61 508.297 1429.85 c 128,-1,17
 497.1 1418.09 497.1 1418.09 494.97 1404.08 c 128,-1,18
 492.84 1390.07 492.84 1390.07 492.84 1358.64 c 2,19,-1
 492.84 812.52 l 1,0,-1
1016.76 792.54 m 1,20,21
 1138.06 779.427 1138.06 779.427 1236.34 724.344 c 128,-1,22
 1334.62 669.262 1334.62 669.262 1389.92 585.456 c 128,-1,23
 1445.22 501.651 1445.22 501.651 1445.22 406.26 c 0,24,25
 1445.22 328.22 1445.22 328.22 1408.85 254.781 c 128,-1,26
 1372.48 181.342 1372.48 181.342 1308.95 124.839 c 128,-1,27
 1245.41 68.3366 1245.41 68.3366 1151.54 34.1683 c 128,-1,28
 1057.67 0 1057.67 0 950.16 0 c 2,29,-1
 79.9199 0 l 1,30,-1
 79.9199 68.8203 l 1,31,-1
 133.2 68.8203 l 2,32,33
 170.348 68.8203 170.348 68.8203 196.801 70.6844 c 128,-1,34
 223.255 72.5484 223.255 72.5484 242.661 75.2473 c 128,-1,35
 262.068 77.9461 262.068 77.9461 274.055 85.0011 c 128,-1,36
 286.042 92.0561 286.042 92.0561 293.314 98.2627 c 128,-1,37
 300.586 104.469 300.586 104.469 303.776 117.803 c 128,-1,38
 306.966 131.136 306.966 131.136 307.773 141.938 c 128,-1,39
 308.58 152.74 308.58 152.74 308.58 173.16 c 2,40,-1
 308.58 1343.1 l 2,41,42
 308.58 1363.52 308.58 1363.52 307.773 1374.32 c 128,-1,43
 306.966 1385.12 306.966 1385.12 303.776 1398.46 c 128,-1,44
 300.585 1411.79 300.585 1411.79 293.314 1418 c 128,-1,45
 286.042 1424.2 286.042 1424.2 274.055 1431.26 c 128,-1,46
 262.067 1438.31 262.067 1438.31 242.661 1441.01 c 128,-1,47
 223.256 1443.71 223.256 1443.71 196.801 1445.58 c 128,-1,48
 170.347 1447.44 170.347 1447.44 133.2 1447.44 c 2,49,-1
 79.9199 1447.44 l 1,50,-1
 79.9199 1516.26 l 1,51,-1
 892.44 1516.26 l 2,52,53
 997.63 1516.26 997.63 1516.26 1090.69 1484.73 c 128,-1,54
 1183.76 1453.2 1183.76 1453.2 1247.59 1401.17 c 128,-1,55
 1311.42 1349.13 1311.42 1349.13 1348.35 1281.11 c 128,-1,56
 1385.28 1213.09 1385.28 1213.09 1385.28 1141.08 c 0,57,58
 1385.28 1018.36 1385.28 1018.36 1282.1 921.334 c 128,-1,59
 1178.93 824.305 1178.93 824.305 1016.76 792.54 c 1,20,21
879.12 68.8203 m 2,60,61
 945.382 68.8203 945.382 68.8203 1002.42 89.0096 c 128,-1,62
 1059.46 109.199 1059.46 109.199 1099.32 142.99 c 128,-1,63
 1139.18 176.781 1139.18 176.781 1167.66 220.824 c 128,-1,64
 1196.14 264.868 1196.14 264.868 1209.68 312.634 c 128,-1,65
 1223.22 360.399 1223.22 360.399 1223.22 408.48 c 0,66,67
 1223.22 454.715 1223.22 454.715 1212.08 502.607 c 128,-1,68
 1200.94 550.498 1200.94 550.498 1176.02 597.696 c 128,-1,69
 1151.11 644.895 1151.11 644.895 1115.64 681.556 c 128,-1,70
 1080.17 718.217 1080.17 718.217 1026.84 740.948 c 128,-1,71
 973.499 763.68 973.499 763.68 910.2 763.68 c 2,72,-1
 492.84 763.68 l 1,73,-1
 492.84 157.62 l 2,74,75
 492.84 126.192 492.84 126.192 494.97 112.179 c 128,-1,76
 497.1 98.1666 497.1 98.1666 508.297 86.407 c 128,-1,77
 519.494 74.6475 519.494 74.6475 540.411 71.7339 c 128,-1,78
 561.327 68.8203 561.327 68.8203 601.62 68.8203 c 2,79,-1
 879.12 68.8203 l 2,60,61
EndSplineSet
EndChar

StartChar: Gamma
Encoding: 915 915 271
Width: 1387
VWidth: 2220
Flags: W
HStem: 0 68.82<73.26 99.1601 757.02 783.66> 1440.78 68.82<73.26 182.04 73.26 892.44>
VStem: 301.92 197.58<139.86 1356.42>
LayerCount: 2
Fore
SplineSet
1229.88 1509.6 m 1,0,-1
 1292.04 1010.1 l 1,1,-1
 1236.54 1010.1 l 1,2,3
 1230.08 1064.59 1230.08 1064.59 1223.88 1104.09 c 128,-1,4
 1217.69 1143.58 1217.69 1143.58 1208.41 1185.03 c 128,-1,5
 1199.14 1226.48 1199.14 1226.48 1187.65 1255.24 c 128,-1,6
 1176.17 1284 1176.17 1284 1159.85 1312.75 c 128,-1,7
 1143.53 1341.49 1143.53 1341.49 1122.48 1360.13 c 128,-1,8
 1101.43 1378.78 1101.43 1378.78 1073.79 1395.44 c 128,-1,9
 1046.15 1412.09 1046.15 1412.09 1011.26 1421.25 c 128,-1,10
 976.367 1430.4 976.367 1430.4 933.133 1435.59 c 128,-1,11
 889.9 1440.78 889.9 1440.78 836.94 1440.78 c 2,12,-1
 608.28 1440.78 l 2,13,14
 567.987 1440.78 567.987 1440.78 547.071 1437.87 c 128,-1,15
 526.154 1434.95 526.154 1434.95 514.957 1423.19 c 128,-1,16
 503.76 1411.43 503.76 1411.43 501.63 1397.42 c 128,-1,17
 499.5 1383.41 499.5 1383.41 499.5 1351.98 c 2,18,-1
 499.5 175.38 l 2,19,20
 499.5 158.716 499.5 158.716 499.811 151.028 c 128,-1,21
 500.121 143.34 500.121 143.34 501.793 130.829 c 128,-1,22
 503.464 118.318 503.464 118.318 507.333 112.987 c 128,-1,23
 511.201 107.656 511.201 107.656 517.994 99.2011 c 128,-1,24
 524.787 90.746 524.787 90.746 535.684 87.4434 c 128,-1,25
 546.581 84.1408 546.581 84.1408 561.968 79.4131 c 128,-1,26
 577.354 74.6854 577.354 74.6854 598.752 73.0821 c 128,-1,27
 620.149 71.4788 620.149 71.4788 647.601 70.1495 c 128,-1,28
 675.052 68.8203 675.052 68.8203 710.4 68.8203 c 2,29,-1
 783.66 68.8203 l 1,30,-1
 783.66 0 l 1,31,32
 703.74 6.66016 703.74 6.66016 410.7 6.66016 c 0,33,34
 150.96 6.66016 150.96 6.66016 73.2598 0 c 1,35,-1
 73.2598 68.8203 l 1,36,-1
 126.54 68.8203 l 2,37,38
 163.688 68.8203 163.688 68.8203 190.142 70.6844 c 128,-1,39
 216.595 72.5484 216.595 72.5484 236.002 75.2473 c 128,-1,40
 255.408 77.9461 255.408 77.9461 267.395 85.0011 c 128,-1,41
 279.382 92.056 279.382 92.056 286.654 98.2627 c 128,-1,42
 293.926 104.469 293.926 104.469 297.116 117.803 c 128,-1,43
 300.306 131.136 300.306 131.136 301.113 141.938 c 128,-1,44
 301.92 152.74 301.92 152.74 301.92 173.16 c 2,45,-1
 301.92 1336.44 l 2,46,47
 301.92 1356.86 301.92 1356.86 301.113 1367.66 c 128,-1,48
 300.306 1378.46 300.306 1378.46 297.116 1391.8 c 128,-1,49
 293.926 1405.13 293.926 1405.13 286.654 1411.34 c 128,-1,50
 279.382 1417.54 279.382 1417.54 267.395 1424.6 c 128,-1,51
 255.408 1431.65 255.408 1431.65 236.002 1434.35 c 128,-1,52
 216.595 1437.05 216.595 1437.05 190.142 1438.92 c 128,-1,53
 163.688 1440.78 163.688 1440.78 126.54 1440.78 c 2,54,-1
 73.2598 1440.78 l 1,55,-1
 73.2598 1509.6 l 1,56,-1
 1229.88 1509.6 l 1,0,-1
EndSplineSet
EndChar

